<?xml version="1.0" encoding="UTF-8"?><svg id="a" xmlns="http://www.w3.org/2000/svg" viewBox="0 0 250 250"><defs><style>.b{fill:#e7e4ca;}</style></defs><path class="b" d="M41.15,173.95c-.8,1.2-.15,2.22-.82,2.59-.45.25-.84-.08-1.11-.56l-2.96-5.35c-.27-.48-.32-.95.13-1.2.67-.37,1.33.73,2.63.68.82-.03,1.91-.56,3.48-1.42l5.7-3.16c1.38-.76,2.11-1.17,2.45-1.77.21-.37.19-.86.09-1.43-.09-.54-.11-.95.21-1.12.32-.18.65-.19,1.23.49.91,1.04,1.66,1.8,2.61,2.53.22.17.39.33.5.52.21.38.12.81-.46,1.13l-10.63,5.89c-1.6.89-2.59,1.52-3.05,2.19ZM57.18,162.48c-.41-.74.31-3.14,1.01-3.53.74-.41,3.16.26,3.56,1,.41.74-.31,3.14-1.05,3.55-.7.39-3.12-.28-3.53-1.01Z"/><path class="b" d="M58.98,191.33c-1.45,1.23-2.44,2.21-2.69,3-.32,1.09.32,2.08-.18,2.5-.39.33-.84.09-1.19-.33l-3.97-4.69c-.36-.42-.52-.9-.13-1.23.56-.47,1.39.45,2.64.17.77-.17,1.84-.94,3.24-2.12l4.36-3.69c2.43-2.06,2.4-4.24,1.01-5.89-.71-.84-1.77-1.47-3.01-1.57-1.96-.16-3.68.86-7.98,4.51-1.42,1.21-2.39,2.17-2.66,2.92-.41,1.16.27,2.13-.24,2.55-.39.33-.81.11-1.17-.3l-3.93-4.64c-.35-.42-.5-.87-.11-1.2.59-.5,1.47.48,2.71.15.77-.22,1.79-.94,3.16-2.1l5.45-4.61c.89-.76,1.37-1.21,1.52-1.77.29-1.01-.84-2.07-.23-2.59.31-.26.62-.29,1.3.24,1.1.84,2.09,1.45,3.04,1.89.25.12.45.24.59.41.31.36.27.83-.26,1.28l-1.65,1.4c-.08.07-.12.15-.07.2.05.06.13.04.26.02,2.02-.22,4.49.37,6.26,2.47,1.35,1.59,1.76,3.5,1.37,5.13-.32,1.32-1.04,2.51-2.99,4.17l-4.44,3.76Z"/><path class="b" d="M81.61,196.7c-.15-.11-.42-.35-.42-.35-.08,1.25-.65,2.42-1.25,3.25-2.28,3.18-6.22,3.83-9.78,1.63-1.31-.81-2.58-1.81-3.26-.86-.43.59-.02,1.29,1.36,2.51,1.16,1.02,2.77,2.17,4.11,3.44,1.88,1.84,2.24,3.91,1.02,5.6-2.33,3.24-6.82,2.54-11.16-.58-2.62-1.88-4.25-3.87-4.66-5.56-.32-1.18-.08-2.27.47-3.04,1.24-1.72,3.38-1.45,4.16-.89.45.32.56.72.35,1.02-.26.36-1.04.38-1.7,1.3-1.39,1.93.59,4.39,2.82,5.99,2.76,1.99,5.59,2.44,6.7.89.77-1.07.23-2.14-1.39-3.52-1.28-1.1-3.16-2.45-4.33-3.7-1.55-1.61-1.68-3.24-.89-4.34.96-1.34,2.81-1.27,3.58-1.03.11.03.13,0,.15-.03s.01-.08-.03-.15c-1.16-2.14-1.23-4.76.42-7.05,2.22-3.09,6.55-3.85,9.97-1.4,2.68,1.92,2.84,4.2,3.52,4.69.89.64,1.67-1.01,2.98-.07.77.56.88,1.35.32,2.12-.73,1.01-1.8,1-3.05.11ZM71.3,192.73c-1.35,1.87-2.49,5.29-.14,6.97,1.84,1.32,3.99.34,5.4-1.62,1.35-1.87,2.34-5.26.08-6.88-1.81-1.3-3.95-.4-5.34,1.53Z"/><path class="b" d="M98.2,203.55c-.36.8-.95,1.42-1.82,1.03-.8-.36-.91-1.29-1.91-1.73-.64-.28-1.47-.29-2.43.32-1.34.85-2.61,2.17-4.82,7.15-.73,1.64-1.15,2.77-1.12,3.59.07,1.47,1.23,1.83.9,2.56-.21.47-.68.46-1.22.22l-5.52-2.46c-.54-.24-.86-.58-.65-1.05.31-.7,1.5-.13,2.57-1.1.55-.52,1.13-1.54,1.86-3.18l2.66-5.99c.64-1.44.86-2.3.76-2.87-.22-1.14-1.58-1.58-1.25-2.32.16-.37.47-.51,1.23-.33,1.21.26,1.98.32,3.14.32.36,0,.66.05.89.16.5.22.62.68.35,1.28l-1.18,2.64c-.03.07-.06.13,0,.16.07.03.15-.06.21-.11,1.34-1.13,4.09-2.43,6.23-1.48,1.3.58,1.71,1.84,1.11,3.18Z"/><path class="b" d="M111.82,220.16c-.22,1-3.67,3.64-8.42,2.58-5.46-1.22-7.72-6.23-6.62-11.12,1.17-5.21,6.01-9.42,11.55-8.18,5.14,1.15,6.35,5.81,5.79,8.31-.49,2.18-1.63,2.26-3.39,1.9,0,0-9.43-2.11-9.68-2.17-.25-.06-.42.02-.47.27l-.04.18c-.84,3.75.55,7.59,4.34,8.44,3.5.78,5.47-1.32,6.33-1.13.43.1.73.43.62.93ZM101.25,209.43c-.04.18.02.23.24.28.25.06,5.82,1.3,5.82,1.3,2.07.46,3.1.24,3.46-1.4.37-1.64-.62-3.93-3.16-4.5-2.86-.64-5.22,1.38-6.24,3.93-.1.28-.12.35-.12.38Z"/><path class="b" d="M134.8,219.05c.02.95.07,1.68.3,2.12.57.98,2.21.76,2.23,1.56,0,.37-.17.66-1.01.86-1.38.36-2.4.71-3.27,1.1-.4.19-.62.23-.84.24-.48.01-.77-.24-.79-.93l-.04-1.98c0-.18-.12-.29-.23-.29-.07,0-.15.04-.25.15-1.43,1.82-3.56,3.15-5.94,3.2-3.51.08-7.56-2.51-7.7-8.84-.12-5.42,3.06-10.98,8.51-11.09,1.76-.04,3.42.48,4.86,1.36.11.07.19.11.26.1.11,0,.14-.08.14-.19l-.08-3.48c-.02-.95-.07-1.72-.45-2.19-.71-.86-2.06-.65-2.08-1.46,0-.37.13-.63,1.01-.83,1.35-.32,2.22-.63,3.31-1.1.29-.12.51-.23.8-.24.44,0,.77.28.79.93l.45,20.97ZM131.23,214.81c-.11-5.05-2.33-7.86-5.4-7.79-3.84.08-5.07,4.21-4.99,7.83.09,4.32,2.29,7.68,5.47,7.61,3.22-.07,5.02-3.11,4.92-7.65Z"/><path class="b" d="M141.82,200.59c-.82.18-2.92-1.2-3.09-1.99-.18-.82,1.16-2.95,1.98-3.13.82-.18,2.92,1.2,3.1,2.02.17.79-1.16,2.91-1.99,3.09ZM148.21,219.24c.92,1.11,2.08.78,2.24,1.53.11.5-.32.78-.85.9l-5.97,1.3c-.54.12-1,.03-1.11-.47-.16-.75,1.08-1.06,1.4-2.33.2-.79.02-1.99-.37-3.74l-1.39-6.37c-.34-1.54-.51-2.36-1-2.85-.29-.31-.77-.43-1.34-.49-.54-.07-.94-.17-1.01-.53-.08-.36,0-.67.82-1.04,1.26-.57,2.2-1.08,3.17-1.78.23-.16.43-.28.64-.33.43-.09.81.12.95.77l2.59,11.87c.39,1.79.71,2.92,1.22,3.55Z"/><path class="b" d="M168.71,210.6c.39.95-.93,5.08-5.44,6.92-5.19,2.11-9.89-.71-11.79-5.36-2.02-4.95-.44-11.17,4.82-13.31,4.88-1.99,8.53,1.15,9.5,3.52.84,2.07-.05,2.79-1.7,3.5,0,0-8.95,3.64-9.19,3.74-.24.1-.33.25-.23.49l.07.17c1.45,3.56,4.78,5.92,8.37,4.45,3.32-1.35,3.74-4.21,4.55-4.54.41-.17.84-.07,1.04.41ZM153.91,207.81c.07.17.15.18.35.09.24-.1,5.53-2.25,5.53-2.25,1.97-.8,2.68-1.57,2.05-3.13-.64-1.56-2.75-2.87-5.16-1.89-2.71,1.1-3.5,4.11-2.89,6.79.08.29.1.35.12.39Z"/><path class="b" d="M186.59,195.47c1.13,1.54,2.04,2.59,2.8,2.89,1.06.4,2.1-.17,2.49.36.3.41.03.84-.42,1.17l-4.96,3.64c-.44.32-.93.46-1.24.05-.43-.59.55-1.36.35-2.62-.12-.78-.81-1.9-1.89-3.38l-3.38-4.6c-1.88-2.57-4.06-2.69-5.8-1.42-.89.65-1.59,1.67-1.78,2.89-.3,1.94.6,3.73,3.94,8.28,1.1,1.51,1.99,2.53,2.73,2.86,1.13.49,2.14-.12,2.53.42.3.41.06.82-.39,1.15l-4.9,3.59c-.44.32-.91.44-1.21.02-.45-.62.59-1.43.34-2.7-.17-.79-.81-1.85-1.87-3.3l-4.22-5.76c-.69-.94-1.11-1.45-1.66-1.64-.99-.36-2.12.69-2.6.04-.24-.32-.24-.64.33-1.28.92-1.04,1.59-1.98,2.1-2.9.14-.24.28-.43.45-.56.38-.28.84-.21,1.26.35l1.28,1.74c.06.09.14.13.2.08.06-.04.05-.12.04-.26-.08-2.03.69-4.45,2.9-6.07,1.68-1.23,3.61-1.51,5.21-1.01,1.3.41,2.43,1.21,3.95,3.28l3.44,4.69Z"/><path class="b" d="M201.29,184.43c.41.37.67,1.34.64,2.35,0,1.32-.47,2.88-1.62,4.15-1.2,1.33-2.62,1.82-4.11,1.67-1.22-.12-2.54-.9-3.92-2.15-2.39-2.15-4.67-4.55-7.37-6.97-.19-.17-.35-.16-.52.03l-1.54,1.71c-.17.19-.38.2-.6,0l-.87-.78c-.16-.15-.2-.33-.08-.57.75-1.49.91-2.43.66-3.25-.25-.82-.89-1.59-1.61-2.58-.17-.25-.2-.43,0-.65l1-1.12c.2-.22.4-.23.59-.06l2.83,2.55c.49.44.72.45,1.16-.04.37-.41.69-.76,1.19-1.44.46-.62,1.06-1.46,1.58-2.03.54-.6.92-.75,1.27-.43.14.12.28.35.44.55.56.7.43,1.22-.21,1.93-.44.49-1.06,1.02-1.68,1.64-.52.52-.91.96-1.35,1.45-.2.22-.18.42.03.62.35.32,3.27,3.09,4.09,3.83,1.01.91,1.91,1.71,3.25,2.73,2.32,1.74,3.73,1.38,4.68.32,1.27-1.42.68-2.89,1.14-3.4.24-.27.63-.32.9-.07Z"/><path class="b" d="M201.75,178.32c.43-.72,1.61-.48,3-.58,1.62-.13,3.49-.55,4.66-2.49,1.15-1.91.69-3.9-.73-4.75-4.11-2.48-7.59,7.77-13.17,4.41-3.04-1.83-3.38-5.88-1.3-9.33.93-1.54,2.19-2.78,3.16-3.18,1.09-.46,2.2-.04,2.99.43.72.43,1.8,1.13,1.25,2.04-.45.75-1.15.42-2.52.49-1.29.08-2.78.42-3.72,1.99-.79,1.32-.77,3.26.71,4.14,1.94,1.17,3.78-.88,5.94-2.7,2.11-1.8,4.52-3.39,7.37-1.67,2.88,1.74,3.65,5.79,1.29,9.71-1.32,2.19-3.27,3.8-4.58,4.12-1.06.26-2.55-.38-3.52-.97-.69-.42-1.27-.94-.84-1.66Z"/><path class="b" d="M70.48,65.18c.18,1.33.83,2.53,1.69,3.87l7.45,11.59c.13.19.12.32-.03.53l-1.31,1.72c-.13.17-.26.22-.45.16l-14.55-4.89c-.11-.04-.16-.03-.18,0-.04.06-.04.11.03.21l8.22,13.05c.14.24.13.37-.03.58l-1.29,1.69c-.2.26-.35.33-.6.24l-13.29-5.04c-1.43-.54-2.76-.91-3.6-.77-.92.12-1.55.94-2.13.49-.47-.36-.26-.8.16-1.35l3.64-4.77c.38-.49.77-.65,1.12-.39.73.56-.56,1.69.84,2.76.44.33,1.11.66,2.21,1.09l9.16,3.5c.11.04.19.05.23,0s0-.13-.06-.23l-8.45-13.36c-.1-.17-.09-.3.04-.48l1.2-1.57c.16-.2.26-.22.45-.16l14.85,4.98c.11.04.22.08.26.02.04-.06-.02-.15-.09-.25-.56-.89-2.43-3.7-3.86-5.8-1.4-2.03-2.29-3.27-3.11-3.89-1.66-1.27-2.5.44-3.31-.18-.38-.29-.23-.78.17-1.3l3.13-4.1c.47-.61.84-.74,1.19-.47.55.42.05,1.14.26,2.55Z"/><path class="b" d="M75.72,55.45c-.69.48-3.16-.01-3.61-.67-.48-.69-.04-3.17.65-3.64.69-.48,3.16.01,3.63.71.46.66.02,3.14-.67,3.61ZM88.66,70.32c1.27.68,2.22-.06,2.66.58.29.42,0,.84-.45,1.15l-5.04,3.46c-.45.31-.92.41-1.21-.02-.43-.63.6-1.39.42-2.69-.11-.81-.73-1.85-1.75-3.33l-3.68-5.37c-.89-1.3-1.37-1.99-2-2.27-.39-.18-.87-.11-1.43.05-.53.14-.93.19-1.14-.11-.21-.3-.25-.63.37-1.27.95-1.01,1.63-1.83,2.27-2.84.15-.24.29-.42.47-.54.36-.25.8-.19,1.17.35l6.87,10.02c1.03,1.51,1.76,2.43,2.47,2.83Z"/><path class="b" d="M102.08,62.14c.23.5.08,1.49-.34,2.41-.53,1.21-1.57,2.46-3.13,3.17-1.63.75-3.13.64-4.44-.09-1.08-.59-1.97-1.83-2.75-3.53-1.35-2.93-2.49-6.03-4.01-9.32-.11-.23-.25-.29-.49-.18l-2.09.96c-.23.11-.43.04-.55-.23l-.49-1.06c-.09-.2-.05-.38.15-.55,1.28-1.07,1.8-1.87,1.89-2.72.09-.85-.19-1.81-.46-3.01-.06-.3-.02-.48.25-.6l1.36-.63c.27-.12.46-.05.57.18l1.59,3.46c.28.6.48.7,1.08.43.5-.23.93-.43,1.67-.85.67-.39,1.55-.92,2.25-1.24.73-.34,1.14-.32,1.34.11.08.17.12.43.19.68.23.86-.09,1.29-.96,1.69-.6.28-1.38.51-2.19.85-.68.27-1.21.52-1.81.79-.27.12-.34.32-.22.58.2.43,1.78,4.14,2.24,5.13.57,1.23,1.07,2.33,1.91,3.8,1.44,2.52,2.88,2.75,4.17,2.15,1.73-.8,1.76-2.38,2.4-2.67.33-.15.71-.04.86.29Z"/><path class="b" d="M121.43,55.21c.31,1.88.65,3.23,1.2,3.85.77.84,1.95.79,2.06,1.44.08.51-.36.76-.9.85l-6.07,1.01c-.54.09-1.04-.01-1.13-.52-.12-.72,1.1-.96,1.49-2.18.25-.75.14-2.06-.16-3.87l-.94-5.63c-.53-3.18-2.41-4.24-4.54-3.88-1.08.18-2.17.77-2.89,1.78-1.14,1.6-1.14,3.6-.22,9.16.31,1.84.64,3.16,1.15,3.78.79.94,1.96.86,2.07,1.51.08.51-.32.76-.86.85l-5.99,1c-.54.09-1-.02-1.09-.52-.13-.76,1.17-1.01,1.52-2.26.2-.78.11-2.02-.19-3.79l-2.47-14.8c-.19-1.16-.34-1.8-.74-2.21-.72-.77-2.21-.34-2.34-1.13-.07-.4.07-.68.87-1,1.29-.51,2.31-1.05,3.18-1.64.23-.15.44-.26.66-.29.47-.08.85.19.96.88l1.65,9.89c.02.11.07.17.14.16.07-.01.1-.09.15-.21.84-1.85,2.62-3.66,5.33-4.12,2.06-.34,3.9.24,5.1,1.45.97.95,1.62,2.18,2.05,4.71l.96,5.74Z"/><path class="b" d="M153.5,57.51c-1.47,5.29-6.4,8.67-11.65,7.21-5.36-1.49-7.96-6.2-6.36-11.95,1.48-5.33,6.44-8.69,11.8-7.2,5.61,1.56,7.69,6.62,6.21,11.95ZM146.31,47.19c-3.1-.86-5.77,1.36-6.86,5.27-1.35,4.87-.19,9.56,3.27,10.52,3.49.97,5.95-1.99,6.91-5.45,1.13-4.06.63-9.25-3.32-10.34Z"/><path class="b" d="M169.65,71.25c-1.04,1.59-1.71,2.82-1.72,3.64,0,1.14.9,1.9.54,2.45-.28.43-.78.32-1.24.02l-5.15-3.36c-.46-.3-.76-.71-.48-1.14.4-.61,1.46.04,2.57-.59.69-.38,1.5-1.43,2.5-2.96l3.12-4.78c1.74-2.67,1.09-4.75-.72-5.93-.92-.6-2.12-.9-3.34-.65-1.93.4-3.28,1.88-6.36,6.6-1.02,1.56-1.67,2.76-1.71,3.56-.06,1.23.86,1.96.5,2.51-.28.43-.75.34-1.21.04l-5.09-3.32c-.46-.3-.73-.69-.45-1.12.42-.64,1.54.05,2.64-.63.68-.43,1.45-1.41,2.43-2.92l3.9-5.98c.64-.98.97-1.55.95-2.13-.01-1.06-1.4-1.74-.96-2.42.22-.34.51-.45,1.32-.14,1.29.5,2.41.79,3.45.94.27.05.5.11.68.23.4.26.49.72.11,1.3l-1.18,1.81c-.06.09-.07.17,0,.21s.13,0,.25-.05c1.87-.79,4.41-.93,6.71.57,1.75,1.14,2.69,2.85,2.77,4.52.07,1.36-.28,2.7-1.68,4.85l-3.18,4.87Z"/><path class="b" d="M174.97,82.3c-.48,1.36.4,2.19-.16,2.71-.37.35-.83.13-1.21-.27l-4.18-4.46c-.38-.4-.54-.85-.17-1.2.56-.53,1.46.38,2.72,0,.78-.23,1.72-1.01,3.02-2.23l10.46-9.82c1.15-1.08,1.76-1.65,1.94-2.32.12-.41-.02-.88-.27-1.41-.22-.5-.33-.89-.07-1.14.27-.25.58-.34,1.32.17,1.14.79,2.06,1.33,3.15,1.81.26.11.46.22.61.38.3.32.31.76-.17,1.21l-14.57,13.67c-1.33,1.25-2.14,2.11-2.42,2.87Z"/><path class="b" d="M200.08,91.88c-.69.42-1.21-.51-2.64-.76-1.1-.19-2.5-.03-3.96.16-2.29.31-9.82,1.51-13.08,1.98-3.07.44-6.25.69-8.74-.68-.96-.53-1.67-1.22-2.11-1.94-.83-1.38-.74-2.93.89-3.91.78-.47,1.73-.61,2.18.14.55.91-.64,1.92.27,3.43.89,1.47,3.1,1.38,4.7,1.27.16-.01.28-.04.37-.09.09-.06.17-.14.24-.23l8.99-11.69c1.09-1.38,1.89-2.46,2.02-3.39.09-.78-.33-1.47.27-1.83.38-.23.77-.08,1.18.61l3.08,5.11c.3.5.27.95-.07,1.16-.75.45-1.48-1.12-2.74-.36-.41.25-.96.75-1.64,1.67l-6.05,8.04c-.12.16-.15.18-.11.24.04.06.09.08.28.04l6.99-1.17c2.4-.42,3.77-.69,4.59-1.18,1.69-1.02.46-2.37,1.3-2.88.41-.25.82.02,1.16.58l2.62,4.36c.38.63.43,1.07.02,1.31Z"/><path class="b" d="M124.37,97.41c8.69,0,15.33,5.26,15.33,12.9,0,3.42-1.38,6.78-4.54,9.74-5.46,5.07-14.15,7.57-18.82,12.96-1.45,1.71-2.3,3.82-2.3,4.94,0,.79.39,1.18,1.32,1.18h13.23c3.95,0,5.99-.07,7.17-.46,1.84-.66,1.97-2.83,3.42-2.83.79,0,1.12.53,1.12,1.38s-.2,1.97-.4,3.42c-.46,3.22-.13,4.8-3.95,4.8-3.03,0-6.05-.26-9.81-.26h-13.49c-2.37,0-3.09-.79-3.09-3.75,0-2.57.79-7.96,6.65-13.23,4.54-4.15,8.82-6.58,12.44-10.13,2.76-2.63,4.08-5.59,4.08-8.49,0-4.47-3.03-8.75-8.23-8.75-4.54,0-6.91,2.96-8.49,5.66-1.25,2.17-1.84,4.15-3.36,4.15s-1.78-1.91-1.78-3.75c0-1.97.4-4.54,1.91-5.86,1.78-1.58,5.99-3.62,11.58-3.62Z"/><path class="b" d="M33.53,161.7c-.91,0-1.78-.56-2.12-1.46-4.26-11.28-6.42-23.16-6.42-35.32s2.16-24.04,6.42-35.32c3.53-9.36,8.46-18.13,14.63-26.06,6.11-7.85,13.34-14.74,21.47-20.46,16.89-11.89,36.77-18.17,57.5-18.17s40.61,6.28,57.49,18.17c8.13,5.72,15.36,12.61,21.47,20.46,6.17,7.93,11.09,16.7,14.63,26.06,4.26,11.28,6.42,23.16,6.42,35.31s-2.16,24.04-6.42,35.32c-.44,1.17-1.75,1.76-2.92,1.32-1.17-.44-1.76-1.75-1.32-2.92,4.07-10.76,6.13-22.11,6.13-33.72s-2.06-22.95-6.12-33.72c-6.78-17.96-18.7-33.32-34.47-44.42-16.12-11.35-35.1-17.34-54.89-17.34s-38.77,6-54.89,17.34c-15.77,11.1-27.69,26.46-34.47,44.42-4.06,10.76-6.12,22.11-6.12,33.72s2.06,22.95,6.13,33.72c.44,1.17-.15,2.48-1.32,2.92-.26.1-.53.15-.8.15Z"/></svg>