<?xml version="1.0" encoding="UTF-8"?><svg id="a" xmlns="http://www.w3.org/2000/svg" viewBox="0 0 1885.84 446.81"><defs><style>.b{fill:#e7e4ca;}</style></defs><path class="b" d="M361.14,357.55c0,36.01-10.2,56.42-36.61,69.02-23.41,11.41-61.22,18-96.03,18-147.04,0-219.07-106.23-219.07-219.67,0-73.22,31.82-135.64,85.22-177.06C129.47,20.84,175.68,2.23,227.3,2.23c37.2,0,76.22,9.01,96.63,18.6,26.42,12,30.02,25.21,30.02,65.42,0,26.41-5.41,29.41-12.61,29.41-16.2,0-18-30.61-41.41-54.62-23.4-24.01-49.81-34.21-83.43-34.21-85.82,0-156.04,79.23-156.04,193.86s73.22,199.26,160.24,199.26c49.83,0,83.43-27,105.64-64.21,9.61-16.2,11.4-25.81,21.01-25.81,11.4,0,13.8,7.21,13.8,27.61"/><path class="b" d="M792.36,428.97c0,5.4-4.8,9.01-15.6,9.01h-85.22c-9.61,0-13.21-4.21-13.21-9.01,0-5.41,4.21-7.81,9.01-10.21,8.41-4.2,15.61-9,15.61-19.8,0-7.81-3.61-21.01-14.41-48.02l-21.6-54.62c-1.2-3.6-3.6-5.4-9.61-5.4h-166.85c-4.21,0-6.01,1.8-7.21,4.8-18.6,43.21-31.21,74.42-31.21,94.23,0,14.4,4.8,22.21,19.21,28.81,5.4,2.4,7.8,4.8,7.8,9.61,0,6.6-5.4,9.61-15,9.61h-77.42c-11.41,0-16.21-2.41-16.21-8.41,0-7.21,5.4-9.61,12-13.8,10.81-7.21,17.41-13.2,24.62-24.01,7.8-11.41,15.01-24.61,21.61-39.6,14.99-33.62,148.85-334.91,151.85-342.72,1.2-3,3.6-4.8,6.6-4.8h12.61c4.2,0,6,1.2,7.2,4.8,2.4,7.21,124.85,328.3,130.84,342.72,12.6,29.4,19.8,45.01,29.42,55.81,6,6.01,13.2,9.01,16.79,10.81,4.81,2.4,8.4,4.8,8.4,10.21M648.91,266.32c3.61,0,4.81-1.8,4.81-3.6,0-.6,0-1.2-1.2-4.2l-70.22-181.86c-1.2-3-1.2-3.6-2.4-3.6s-1.8.6-3,3.6l-78.03,182.46c-.61,1.2-1.21,2.4-1.21,3.6,0,2.4,1.81,3.6,4.81,3.6h146.44Z"/><path class="b" d="M1163.21,428.37c0,6.01-5.4,9.61-12.6,9.61h-34.21c-16.81,0-22.81-8.41-30.62-22.21-11.4-18.6-27.61-67.22-42.61-103.84-18.61-43.81-38.41-72.62-77.42-79.83-9.61-1.8-25.22-3-39.01-3-12.6,0-24.01.6-27.61,1.2-5.41.6-7.21,3.01-7.21,7.21v102.04c0,41.4,4.2,55.22,9.01,63.61,4.8,7.81,13.8,12,18,13.8,6.61,3.6,9.01,7.21,9.01,11.41,0,7.21-6.6,9.61-14.4,9.61h-88.83c-7.8,0-13.8-2.4-13.8-9.61,0-4.2,2.41-7.81,9.01-11.41,4.2-1.8,13.2-6,17.41-13.8,5.4-8.4,9-22.21,9-63.61V99.47c0-46.81,0-56.42-16.21-66.02-6.6-3.6-16.19-5.4-16.19-13.8,0-6.6,5.4-10.2,14.39-10.2h63.62c25.82,0,51.02-.6,74.43-.6,39.61,0,85.22,3.6,114.03,29.4,21.6,19.81,30.02,45.62,30.02,70.23,0,61.21-45.63,97.23-97.84,105.63-4.2.6-4.8,1.8-4.8,3.61,0,1.2.6,2.4,4.8,3,39.01,6.6,55.82,28.81,82.83,93.63,31.21,75.62,40.21,94.82,56.42,102.03,4.81,3,11.4,5.4,11.4,12M1059.38,115.07c0-78.03-61.82-81.03-114.03-81.03h-39.61c-9.61,0-13.8,3.6-13.8,10.81v152.45c0,4.21,3,8.41,10.21,8.41h40.81c59.42,0,116.43-22.21,116.43-90.63"/><path class="b" d="M1355.22,444.57c-73.23,0-129.64-26.41-166.25-70.22-30.62-37.21-46.81-83.43-46.81-146.45,0-118.83,88.22-225.67,213.06-225.67,68.42,0,122.44,24.01,158.44,64.22,36.61,40.21,53.43,92.42,53.43,154.85,0,121.84-89.43,223.27-211.87,223.27M1193.17,212.3c0,111.03,63.62,207.66,163.85,207.66s159.65-83.43,159.65-187.26-62.42-207.06-164.46-207.06c-87.62,0-159.04,72.02-159.04,186.65"/><path class="b" d="M1692.14,437.97h-117.04c-9.6,0-15.59-2.4-15.59-10.21,0-5.41,4.2-7.21,9.6-10.81,6.6-4.2,12.6-9.61,15.6-15,5.41-9,7.81-19.2,7.81-61.22V99.47c0-45.61,0-56.42-14.41-64.82-9-4.8-17.99-6.6-17.99-15,0-6.6,5.4-10.21,14.39-10.21h117.04c53.42,0,99.64,0,135.04,27.61,23.4,18.01,33.02,43.21,33.02,67.22,0,60.02-49.83,92.43-91.84,99.04-3,.6-4.8,1.2-4.8,3.6,0,1.8,1.8,3,4.2,3,61.82,5.4,109.24,44.41,109.24,105.04,0,51.61-34.22,123.04-184.26,123.04M1649.53,197.89h37.21c66.02,0,122.43-19.81,122.43-87.62,0-72.63-68.41-76.83-118.23-76.83-7.8,0-33.02.6-40.21.6-9,0-12,3.6-12,12.6v141.64c0,6.61,4.21,9.61,10.81,9.61M1694.54,222.5c-18,0-45.01.6-48.01.6-5.41,0-7.81,3.6-7.81,7.8v108.63c0,51.02,1.2,58.82,6.01,65.42,5.4,7.21,14.99,7.81,34.21,7.81h17.4c51.63,0,129.05-11.41,129.05-98.43,0-68.42-49.82-91.83-130.84-91.83"/></svg>