<?xml version="1.0" encoding="UTF-8"?><svg id="a" xmlns="http://www.w3.org/2000/svg" viewBox="0 0 250 250"><defs><style>.b{fill:#e7e4ca;}</style></defs><path class="b" d="M217.77,133.98c-1.16-.55-3.01-1.26-5.33-1.57.18-2.08.3-4.17.33-6.27.02-1.36-.51-2.68-1.47-3.66-.96-.98-2.27-1.53-3.64-1.53H74.77c-1.68-12.15-.62-24.46,3.21-36.04,6-18.16,18.51-32.83,34.33-40.25,2.27-1.06,3.42-3.62,2.73-6.02-.69-2.4-3.04-3.95-5.52-3.64-12.12,1.49-21.75,5.19-27.7,8.02-22.09,10.51-38.88,28.9-47.29,51.77-8.43,22.93-7.44,47.72,2.8,69.79,10.22,22.04,28.41,38.76,51.23,47.06,10.14,3.69,20.66,5.53,31.16,5.53,13.25,0,26.46-2.92,38.85-8.74,2.6-1.22,5.13-2.5,7.71-4,.37-.12.73-.29,1.07-.5,15.09-9.34,27.4-22.52,35.04-37.39.06.03.11.06.16.08,2.44,1.15,5.05,1.73,7.66,1.73,2.07,0,4.15-.37,6.16-1.1,4.51-1.64,8.11-4.95,10.13-9.3,4.15-8.95.23-19.7-8.74-23.97ZM92.05,202.07c-20.25-7.37-36.41-22.2-45.48-41.77-9.08-19.6-9.96-41.61-2.47-61.99,7.3-19.88,21.73-35.95,40.72-45.41-7.23,8.11-12.91,17.93-16.51,28.82-4.79,14.5-5.73,29.99-2.9,45.1,0,.03,0,.05.01.07.02.1.04.19.06.29,1.36,7.13,3.57,14.18,6.61,21,9.77,21.93,27.28,38.52,49.29,46.73,10.11,3.77,20.68,5.48,30.97,5.16-19.24,8.45-40.57,9.18-60.3,2ZM194.88,158.7l-.05.11c-4.27,9.36-10.65,18.07-18.55,25.5-15.37,7.11-34.07,7.51-51.36,1.06-19.43-7.24-34.9-21.91-43.54-41.32-1.88-4.22-3.4-8.54-4.56-12.91h125.49c-.79,9.44-3.28,18.67-7.44,27.55ZM217.27,153.67c-.87,1.88-2.42,3.31-4.37,4.02-1.97.71-4.1.62-6.01-.28-.1-.05-.2-.1-.31-.15,1.89-4.84,3.35-9.76,4.38-14.76.03,0,.06,0,.08.01,1.09.14,1.95.48,2.36.68,3.95,1.87,5.68,6.58,3.88,10.48Z"/><path class="b" d="M135.76,113.97c-2.81,0-5.09-2.28-5.09-5.09,0-2.47-.67-3.44-1.88-5.21-1.55-2.26-3.67-5.35-3.67-10.97s2.12-8.71,3.67-10.97c1.21-1.77,1.88-2.74,1.88-5.21s-.67-3.44-1.88-5.21c-1.55-2.26-3.67-5.35-3.67-10.97,0-2.81,2.28-5.09,5.09-5.09s5.09,2.28,5.09,5.09c0,2.47.67,3.44,1.88,5.21,1.55,2.26,3.67,5.35,3.67,10.97s-2.12,8.71-3.67,10.97c-1.21,1.77-1.88,2.74-1.88,5.21s.67,3.44,1.88,5.21c1.55,2.26,3.67,5.35,3.67,10.97,0,2.81-2.28,5.09-5.09,5.09Z"/><path class="b" d="M163.83,113.97c-2.81,0-5.09-2.28-5.09-5.09,0-2.47-.67-3.44-1.88-5.21-1.55-2.26-3.67-5.35-3.67-10.97s2.12-8.71,3.67-10.97c1.21-1.77,1.88-2.74,1.88-5.21s-.67-3.44-1.88-5.21c-1.55-2.26-3.67-5.35-3.67-10.97,0-2.81,2.28-5.09,5.09-5.09s5.09,2.28,5.09,5.09c0,2.47.67,3.44,1.88,5.21,1.55,2.26,3.67,5.35,3.67,10.97s-2.12,8.71-3.67,10.97c-1.21,1.77-1.88,2.74-1.88,5.21s.67,3.44,1.88,5.21c1.55,2.26,3.67,5.35,3.67,10.97,0,2.81-2.28,5.09-5.09,5.09Z"/></svg>