<?xml version="1.0" encoding="UTF-8"?><svg id="a" xmlns="http://www.w3.org/2000/svg" viewBox="0 0 250 250"><defs><style>.b{fill:none;}.c{fill:#e7e4ca;}</style></defs><circle class="b" cx="125" cy="125" r="100"/><path class="c" d="M162.39,101.54l-13.2-13.2c-.79-.8-1.85-1.23-2.98-1.23s-2.18.44-2.98,1.23l-2.13,2.13c-1.48,1.48-1.63,3.8-.43,5.45l-3.57,3.57c-3.3-1.75-6.87-2.96-10.63-3.56-7.41-1.2-15.13.06-21.73,3.56-3.07,1.63-5.88,3.71-8.34,6.2-2.27,2.28-4.19,4.85-5.72,7.61-.1.16-.18.33-.28.53-3.39,6.38-4.68,13.56-3.72,20.76.97,7.33,4.2,14.03,9.34,19.37.2.21.41.42.62.63.18.18.39.38.6.58,6.35,5.98,14.65,9.32,23.39,9.39.1,0,.19,0,.29,0,8.62,0,16.87-3.18,23.23-8.98.42-.38.85-.79,1.32-1.27.14-.14.28-.29.42-.43,1.68-1.76,3.17-3.68,4.41-5.69.09-.15.19-.31.28-.46v-.02s.02-.02.02-.02c.25-.43.51-.88.78-1.38,0,0,0-.01.01-.02.07-.14.15-.29.24-.44,0-.02.02-.04.03-.06l.04-.07c.03-.06.06-.12.09-.18,3.6-7.15,4.59-15.4,2.8-23.24-.7-3.06-1.8-5.99-3.29-8.72l3.51-3.51c.71.52,1.57.8,2.47.8,1.12,0,2.18-.44,2.98-1.23l2.13-2.13c1.64-1.64,1.64-4.31,0-5.95ZM141.62,152.78c-5.73,5.22-13.17,8.05-20.95,8-7.79-.06-15.19-3.04-20.84-8.37-.01-.01-.02-.02-.03-.03-.15-.14-.32-.3-.49-.47-.19-.19-.37-.38-.56-.57-4.57-4.75-7.45-10.72-8.31-17.25-.85-6.43.3-12.82,3.32-18.51,0-.02.02-.03.02-.05.07-.14.13-.25.18-.34,0-.01.02-.03.02-.04,1.36-2.47,3.08-4.76,5.11-6.8.09-.09.17-.17.26-.26-1.68,4-2.51,8.46-2.36,13.04.29,8.55,3.85,16.77,10.04,23.12,6.35,6.52,14.7,10.13,23.53,10.17h.12c4.07,0,8.04-.8,11.65-2.3-.24.24-.47.45-.7.66ZM148.55,143.36c-.06.09-.12.17-.18.26-.74,1-1.73,1.78-2.76,2.48-8.01,5.44-19,5.85-27.68,1.54-7.8-3.87-13.57-11.26-16.05-19.54-2.27-7.62-1.12-16.16,3.24-22.85.68-1.04,1.45-2.05,2.45-2.79.83-.62,1.8-1.02,2.77-1.38,10.96-3.97,24.09-1.05,32.33,7.18,8.24,8.24,11.17,21.37,7.21,32.33-.35.97-.75,1.93-1.33,2.77ZM149.26,110.26c-1.18-1.7-2.52-3.29-4.01-4.77-1.5-1.49-3.11-2.82-4.83-4l2.88-2.88,8.8,8.8-2.84,2.84ZM160.44,105.54l-2.13,2.13c-.27.27-.64.43-1.03.43-.15,0-.3-.02-.45-.07-.22-.07-.41-.19-.58-.36l-11-11-1.33-1.33-.87-.87c-.17-.17-.29-.37-.35-.58-.16-.5-.05-1.07.35-1.47l2.13-2.13c.27-.27.64-.42,1.03-.42.29,0,.57.09.81.25h0c.08.05.15.11.22.18l13.2,13.2c.07.07.12.14.17.21h0c.38.57.32,1.34-.17,1.84Z"/><path class="c" d="M63.41,92.07c1.77.69,3.11,1.1,3.91.94,1.11-.23,1.68-1.27,2.29-1.03.48.19.47.7.27,1.21l-2.24,5.72c-.2.51-.54.89-1.02.7-.68-.27-.26-1.44-1.1-2.4-.51-.59-1.7-1.18-3.4-1.85l-5.32-2.08c-2.96-1.16-4.87-.1-5.66,1.91-.4,1.02-.45,2.26.04,3.4.79,1.8,2.51,2.83,7.75,4.89,1.74.68,3.04,1.07,3.83.95,1.22-.19,1.74-1.24,2.36-1,.48.19.49.66.29,1.17l-2.22,5.66c-.2.51-.53.85-1.01.67-.72-.28-.27-1.52-1.16-2.46-.56-.57-1.68-1.13-3.35-1.78l-6.64-2.61c-1.09-.43-1.72-.63-2.28-.5-1.03.22-1.42,1.72-2.17,1.43-.37-.15-.55-.41-.41-1.26.22-1.37.28-2.52.22-3.57,0-.28,0-.51.08-.71.17-.44.6-.63,1.25-.38l2.01.79c.1.04.18.03.21-.04.03-.07-.03-.13-.1-.24-1.15-1.67-1.8-4.13-.8-6.68.76-1.94,2.24-3.21,3.86-3.64,1.32-.35,2.7-.28,5.09.66l5.42,2.12Z"/><path class="c" d="M74.48,72.12c4.26,3.46,5.39,9.33,1.96,13.56-3.51,4.32-8.87,4.82-13.5,1.07-4.29-3.48-5.4-9.38-1.89-13.7,3.67-4.52,9.14-4.41,13.43-.93ZM62.14,74.59c-2.03,2.5-1.06,5.83,2.1,8.39,3.92,3.18,8.69,3.99,10.95,1.2,2.28-2.81.55-6.25-2.24-8.51-3.27-2.65-8.22-4.27-10.81-1.09Z"/><path class="c" d="M102.18,63.44c.29-.15.65-.09.82.23.32.62-.06,2.34-1.49,3.08-1.07.56-2.61.53-3.8-1.29-.03-.06-.08-.16-.15-.13-.06.03-.05.07-.06.2-.26,2.36-1.84,4.25-3.85,5.3-3.15,1.64-6.08.68-7.24-1.56-.67-1.3-.73-3,.18-4.59,1.1-2.01,2.93-3.42,4.28-5.19,1-1.26,1.94-2.94,1.03-4.7-.81-1.56-2.45-2.11-4.21-1.2-1.95,1.01-2.3,2.8-2.52,4.36-.18,1.25.03,1.88-.69,2.25-.78.4-1.3-.27-1.74-1.12-.44-.84-.82-1.97-.68-2.66.29-1.59,2.68-3.41,4.53-4.37,4.16-2.16,7.52-.93,9.19,2.28,1.31,2.53,2.77,5.57,4.12,8.17.59,1.14,1.25,1.45,1.9,1.12l.39-.2ZM93.88,58.64c-.03-.06-.1-.11-.16-.08-.06.03-.08.08-.16.25-.68,1.47-2.54,3.13-3.56,4.98-.76,1.39-.7,2.63-.23,3.54.67,1.3,2.16,2.01,3.88,1.12,1.27-.66,2.36-2.13,2.31-4.13-.06-1.7-.77-3.15-1.8-5.13l-.29-.55Z"/><path class="c" d="M113.31,45.55c.21.85.11,1.71-.81,1.93-.85.21-1.51-.46-2.57-.21-.68.16-1.35.66-1.73,1.74-.54,1.49-.74,3.31.54,8.61.42,1.74.78,2.9,1.31,3.52.95,1.13,2.09.7,2.28,1.48.12.5-.26.78-.83.92l-5.87,1.42c-.57.14-1.04.06-1.16-.43-.18-.75,1.11-1.02,1.37-2.44.12-.74-.05-1.91-.47-3.65l-1.54-6.37c-.37-1.53-.72-2.35-1.15-2.73-.86-.77-2.22-.29-2.41-1.07-.09-.39.06-.69.77-1.02,1.11-.53,1.76-.95,2.68-1.67.29-.22.55-.36.8-.42.53-.13.9.16,1.06.8l.68,2.81c.02.07.03.14.11.13s.08-.13.1-.21c.38-1.71,1.75-4.42,4.03-4.97,1.39-.34,2.47.42,2.82,1.84Z"/><path class="c" d="M130.54,58.59c.03.55-.48,1.42-1.22,2.11-.94.92-2.37,1.69-4.09,1.77-1.79.09-3.14-.58-4.08-1.75-.78-.95-1.14-2.44-1.23-4.3-.15-3.22-.06-6.52-.23-10.14-.01-.26-.13-.36-.38-.35l-2.3.11c-.26.01-.41-.13-.42-.42l-.06-1.17c-.01-.22.09-.37.34-.46,1.59-.52,2.37-1.07,2.77-1.82.4-.75.5-1.75.7-2.96.06-.3.16-.45.45-.46l1.5-.07c.29-.01.45.13.46.38l.18,3.8c.03.66.19.83.84.8.55-.03,1.02-.05,1.86-.16.76-.11,1.78-.27,2.55-.31.8-.04,1.18.13,1.2.6,0,.18-.05.44-.08.7-.1.88-.57,1.16-1.52,1.21-.66.03-1.47-.04-2.35-.03-.73,0-1.32.03-1.98.06-.29.01-.43.17-.42.46.02.48.11,4.5.16,5.6.06,1.35.12,2.56.35,4.23.39,2.88,1.64,3.62,3.06,3.55,1.9-.09,2.53-1.55,3.22-1.58.37-.02.67.22.69.59Z"/><path class="c" d="M138.23,60.73c.44,1.37,1.64,1.5,1.52,2.26-.08.51-.58.61-1.12.52l-6.03-1c-.54-.09-.94-.34-.86-.85.13-.76,1.4-.58,2.17-1.64.48-.66.75-1.84,1.05-3.61l1.07-6.43c.26-1.55.4-2.38.13-3.02-.16-.4-.55-.69-1.07-.96-.48-.26-.81-.51-.75-.87.06-.36.25-.63,1.15-.66,1.38-.07,2.44-.19,3.6-.48.27-.07.5-.1.72-.07.43.07.71.41.6,1.06l-1.99,11.99c-.3,1.81-.42,2.97-.18,3.75ZM139.2,41.04c-.83-.14-2.27-2.2-2.14-2.99.14-.83,2.17-2.31,3-2.17.83.14,2.27,2.2,2.13,3.03-.13.79-2.16,2.28-2.99,2.14Z"/><path class="c" d="M164.27,47.12c-.3.71-.76,1.31-1.5.99-.84-.36-.74-1.91-1.73-3.12-.34-.42-.8-.82-1.44-1.09-.91-.39-1.79-.37-2.6-.07-1.47.57-2.66,2.13-3.65,4.45-.09.2-.03.35.24.46.54.23,1.04.44,1.73.7.76.28,1.52.45,2.06.68.44.19.85.44.63.95-.09.2-.25.41-.36.56-.44.65-.9.89-1.67.56-.57-.24-1.1-.59-1.76-.91-.52-.26-.93-.44-1.37-.62-.34-.14-.45-.07-.58.23l-3.74,8.79c-.69,1.62-1.15,2.89-1.05,3.69.17,1.38,1.23,1.79.94,2.47-.2.47-.71.45-1.22.24l-5.59-2.38c-.51-.22-.87-.57-.67-1.04.29-.67,1.41-.23,2.37-.98.61-.5,1.25-1.62,1.99-3.37s2.79-6.65,3.75-8.9c.09-.2.03-.35-.17-.43-.2-.09-2.05-.87-2.05-.87-.27-.11-.36-.27-.25-.54l.49-1.14c.1-.24.29-.31.56-.2,0,0,1.65.7,2.09.89.24.1.38.04.47-.16,2.3-4.47,7.29-6.2,12.01-4.2,1.11.47,1.92,1.1,2.26,1.8.45.91.12,1.88-.19,2.59ZM158.33,67.9c.1,1.44,1.24,1.84.94,2.55-.2.47-.71.45-1.22.24l-5.62-2.39c-.51-.22-.84-.56-.64-1.03.3-.71,1.49-.24,2.49-1.09.62-.53,1.16-1.61,1.87-3.26l2.55-5.99c.62-1.45.95-2.22.84-2.9-.06-.42-.38-.8-.81-1.18-.4-.37-.66-.68-.52-1.02.14-.34.39-.55,1.27-.37,1.36.26,2.42.39,3.61.39.28,0,.51.02.71.1.4.17.59.57.33,1.18l-4.76,11.18c-.72,1.68-1.11,2.79-1.06,3.61Z"/><path class="c" d="M165,76.98c-3.6-2.94-4.35-7.86-.87-12.11,3.59-4.39,10-6.15,14.73-2.28,1.13.93,2.54,2.56,2.65,3.92.08.77-.46,1.66-1.02,2.34-1.09,1.33-1.7,1.5-2.24,1.06-.65-.53-.24-1.33-.08-2.38.15-1.06.13-2.82-1.37-4.05-2.21-1.81-5.84-1.19-8.78,2.41-2.55,3.12-3.56,7.3-.33,9.94,2.52,2.06,5.04.95,5.69,1.49.31.26.3.67.07.96-.63.76-4.71,1.77-8.45-1.29Z"/><path class="c" d="M177.31,85.39c-.57,1.32.25,2.21-.35,2.7-.4.32-.84.07-1.19-.35l-3.87-4.73c-.35-.42-.48-.88-.09-1.21.59-.49,1.43.48,2.71.19.8-.18,1.78-.89,3.17-2.02l5.04-4.13c1.22-1,1.87-1.53,2.09-2.18.14-.4.04-.88-.17-1.42-.18-.51-.27-.91,0-1.14.28-.23.6-.3,1.3.26,1.08.86,1.96,1.47,3.02,2.02.25.13.44.25.58.42.28.34.26.78-.25,1.2l-9.4,7.7c-1.42,1.16-2.28,1.96-2.61,2.7ZM191.02,71.23c-.53-.65-.26-3.15.36-3.66.65-.53,3.15-.31,3.69.34.53.65.26,3.15-.39,3.68-.62.51-3.12.29-3.66-.36Z"/><path class="c" d="M186.58,102.24c.15.29.09.65-.23.82-.62.32-2.34-.07-3.08-1.5-.56-1.07-.53-2.61,1.29-3.8.06-.03.16-.08.13-.15-.03-.06-.07-.05-.2-.06-2.36-.26-4.25-1.84-5.29-3.85-1.63-3.15-.67-6.08,1.57-7.24,1.3-.67,3-.73,4.59.18,2.01,1.1,3.41,2.93,5.18,4.28,1.26,1,2.94,1.94,4.7,1.03,1.56-.81,2.11-2.45,1.2-4.21-1.01-1.95-2.8-2.3-4.36-2.53-1.25-.18-1.88.03-2.25-.69-.4-.78.28-1.3,1.12-1.73.85-.44,1.97-.81,2.66-.68,1.59.29,3.41,2.69,4.37,4.54,2.15,4.16.92,7.52-2.29,9.18-2.54,1.31-5.58,2.76-8.18,4.11-1.14.59-1.46,1.25-1.12,1.9l.2.39ZM191.39,93.94c.06-.03.11-.1.08-.16-.03-.06-.08-.08-.25-.16-1.47-.68-3.13-2.54-4.98-3.56-1.39-.77-2.63-.7-3.54-.23-1.3.67-2.02,2.16-1.12,3.88.66,1.27,2.13,2.36,4.13,2.32,1.7-.06,3.15-.76,5.13-1.79l.55-.29Z"/><path class="c" d="M188.89,110.05c-1.07.97-.68,2.12-1.42,2.32-.49.13-.79-.28-.94-.81l-1.59-5.9c-.14-.53-.08-1,.42-1.13.74-.2,1.11,1.03,2.39,1.29.8.16,1.99-.08,3.72-.54l13.86-3.72c1.52-.41,2.33-.63,2.8-1.13.3-.31.39-.79.43-1.37.04-.54.13-.94.48-1.04.35-.09.67-.03,1.08.77.63,1.23,1.18,2.15,1.93,3.08.17.22.3.41.36.62.11.42-.08.82-.72.99l-19.3,5.19c-1.77.47-2.88.85-3.49,1.39Z"/><path class="c" d="M39.6,168.99c-.66.75-.24,1.59-.75,1.81-.34.15-.59-.09-.75-.46l-1.75-4c-.17-.39-.18-.74.16-.89.51-.22.78.65,1.84.68.58,0,1.37-.25,2.62-.8l10.93-4.78c.34-.15.53-.26.7-.6.38-.72.33-1.71-.06-2.59-.51-1.17-2.18-2.91-5.78-1.33-.17.07-.21.18-.14.35.19.44.41.93.68,1.42.18.36.48.78.66,1.17.14.32.23.66-.14.82-.15.06-.34.09-.47.12-.65.11-.92.02-1.16-.54-.14-.32-.26-.73-.43-1.18-.17-.45-.34-.84-.49-1.18-.1-.22-.2-.26-.42-.16,0,0-5.23,2.32-6.35,2.81-1.19.52-2,.93-2.37,1.36-.62.65-.21,1.57-.72,1.8-.37.16-.62-.08-.78-.45l-1.78-4.07c-.16-.37-.18-.74.16-.89.51-.22.9.65,1.84.68.56.02,1.42-.27,2.62-.8l6.44-2.82c.17-.07.19-.17.11-.34-.06-.15-.65-1.49-.65-1.49-.09-.2-.05-.32.14-.41l.85-.37c.17-.07.29,0,.36.16,0,0,.45,1.02.71,1.63.06.15.19.18.35.14,1.05-.32,2.35-.48,3.6-.21,2.02.43,3.87,1.74,4.79,3.83.55,1.27.49,2.25.63,2.57.15.34.73.55.94,1.01.13.29.03.6-.41.79l-13.34,5.84c-1.24.54-1.98.92-2.37,1.36Z"/><path class="c" d="M48.08,182.96c.13.2.12.47-.1.61-.42.28-1.7.14-2.35-.84-.49-.73-.59-1.85.63-2.85.04-.03.11-.07.08-.12-.03-.04-.05-.03-.15-.03-1.73,0-3.22-.99-4.13-2.37-1.43-2.15-.97-4.34.56-5.36.89-.59,2.11-.77,3.33-.23,1.54.64,2.7,1.85,4.09,2.68.99.62,2.28,1.17,3.48.37,1.06-.71,1.33-1.94.53-3.14-.88-1.33-2.21-1.44-3.35-1.48-.92-.03-1.36.17-1.68-.32-.35-.53.1-.96.67-1.34.58-.38,1.36-.74,1.87-.7,1.17.08,2.68,1.67,3.52,2.93,1.89,2.84,1.27,5.36-.93,6.82-1.73,1.15-3.81,2.44-5.58,3.62-.78.52-.95,1.02-.66,1.46l.18.27ZM50.9,176.57s.07-.08.04-.13c-.03-.04-.07-.05-.19-.1-1.11-.38-2.46-1.59-3.88-2.18-1.06-.44-1.96-.3-2.58.12-.89.59-1.29,1.72-.5,2.89.58.86,1.73,1.54,3.17,1.35,1.23-.18,2.22-.8,3.57-1.7l.38-.25Z"/><path class="c" d="M67.98,187.57c-.22.2-.46.13-.79.04-1.3-.39-2.79.11-4.05.54l-9.7,3.37c-.17.05-.3-.01-.43-.15l-.94-1.02c-.14-.16-.16-.29-.05-.49l4.81-9.33c.55-1.05.95-1.88.96-2.58,0-.68-.4-1.22-.07-1.53.25-.23.53-.17.95.29l2.95,3.22c.32.35.35.66.11.87-.47.43-1.18-.62-2.02.16-.25.23-.56.65-.95,1.41l-3.53,6.89c-.06.13-.04.15-.03.17.02.02.06.02.13-.01l5.07-1.91c1.74-.66,2.82-1.14,3.39-1.66,1.08-.99,0-1.77.51-2.24.27-.25.59-.11.89.23l2.56,2.78c.38.41.48.72.22.95Z"/><path class="c" d="M74.46,200.66c-2.47,3.14-6.72,4.03-9.84,1.58-3.18-2.5-3.61-6.39-.93-9.8,2.48-3.16,6.76-4.04,9.94-1.54,3.33,2.61,3.32,6.6.83,9.76ZM72.51,191.72c-1.84-1.45-4.26-.7-6.08,1.62-2.27,2.89-2.8,6.37-.75,7.98,2.07,1.63,4.55.32,6.16-1.73,1.89-2.41,3.01-6.03.66-7.87Z"/><path class="c" d="M86.38,213.85c-.15.28-.4.36-.92.2-1.03-.27-1.8-.41-2.51-.49-.29-.03-.44-.08-.56-.14-.33-.17-.42-.46-.18-.91,0,0,.74-1.39.77-1.46.02-.05.01-.08-.03-.11-.05-.02-.1,0-.18.06-1.41.79-3.25.9-4.89.02-1.18-.62-1.99-1.6-2.24-2.88-.23-1.15.14-2.37.89-3.78l2.1-3.95c.54-1.01.82-1.55.78-2.03-.06-.79-1.12-1.13-.79-1.75.12-.24.38-.31.9-.16,1.05.29,1.68.41,2.45.49.29.03.43.05.62.15.31.16.42.46.19.89l-3.98,7.5c-.86,1.62-.78,3.29.91,4.19.68.36,1.54.51,2.4.25,1.33-.41,2.31-1.58,4.22-5.17.6-1.13.94-1.76.89-2.24-.09-.8-1.12-1.13-.82-1.7.14-.26.34-.36.92-.2,1.03.27,1.79.44,2.57.49.2.02.37.04.51.12.31.16.41.49.18.91l-4.23,7.97c-.54,1.01-.82,1.55-.79,2.05.05.69,1.12,1.13.83,1.68Z"/><path class="c" d="M102.23,207.46c-.21.6-.6,1.09-1.25.86-.6-.21-.74-.87-1.5-1.13-.48-.16-1.08-.12-1.74.39-.92.7-1.75,1.73-3.04,5.48-.42,1.23-.66,2.08-.58,2.67.14,1.06,1.01,1.25.82,1.8-.12.35-.47.37-.87.24l-4.15-1.43c-.4-.14-.66-.37-.54-.72.18-.53,1.08-.19,1.79-.96.37-.41.72-1.19,1.14-2.42l1.55-4.51c.37-1.08.48-1.72.37-2.13-.23-.81-1.24-1.05-1.05-1.6.1-.28.31-.4.87-.32.89.11,1.46.11,2.3.03.26-.02.48,0,.66.06.38.13.49.45.34.9l-.68,1.99c-.02.05-.03.1.02.12.05.02.1-.05.14-.09.9-.9,2.81-2.02,4.42-1.46.98.34,1.35,1.23,1,2.23Z"/><path class="c" d="M102.04,215.3c.6.12.73.99,1.14,1.91.49,1.08,1.23,2.26,2.85,2.58,1.59.32,2.84-.49,3.08-1.66.69-3.42-7.19-3.29-6.26-7.93.51-2.53,3.2-3.76,6.07-3.18,1.28.26,2.44.82,2.95,1.38.58.63.57,1.5.44,2.15-.12.6-.33,1.51-1.09,1.36-.63-.13-.57-.68-.95-1.6-.37-.86-.97-1.8-2.28-2.06-1.1-.22-2.42.28-2.66,1.5-.32,1.62,1.53,2.37,3.31,3.4,1.75,1,3.43,2.26,2.95,4.64-.48,2.4-3.07,3.92-6.33,3.27-1.83-.37-3.4-1.31-3.95-2.12-.44-.66-.36-1.84-.2-2.65.11-.57.33-1.1.93-.98Z"/><path class="c" d="M137.84,211.99c.02.35-.32.44-.66.67-.52.35-.84.81-1.04,1.6-.31,1.19-.44,2.47-1.04,3.81-.02.05-.05.11-.05.14,0,.05.06.1.11.15.83.65,2.13,2.05,2.2,3.51.01.27-.09.38-.38.39l-1.7.09c-.27.01-.4-.09-.47-.32-.19-.58-.56-1.06-1.01-1.5-.03-.03-.06-.05-.08-.05-.05,0-.08.03-.1.06-1.31,1.5-3.16,2.34-5.29,2.45-3.19.16-6.58-1.59-6.76-5.07-.1-1.99,1.03-3.89,3.02-4.65.08-.03.08-.08.07-.11,0,0,0-.03-.03-.08-.43-.67-.82-1.5-.87-2.57-.1-2.05,1.17-4.4,4.49-4.57,1.22-.06,2.38.2,2.92.87.31.36.43,1.07.46,1.66.06,1.12-.05,1.63-.66,1.66-.64.03-.8-.6-1.29-1.37-.38-.59-.95-1.42-2.07-1.36-1.14.06-1.89,1.03-1.83,2.33.1,1.99,2.39,3.64,4.3,4.93,1.35.92,2.71,1.89,3.65,2.59.14.1.19.15.25.15.08,0,.13-.14.15-.22.23-.68.33-1.38.3-1.99-.06-1.17-.65-1.78-1.17-2.07-.49-.3-1.08-.35-1.11-.82-.01-.29.21-.52.72-.54l4.25-.21c.4-.02.7.12.72.47ZM132.71,219.7c0-.05-.06-.08-.09-.1-2.6-1.98-5.29-3.52-7.09-5.38-.06-.05-.08-.08-.11-.07-.03,0-.05,0-.1.06-.79.76-1.16,1.79-1.11,2.88.12,2.39,2.06,4.48,4.93,4.34,1.3-.07,2.55-.61,3.49-1.59.05-.06.08-.08.07-.14Z"/><path class="c" d="M155.12,218.34c-3.22,1.02-6.52-.48-7.72-4.29-1.24-3.93.23-8.53,4.47-9.87,1.02-.32,2.57-.53,3.44-.06.5.26.83.94,1.02,1.55.38,1.19.24,1.63-.25,1.78-.58.18-.9-.38-1.48-.9-.58-.51-1.66-1.2-3.01-.78-1.98.63-3.04,3.08-2.03,6.31.88,2.79,3.03,5.07,5.92,4.16,2.26-.71,2.58-2.69,3.17-2.87.28-.09.53.08.61.34.22.69-.8,3.57-4.15,4.63Z"/><path class="c" d="M172.07,202.88c1.81,3.56.83,7.79-2.71,9.59-3.61,1.83-7.32.58-9.28-3.28-1.82-3.58-.81-7.83,2.79-9.66,3.77-1.92,7.38-.23,9.2,3.36ZM163.14,200.88c-2.09,1.06-2.43,3.56-1.09,6.2,1.66,3.27,4.59,5.22,6.92,4.04,2.35-1.19,2.21-3.99,1.03-6.32-1.39-2.73-4.2-5.27-6.86-3.92Z"/><path class="c" d="M180.1,203.41c.92.5,1.62-.04,1.93.42.21.31,0,.61-.33.84l-3.67,2.5c-.33.22-.67.29-.88-.01-.31-.46.44-1.01.31-1.95-.08-.59-.53-1.35-1.26-2.42l-5.87-8.63c-.64-.95-.99-1.45-1.45-1.65-.28-.13-.64-.08-1.04.03-.38.1-.68.14-.83-.08s-.18-.46.27-.93c.69-.73,1.19-1.33,1.66-2.06.11-.17.21-.3.34-.39.26-.18.58-.14.85.26l8.18,12.01c.75,1.1,1.27,1.77,1.79,2.06Z"/><path class="c" d="M190.03,188.59c2.64,2.99,2.75,7.34-.22,9.96-3.03,2.68-6.94,2.4-9.81-.85-2.66-3.01-2.75-7.37.28-10.05,3.17-2.8,7.09-2.07,9.75.94ZM180.89,188.89c-1.76,1.55-1.46,4.06.5,6.27,2.43,2.75,5.76,3.9,7.71,2.17,1.98-1.74,1.14-4.42-.59-6.37-2.03-2.29-5.39-4.05-7.62-2.07Z"/><path class="c" d="M205.18,179.33c.25.2.28.46.03.94-.46.96-.74,1.69-.95,2.38-.08.27-.16.42-.24.52-.23.29-.53.32-.93,0,0,0-1.23-.98-1.29-1.03-.04-.03-.08-.03-.11.01-.03.04,0,.1.02.19.51,1.53.28,3.36-.88,4.81-.83,1.04-1.94,1.66-3.24,1.67-1.17.02-2.3-.58-3.55-1.57l-3.49-2.79c-.89-.71-1.37-1.1-1.85-1.14-.79-.08-1.32.89-1.86.45-.21-.17-.24-.43.01-.91.48-.98.71-1.58.93-2.32.08-.27.12-.41.26-.58.22-.27.53-.32.91-.03l6.63,5.3c1.44,1.15,3.09,1.38,4.29-.12.48-.6.79-1.41.69-2.31-.15-1.38-1.12-2.56-4.3-5.11-1-.8-1.56-1.25-2.04-1.29-.8-.06-1.32.89-1.82.49-.23-.18-.29-.4-.03-.94.46-.96.76-1.68.96-2.44.05-.2.11-.35.21-.48.22-.27.55-.31.93,0l7.05,5.63c.89.71,1.37,1.1,1.87,1.15.69.07,1.32-.89,1.8-.5Z"/><path class="c" d="M201.86,162.58c.55.32.96.79.61,1.39-.32.55-1,.56-1.39,1.26-.25.44-.32,1.04.05,1.78.51,1.03,1.38,2.04,4.82,4.02,1.13.65,1.92,1.04,2.52,1.07,1.07.06,1.41-.75,1.92-.46.32.19.28.53.07.9l-2.18,3.81c-.21.37-.49.58-.81.4-.49-.28.01-1.1-.61-1.94-.33-.44-1.03-.93-2.16-1.58l-4.14-2.37c-.99-.57-1.6-.79-2.02-.76-.84.07-1.26,1.03-1.77.73-.25-.15-.34-.38-.15-.91.27-.85.38-1.41.46-2.25.03-.26.09-.47.18-.63.2-.35.54-.4.95-.16l1.83,1.04s.09.05.12,0-.03-.11-.06-.16c-.72-1.05-1.46-3.13-.61-4.61.52-.9,1.46-1.1,2.38-.57Z"/><path class="c" d="M209.53,164.24c.23-.57,1.1-.53,2.09-.76,1.15-.28,2.45-.79,3.07-2.32.61-1.5.05-2.88-1.06-3.33-3.23-1.31-4.57,6.45-8.96,4.67-2.39-.97-3.1-3.84-1.99-6.55.49-1.21,1.26-2.25,1.91-2.65.73-.45,1.58-.28,2.19-.03.57.23,1.42.6,1.13,1.32-.24.59-.78.43-1.75.64-.92.2-1.95.62-2.45,1.85-.42,1.04-.18,2.43.98,2.9,1.53.62,2.62-1.06,3.96-2.62,1.31-1.54,2.86-2.95,5.11-2.04,2.27.92,3.28,3.74,2.03,6.83-.7,1.73-1.92,3.1-2.82,3.48-.73.31-1.87.02-2.64-.29-.54-.22-1.02-.53-.79-1.1Z"/><path class="c" d="M220.32,148.98c-.17,0-.33-.02-.5-.06-1.22-.28-1.98-1.49-1.71-2.71,1.57-6.92,2.37-14.06,2.37-21.22s-.8-14.29-2.37-21.21c-4.71-20.76-16.48-39.61-33.13-53.07-8.31-6.72-17.6-11.96-27.61-15.56-10.36-3.73-21.25-5.62-32.36-5.62s-22,1.89-32.36,5.62c-10.01,3.61-19.3,8.84-27.61,15.56-16.66,13.46-28.42,32.31-33.13,53.07-1.57,6.92-2.37,14.06-2.37,21.21s.8,14.3,2.37,21.22c.28,1.22-.49,2.43-1.71,2.71-1.22.28-2.43-.49-2.71-1.71-1.64-7.25-2.48-14.72-2.48-22.22s.83-14.97,2.48-22.21c2.49-10.98,6.8-21.39,12.81-30.95,5.9-9.38,13.26-17.67,21.89-24.65,8.71-7.04,18.44-12.52,28.93-16.3,10.85-3.91,22.26-5.89,33.9-5.89s23.04,1.98,33.89,5.89c10.49,3.78,20.22,9.26,28.93,16.3,8.63,6.98,15.99,15.27,21.89,24.65,6.01,9.56,10.32,19.97,12.81,30.95,1.64,7.25,2.48,14.72,2.48,22.21s-.83,14.97-2.48,22.22c-.24,1.05-1.17,1.76-2.21,1.76Z"/></svg>