<?xml version="1.0" encoding="UTF-8"?><svg id="a" xmlns="http://www.w3.org/2000/svg" viewBox="0 0 250 250"><defs><style>.b{fill:#e7e4ca;}</style></defs><path class="b" d="M207.52,104.47c-.75-2.41-3.15-3.91-5.63-3.53-2.49.38-4.33,2.53-4.32,5.05.03,14.58-5.83,29.31-16.24,41.1-.39-3.71-1.35-7.35-2.91-10.81h0c4.07-9.65,4.23-20.45,0-29.82h0c4.25-10.05,4.24-21.35-.56-31-.49-1-1.3-1.8-2.3-2.3-7.32-3.63-15.58-4.51-23.53-2.87-.31-16.78-10.49-31.41-25.33-36.4-1.05-.36-2.2-.36-3.25,0-14.84,4.99-25.01,19.6-25.33,36.38-7.92-1.61-16.15-.73-23.44,2.89-1,.49-1.8,1.3-2.3,2.3-4.79,9.64-4.8,20.94-.55,30.99-4.23,9.38-4.08,20.18,0,29.82-1.47,3.25-2.41,6.67-2.84,10.16-10.56-11.78-16.53-26.49-16.57-41.15,0-2.5-1.83-4.63-4.31-5.02-2.47-.39-4.86,1.08-5.63,3.46-3.57,11.04-4.26,20.83-4.22,27.1.18,23.27,9.28,45.14,25.62,61.58,16.38,16.49,38.15,25.59,61.29,25.65h.2c23.03,0,44.68-8.96,60.96-25.25,16.42-16.43,25.44-38.32,25.38-61.66-.02-7.93-.74-15.5-4.21-26.68ZM169.65,130.52c-12.81-3.67-27.33.06-37.76,10.14-.58.56-1.14,1.13-1.68,1.72v-3.94c0-3.12.52-6.16,1.51-9.03.57-1.62,1.27-3.18,2.13-4.69.89-1.56,1.94-3.05,3.13-4.45.62-.72,1.28-1.43,1.98-2.1,7.03-6.79,16.8-9.77,25.55-8.2,1.69.3,3.35.77,4.93,1.42.05.12.09.23.14.35.77,1.99,1.28,4.06,1.52,6.2h0c.47,4.16-.04,8.47-1.46,12.58ZM170.6,156.97c-11.58,8.69-25.53,13.67-40.39,14.38v-3.09c0-3.12.52-6.16,1.51-9.03.57-1.62,1.27-3.18,2.13-4.69.89-1.56,1.94-3.05,3.13-4.45.62-.72,1.28-1.43,1.98-2.1,7.03-6.79,16.8-9.77,25.55-8.2,1.69.3,3.35.77,4.93,1.42.05.12.09.23.14.35.77,1.99,1.28,4.07,1.52,6.2.35,3.03.17,6.15-.5,9.21ZM150.66,81.25c6.25-2.08,12.96-2.06,18.79.32,2.42,5.93,2.4,12.78.2,19.13-12.81-3.67-27.33.07-37.76,10.14-.58.56-1.14,1.13-1.68,1.72v-2.51c0-.24-.02-.48-.05-.72h0c.04-.24.05-.47.05-.71,0-1.02.06-2.04.17-3.05.25-2.29.78-4.52,1.58-6.66,1.47-3.92,3.83-7.52,7-10.56,1.64-1.59,3.43-2.96,5.33-4.13,2.03-1.24,4.17-2.24,6.37-2.97ZM125.07,44.16c9.75,4.1,16.56,14.68,16.77,26.36.02,1.17-.03,2.32-.14,3.45h0c-3.51,1.81-6.82,4.18-9.8,7.05-2.69,2.6-4.96,5.49-6.77,8.61-1.8-3.12-4.07-6.01-6.76-8.61-3.02-2.91-6.36-5.29-9.92-7.11h0c-.11-1.12-.16-2.25-.14-3.4.2-11.67,7.01-22.25,16.77-26.36ZM80.79,81.57c5.8-2.36,12.46-2.39,18.68-.35,2.19.72,4.32,1.7,6.35,2.92,1.95,1.18,3.78,2.59,5.47,4.21,3.18,3.07,5.56,6.69,7.02,10.64h0c.79,2.13,1.31,4.34,1.56,6.62h0c.11.99.16,2,.16,3,0,.24.02.47.05.7h0c-.04.24-.05.48-.05.73v2.51c-.53-.59-1.09-1.16-1.67-1.71-10.44-10.08-24.96-13.81-37.77-10.15-2.19-6.35-2.22-13.19.2-19.12ZM118.36,140.67c-10.44-10.08-24.96-13.81-37.77-10.15-1.42-4.11-1.94-8.43-1.46-12.58.24-2.13.74-4.22,1.52-6.2h0c.05-.12.09-.23.14-.35,1.59-.65,3.24-1.12,4.94-1.42,8.75-1.56,18.52,1.41,25.56,8.2.7.67,1.35,1.38,1.98,2.1,1.19,1.4,2.24,2.88,3.13,4.45.85,1.5,1.56,3.08,2.12,4.7.99,2.88,1.51,5.91,1.51,9.03v3.94c-.53-.59-1.09-1.16-1.67-1.71ZM120.03,168.26v2.91c-14.96-1.2-29-6.46-40.58-15.17-.51-2.75-.62-5.53-.31-8.24.24-2.13.74-4.22,1.52-6.2h0c.05-.12.09-.23.14-.35,1.59-.65,3.24-1.12,4.94-1.42,8.75-1.56,18.52,1.41,25.56,8.2.7.67,1.35,1.37,1.97,2.09,1.2,1.4,2.25,2.89,3.14,4.45.85,1.5,1.56,3.07,2.12,4.69.99,2.88,1.51,5.92,1.51,9.03ZM179.15,185.6c-14.36,14.36-33.44,22.27-53.76,22.27h-.18c-20.42-.05-39.62-8.09-54.09-22.64-13.79-13.88-21.75-32.14-22.59-51.67,4.09,9.02,10.07,17.43,17.67,24.59,1.33,1.25,2.69,2.45,4.09,3.61,2.53,2.09,5.17,4.03,7.92,5.81,3.75,2.43,7.69,4.56,11.78,6.38,6.65,2.96,13.69,5.09,21,6.35,3.62.63,7.3,1.03,11.03,1.22.38.02.76.04,1.15.05.62.02,1.24.04,1.86.05.73.01,1.47.02,2.2.01.29,0,.59,0,.88-.01,4.34-.08,8.63-.47,12.82-1.18,5.87-.98,11.56-2.58,17-4.74,4.65-1.85,9.12-4.13,13.36-6.8,2.9-1.83,5.69-3.85,8.36-6.04,1.89-1.56,3.73-3.21,5.5-4.95,6.98-6.88,12.52-14.87,16.36-23.41-.76,19.36-8.62,37.4-22.34,51.11Z"/></svg>