<?xml version="1.0" encoding="UTF-8"?><svg id="a" xmlns="http://www.w3.org/2000/svg" viewBox="0 0 250 250"><defs><style>.b{fill:#e7e4ca;}</style></defs><path class="b" d="M180.73,186.87c-2.95,0-5.76-1.13-7.93-3.18l-1.73,1.13c-3.66,2.42-8.47,2.52-12.23.25l-11.06-6.51c-2.63-1.53-4.52-4.02-5.3-7l-2.07-8.08-.67-.66c-.88-.86-1.61-1.86-2.16-2.94-1.66.77-3.52,1.16-5.41,1.1h-.11c-3.79-.22-7.24-2.27-9.22-5.49l-5.07-8.29c-1.58-1.05-5.51-2.9-11.84-1.11l-6.05,3.95c-2.88,1.87-6.43,2.35-9.65,1.39l-3.76,4.9c-2.66,3.47-7.15,5.15-11.42,4.29l-8.41-1.66-3.97,3.9c-3.49,3.49-8.81,4.35-13.25,2.13l-6.18-3.03c-4.83-2.34-7.4-7.84-6.09-13.07l1.55-6.03-7.52-17.27c-.64-1.44-.98-2.98-.98-4.56v-18.88c0-1.17.19-2.37.57-3.56l.03-.09,2.22-6.51c1-2.91,3.06-5.26,5.8-6.61l9.76-4.78c1.05-.56,2.07-.83,2.85-1l.09-.02,11.56-2.27c3.61-4.63,14.72-18.57,22.89-25.61,4.3-3.68,10.72-3.66,15-.07l.2-.57c.88-2.66,2.69-4.89,5.12-6.27,4.66-2.66,17.32-8.24,34.26-2.65,2.04.66,3.68,2.16,4.5,4.12.87,1.99.78,4.32-.23,6.27l-3.21,6.3,4.37,3.56,5.84-21.05c.79-2.98,3.46-5.17,6.62-5.41h.14c3.12-.15,6.05,1.7,7.23,4.59l4.21,10.35c2.63.7,5.77,2.26,8.45,5.68,3.24,4.12,5.1,10.12,5.53,17.85,3.61,2.79,9.21,7.71,13.62,14.24,3.66,5.36,10.39,11.13,13.11,13.37,3.75,3.05,5.91,7.57,5.91,12.4v15.36c0,1.53-.32,3.06-.94,4.53l-8.23,18.92c-.58,1.36-1.43,2.58-2.5,3.61l-3.12,3.06v4.65c0,1.8-.43,3.59-1.24,5.18l-4.71,9.26c-1.39,2.75-3.77,4.78-6.71,5.72l-4.81,1.58c-1.16.39-2.39.58-3.65.58ZM173.2,173.89c1.38,0,2.75.51,3.84,1.5l.12.11,1.72,1.69c.51.5,1.17.78,1.85.78.3,0,.58-.04.85-.13l4.89-1.61c.65-.21,1.16-.64,1.48-1.27l4.72-9.27c.18-.35.27-.75.27-1.14v-6.06c0-1.52.61-2.96,1.69-3.99l4.11-4.04c.25-.24.42-.49.55-.78l8.22-18.89c.14-.32.22-.68.22-1.01v-15.36c0-2.14-.96-4.14-2.63-5.5-3.77-3.09-10.68-9.16-14.85-15.26-4.41-6.53-10.46-11.31-12.85-13.06-1.4-1.03-2.21-2.62-2.24-4.37-.32-10.23-3.26-16.23-8.26-16.89-1.99-.25-3.66-1.51-4.44-3.37l-3.25-8-6.06,21.82c-.54,1.75-1.85,3.09-3.61,3.67l-.12.04c-1.83.55-3.8.15-5.27-1.07l-10.45-8.54c-1.84-1.65-2.39-4.34-1.34-6.54l.05-.1,3.65-7.16c-12.69-3.59-21.9.47-25.37,2.45-.5.29-.9.77-1.08,1.34l-.02.07-1.57,4.58c-.75,2.25-2.89,3.78-5.31,3.78h-1.23c-1.52,0-2.95-.59-4.02-1.66l-2.07-2.04c-.97-.95-2.6-1.01-3.62-.14-8.41,7.25-21.01,23.48-22.42,25.3l-.23.28c-.86.94-1.96,1.57-3.19,1.8l-12.64,2.48c-.39.09-.51.14-.53.15l-.18.1-9.83,4.81c-.61.3-1.08.84-1.31,1.5l-2.19,6.45c-.09.31-.14.58-.14.84v18.88c0,.32.07.64.22.97l8.11,18.64c.4,1.09.46,2.23.18,3.3l-1.83,7.14c-.28,1.12.3,2.37,1.36,2.88l6.23,3.06c1.03.52,2.23.33,3-.44l.04-.04,5.39-5.29c1.27-1.11,2.95-1.61,4.63-1.38l.26.04,10.09,1.99c.97.19,2.02-.2,2.62-.98l5.25-6.85c1.56-2.1,4.4-2.83,6.79-1.77l.1.03.85.43c.82.41,1.84.34,2.63-.17l6.58-4.3c.62-.36,1.04-.5,1.17-.55l.11-.04c11.56-3.52,18.92,1.3,20.89,2.87l.2.16.18.18c.25.25.6.63.91,1.17l5.35,8.74c.44.71,1.22,1.18,2.08,1.25.94.02,1.78-.37,2.29-1.04l.03-.04c1.34-1.71,3.51-2.49,5.6-2.03,2.09.4,3.76,1.97,4.3,4.05l.6,2.33c.1.43.32.81.64,1.13l1.6,1.57.19.25c.54.71.9,1.44,1.07,2.19l2.26,8.84c.17.65.59,1.21,1.18,1.56l11.12,6.55c.85.51,1.98.48,2.79-.05l4.08-2.66c.92-.55,1.93-.82,2.94-.82ZM64.24,77.09s-.03,0-.05,0h.05ZM149.77,65.51l.05.04s-.03-.02-.05-.04ZM99.6,55.6s-.01.04-.02.06l.02-.06ZM103.69,54.27l.04.03s-.02-.02-.04-.03ZM137.76,50.6s0,0,0,0c0,0,0,0,0,0ZM168.04,50.49s.04,0,.06,0c-.02,0-.04,0-.06,0ZM160.39,43.68v.04s0-.02,0-.04Z"/><path class="b" d="M175.65,217.05h-.91c-1.92,0-3.76-.69-5.18-1.93l-2.98-2.64c-1.57-1.39-2.48-3.38-2.48-5.44v-1.3l-2.95-3.91c-.96-1.29-1.46-2.79-1.46-4.34,0-2.37,1.14-4.53,3.12-5.94,2.1-1.48,4.79-1.85,7.21-1l5.71,2.05.25-.11v-.04l1.86-.82c2.77-1.21,6.04-.74,8.33,1.21l.04.04c2.13,1.88,2.98,4.72,2.22,7.42l-.73,2.59c-.35,1.31-1.11,2.53-2.18,3.49l-2.2,1.93v1.36c0,4.07-3.44,7.38-7.67,7.38ZM167.38,196.33c-.34,0-.69.1-.97.31-.18.12-.48.41-.48.85,0,.21.07.41.21.61l4.2,5.56v3.39c0,.27.14.56.38.78l2.96,2.63c.27.23.66.37,1.06.37h.91c.78,0,1.44-.53,1.44-1.15v-4.19l4.29-3.77c.14-.13.27-.31.31-.48l.73-2.62c.11-.39,0-.76-.32-1.05-.43-.35-1.01-.46-1.55-.31l-.19.09-3.18,1.42c-.87.33-1.83.33-2.71,0l-6.54-2.35c-.18-.06-.36-.09-.55-.09Z"/></svg>