<?xml version="1.0" encoding="UTF-8"?><svg id="a" xmlns="http://www.w3.org/2000/svg" viewBox="0 0 250 250"><defs><style>.b{fill:#e7e4ca;}</style></defs><path class="b" d="M196.01,158.02c-.13-1.1-.61-2.13-1.37-2.92-7.52-7.85-17.94-12.13-28.86-12.41.01-.02.03-.03.04-.04l.08-.08c.1-.09.19-.17.28-.26,10.12-9.46,16.66-22.28,18.44-36.08.33-2.54.49-5.09.49-7.63,0-8.67-1.9-17.28-5.62-25.24-5.3-11.38-13.88-20.65-24.78-26.8-11.32-6.39-24.62-8.95-37.45-7.22-5.97.81-11.77,2.52-17.26,5.09-5.05,2.35-9.7,5.36-13.84,8.94-.26.22-.52.45-.8.72-19.3,17.28-25.28,44.81-14.87,68.56.21.46.41.93.63,1.4.19.4.4.86.64,1.33,3.66,7.34,8.72,13.75,14.85,18.94-12.25-.17-23.99,4.63-31.97,13.69-.73.82-1.17,1.87-1.24,2.98-1.28,17.5,9.44,34.36,26.68,41.95,5.68,2.5,11.69,3.71,17.6,3.71,8.13,0,16.09-2.28,22.79-6.62v17.01c0,2.79,2.27,5.06,5.06,5.06s5.06-2.27,5.06-5.06v-17.21c6.37,3.76,13.74,5.71,21.26,5.71,6.49,0,13.1-1.46,19.23-4.47,16.91-8.29,26.93-25.58,24.93-43.02ZM100.56,73.37c3.53-10.66,10.71-19.34,19.81-23.99.34-.18.72-.28,1.11-.3,0,0,0,0,0,0,1.22-.1,2.45-.14,3.68-.14,8.54,0,17.07,2.21,24.56,6.44,9.06,5.11,16.17,12.81,20.59,22.27,3.99,8.56,5.47,17.99,4.26,27.29-1.42,11-6.47,21.24-14.29,28.99h0c-.32.32-.69.58-1.11.76-9.11,3.88-19.97,3.97-30.01.23-11.78-4.39-21.19-13.36-26.5-25.27-5.22-11.71-5.97-24.6-2.11-36.28ZM84.15,193.65c-12.54-5.52-20.86-17.77-20.74-30.23,8.8-8.81,23.37-11.46,36.1-6.38,8.45,3.38,14.94,9.89,18.24,17.63-2.7-1.08-5.56-1.85-8.28-2.42-8.73-1.81-17.32-1.83-17.69-1.83-2.79,0-5.06,2.26-5.06,5.06,0,2.79,2.26,5.06,5.06,5.07.08,0,8.03.03,15.75,1.65.29.06.58.13.86.19h.01c4.79,1.08,8.3,2.56,10.15,4.22.45.39.79.8,1.04,1.21-8.93,8.82-23.14,11.26-35.44,5.84ZM125.53,196.26s-.06-.05-.09-.07c.03-.02.06-.05.09-.08v.15ZM124.84,166.29c-1.69-2.93-3.73-5.68-6.11-8.17,2.18.24,4.37.36,6.57.36,1.66,0,3.31-.07,4.96-.21-2.12,2.47-3.94,5.17-5.42,8.02ZM107.72,145.14c-11.77-4.44-21.33-13.08-26.92-24.32-.02-.04-.04-.07-.06-.11-.16-.31-.31-.63-.46-.95-.19-.4-.36-.79-.53-1.18-8.66-19.74-3.68-42.64,12.39-56.99.04-.04.07-.07.11-.1.13-.12.25-.24.39-.35.03-.03.06-.05.09-.08,1.29-1.11,2.64-2.17,4.04-3.15-2.4,3.76-4.37,7.89-5.82,12.29-4.65,14.08-3.77,29.55,2.47,43.57,6.42,14.41,17.86,25.29,32.21,30.64,3.44,1.28,6.96,2.19,10.49,2.74-9.4,2.12-19.24,1.45-28.41-2.01ZM166.62,191.96c-11.97,5.87-26.13,4.1-35.41-4.16.71-.94,2.06-2.01,4.26-3.1,0,0,0,0,.01,0,.02-.01.04-.02.06-.03.01,0,.02-.01.04-.02.37-.19.77-.37,1.19-.55h0s.05-.03.07-.04c0,0,0,0,.01,0s.01,0,.02,0c1.67-.72,3.73-1.44,6.22-2.13,3.81-1.05,7.68-1.73,10.6-2.16,2.92-.43,4.9-.59,4.93-.59,2.79-.22,4.86-2.66,4.64-5.45-.23-2.78-2.67-4.86-5.45-4.64-.35.03-8.74.72-17.28,3.04-3.24.89-6.1,1.9-8.56,3.04,2.86-8.2,9.21-15.3,17.78-19.14,12.5-5.61,27.17-3.56,36.33,4.88.64,12.44-7.17,25.03-19.47,31.06Z"/></svg>