<?xml version="1.0" encoding="UTF-8"?><svg id="a" xmlns="http://www.w3.org/2000/svg" viewBox="0 0 250 250"><defs><style>.b{fill:none;}.c{fill:#e7e4ca;}</style></defs><path class="c" d="M40.2,169.77c.13.3.04.66-.3.8-.64.27-2.33-.24-2.96-1.72-.47-1.11-.33-2.64,1.57-3.69.07-.03.17-.07.14-.14-.03-.07-.06-.05-.19-.08-2.33-.44-4.1-2.15-4.99-4.24-1.39-3.27-.21-6.11,2.11-7.1,1.35-.57,3.05-.5,4.56.53,1.92,1.25,3.18,3.18,4.85,4.66,1.18,1.09,2.79,2.16,4.61,1.38,1.62-.69,2.29-2.29,1.52-4.1-.86-2.02-2.62-2.51-4.15-2.85-1.23-.27-1.88-.12-2.19-.86-.34-.81.37-1.27,1.25-1.65.88-.37,2.03-.66,2.7-.47,1.57.41,3.2,2.94,4.01,4.86,1.83,4.31.35,7.57-2.98,8.98-2.63,1.12-5.77,2.33-8.46,3.48-1.18.5-1.55,1.13-1.26,1.81l.17.4ZM45.63,161.86c.07-.03.12-.09.09-.16-.03-.07-.08-.09-.23-.18-1.41-.79-2.93-2.77-4.69-3.93-1.32-.87-2.57-.9-3.51-.5-1.35.57-2.17,2-1.41,3.78.56,1.31,1.94,2.51,3.94,2.62,1.7.07,3.2-.52,5.25-1.4l.57-.24Z"/><path class="c" d="M55.89,186.7c-.76.57-1.32,1.05-1.54,1.49-.46,1.03.68,2.24.04,2.72-.29.22-.64.25-1.29-.31-1.1-.91-1.98-1.53-2.8-2.01-.39-.21-.55-.36-.68-.54-.29-.38-.26-.77.3-1.19l1.58-1.19c.15-.11.17-.26.1-.35-.04-.06-.12-.09-.27-.12-2.31-.09-4.64-1.03-6.07-2.93-2.12-2.8-2.4-7.6,2.65-11.42,4.32-3.27,10.69-3.95,13.98.4,1.06,1.4,1.62,3.05,1.75,4.74,0,.13.02.21.07.27.07.09.15.07.23,0l2.77-2.1c.76-.57,1.35-1.07,1.51-1.65.28-1.08-.68-2.05-.04-2.54.29-.22.58-.26,1.26.33,1.05.9,1.81,1.43,2.83,2.04.26.17.48.28.66.51.27.35.23.79-.3,1.19l-16.72,12.65ZM57.24,181.32c4.03-3.05,5-6.49,3.15-8.94-2.32-3.06-6.38-1.64-9.27.54-3.44,2.61-4.88,6.35-2.96,8.89,1.94,2.57,5.46,2.25,9.08-.49Z"/><path class="c" d="M74.22,202.52c-.59.75-1.01,1.35-1.11,1.83-.18,1.12,1.23,1.99.73,2.62-.23.29-.55.41-1.33.03-1.3-.6-2.31-.97-3.22-1.23-.43-.1-.63-.21-.8-.35-.37-.29-.45-.68-.02-1.22l1.22-1.55c.11-.14.09-.3,0-.37-.06-.05-.14-.06-.29-.04-2.26.51-4.75.18-6.62-1.29-2.76-2.17-4.25-6.73-.35-11.71,3.34-4.26,9.32-6.55,13.61-3.18,1.38,1.08,2.34,2.53,2.9,4.13.04.13.08.2.13.24.09.07.16.03.23-.05l2.15-2.74c.59-.75,1.03-1.38,1.04-1.98,0-1.12-1.18-1.81-.69-2.45.23-.29.5-.4,1.3,0,1.25.61,2.12.92,3.25,1.25.3.09.54.14.77.32.35.27.42.7.02,1.22l-12.94,16.5ZM74.15,196.98c3.12-3.97,3.18-7.55.76-9.45-3.02-2.37-6.59.04-8.83,2.89-2.67,3.4-3.1,7.39-.59,9.35,2.53,1.99,5.85.78,8.66-2.79Z"/><path class="c" d="M84.61,211.15c.02,1.44,1.13,1.92.78,2.6-.23.46-.74.41-1.23.16l-5.46-2.74c-.49-.25-.8-.61-.57-1.06.34-.69,1.51-.15,2.55-.93.66-.49,1.26-1.54,2.07-3.14l2.92-5.82c.71-1.41,1.08-2.16,1.02-2.85-.03-.43-.33-.82-.74-1.23-.38-.39-.62-.72-.46-1.05.16-.33.43-.52,1.29-.29,1.34.35,2.39.54,3.58.61.28.02.51.05.7.15.39.2.56.61.26,1.2l-5.44,10.86c-.82,1.64-1.28,2.72-1.28,3.53ZM91.36,192.63c-.75-.38-1.52-2.77-1.16-3.49.38-.75,2.75-1.57,3.5-1.19.75.38,1.52,2.77,1.14,3.52-.36.72-2.73,1.54-3.49,1.16Z"/><path class="c" d="M101.51,216.83c-.17.52-.96,1.15-1.9,1.53-1.21.52-2.82.72-4.46.18-1.7-.56-2.72-1.67-3.18-3.09-.38-1.17-.19-2.68.4-4.46,1.01-3.06,2.29-6.1,3.43-9.55.08-.24.01-.38-.23-.46l-2.19-.72c-.24-.08-.34-.27-.24-.54l.37-1.11c.07-.21.22-.31.49-.3,1.67.09,2.59-.14,3.24-.7.65-.56,1.1-1.45,1.72-2.52.16-.25.31-.36.59-.27l1.42.47c.28.09.37.28.29.52l-1.2,3.61c-.21.63-.13.85.5,1.05.52.17.97.32,1.8.52.75.17,1.76.39,2.49.63.76.25,1.05.54.9.99-.06.17-.21.39-.32.63-.42.79-.95.88-1.85.58-.63-.21-1.36-.56-2.18-.87-.68-.26-1.24-.45-1.86-.66-.28-.09-.46,0-.55.28-.15.45-1.52,4.24-1.86,5.28-.43,1.29-.8,2.43-1.19,4.08-.67,2.83.23,3.97,1.58,4.42,1.81.6,2.92-.54,3.58-.32.35.11.55.45.43.8Z"/><path class="c" d="M111.57,219.16c.44,1.37,1.64,1.5,1.52,2.26-.08.51-.58.61-1.12.52l-6.03-1c-.54-.09-.94-.34-.86-.85.13-.76,1.4-.58,2.17-1.64.48-.66.75-1.84,1.05-3.61l1.07-6.43c.26-1.55.4-2.38.13-3.02-.16-.4-.55-.69-1.07-.96-.48-.26-.81-.5-.75-.87.06-.36.25-.63,1.15-.66,1.38-.07,2.44-.19,3.6-.48.27-.07.5-.1.72-.07.43.07.71.41.6,1.06l-1.99,11.99c-.3,1.81-.42,2.97-.18,3.75ZM112.55,199.47c-.83-.14-2.27-2.2-2.14-2.99.14-.83,2.16-2.31,3-2.17.83.14,2.27,2.2,2.13,3.03-.13.79-2.16,2.28-2.99,2.14Z"/><path class="c" d="M136.85,204.1c0,.4-.28.59-.68.85-1.59.98-2.44,2.97-3.14,4.66l-5.38,13.05c-.11.22-.29.3-.54.3l-1.9.03c-.29,0-.44-.1-.56-.39l-5.2-13.46c-.57-1.53-1.07-2.69-1.78-3.34-.71-.61-1.62-.71-1.63-1.33,0-.48.32-.7,1.16-.71l6-.1c.66-.01.99.24,1,.68.01.88-1.71.65-1.68,2.22,0,.48.17,1.17.59,2.26l3.86,9.93c.08.18.11.18.15.18.04,0,.07-.04.11-.15l2.67-6.96c.91-2.39,1.4-3.94,1.38-5-.03-2.01-1.82-1.62-1.84-2.57,0-.51.43-.7,1.05-.71l5.2-.09c.77-.01,1.17.16,1.18.64Z"/><path class="c" d="M155.64,214.07c.25.99-1.65,4.9-6.38,6.07-5.44,1.35-9.69-2.13-10.89-6.99-1.28-5.19,1.17-11.11,6.68-12.48,5.12-1.27,8.28,2.36,8.89,4.85.54,2.17-.45,2.75-2.18,3.22,0,0-9.38,2.32-9.63,2.38s-.36.2-.3.45l.04.18c.92,3.73,3.88,6.54,7.65,5.61,3.48-.86,4.3-3.63,5.16-3.84.43-.11.84.06.97.55ZM141.39,209.19c.04.18.12.2.34.14.25-.06,5.79-1.43,5.79-1.43,2.06-.51,2.88-1.17,2.47-2.8-.4-1.63-2.31-3.24-4.83-2.61-2.84.7-4.06,3.57-3.83,6.3.03.29.05.36.06.4Z"/><path class="c" d="M170.89,183.11c.5.81.63,1.42-.03,1.83-.96.6-2.92-1.16-4.75-.02-2.36,1.47-.46,4.94.81,6.99.14.22.29.25.5.12.56-.35,1.27-.79,2-1.29.73-.49,1.47-1.17,2.12-1.58.31-.19.87-.54,1.18-.04.12.19.21.47.29.68.4,1-.02,1.35-.77,1.81-.59.37-1.25.69-2.02,1.12-.61.34-1.14.66-1.64.97-.31.19-.35.34-.17.62l5.04,8.11c.97,1.55,1.68,2.49,2.34,2.94,1.19.81,2.2,0,2.63.69.27.44-.04.84-.5,1.13l-5.13,3.19c-.5.31-.97.39-1.24-.05-.44-.71.77-1.26.53-2.83-.14-.78-.67-1.78-1.58-3.24l-5.12-8.24c-.12-.19-.25-.19-.47-.06-.19.12-1.93,1.2-1.93,1.2-.22.14-.43.14-.59-.11l-.66-1.06c-.15-.25-.09-.42.16-.57,0,0,1.55-.97,1.93-1.2.25-.15.28-.31.15-.52-3.43-6.14.13-10.12,2.46-11.57.84-.52,1.64-.76,2.32-.71,1.01.1,1.74,1.07,2.11,1.66Z"/><path class="c" d="M185.02,179.64c.59.65.91,1.45.21,2.08-.65.59-1.54.31-2.36,1.05-.52.47-.87,1.23-.69,2.35.23,1.57.92,3.26,4.58,7.31,1.2,1.33,2.07,2.18,2.83,2.48,1.37.54,2.17-.38,2.71.22.34.38.14.81-.29,1.2l-4.48,4.05c-.43.39-.88.55-1.23.17-.52-.57.49-1.43.04-2.8-.25-.71-.95-1.66-2.15-2.99l-4.39-4.86c-1.06-1.17-1.75-1.72-2.32-1.85-1.13-.26-2.09.8-2.63.2-.27-.3-.28-.64.19-1.26.72-1,1.1-1.68,1.56-2.75.15-.33.31-.58.5-.75.41-.37.87-.29,1.31.2l1.94,2.15c.05.05.1.11.15.06s0-.16-.01-.23c-.48-1.68-.56-4.72,1.17-6.29,1.06-.96,2.37-.81,3.36.27Z"/><path class="c" d="M205.24,174.31c.82.61,1.83,4.83-1.07,8.74-3.34,4.49-8.83,4.51-12.86,1.52-4.29-3.19-6.15-9.33-2.76-13.88,3.15-4.23,7.89-3.43,9.95-1.9,1.79,1.33,1.4,2.41.36,3.87,0,0-5.77,7.75-5.92,7.96-.15.21-.15.39.05.54l.15.11c3.08,2.3,7.15,2.59,9.47-.52,2.14-2.88,1.02-5.54,1.54-6.24.26-.35.69-.49,1.1-.19ZM191.13,179.59c.15.11.22.07.35-.1.15-.21,3.56-4.79,3.56-4.79,1.27-1.7,1.48-2.73.13-3.73-1.35-1.01-3.84-1.03-5.39,1.05-1.75,2.35-.87,5.33,1.04,7.3.21.2.27.25.3.27Z"/><path class="c" d="M214.49,154.38c.94.4,2.91,4.27,1,8.75-2.2,5.15-7.54,6.45-12.15,4.48-4.91-2.1-8.16-7.63-5.93-12.85,2.07-4.85,6.87-5.18,9.23-4.17,2.05.88,1.92,2.02,1.25,3.68,0,0-3.8,8.88-3.9,9.12-.1.24-.06.41.18.51l.17.07c3.53,1.51,7.56.84,9.09-2.72,1.41-3.3-.3-5.62.04-6.43.17-.4.55-.64,1.02-.44ZM202.01,162.81c.17.07.23.02.32-.18.1-.24,2.35-5.49,2.35-5.49.83-1.95.81-3-.74-3.66-1.55-.66-3.97-.11-5,2.28-1.15,2.69.4,5.39,2.72,6.86.25.15.32.18.36.19Z"/><path class="c" d="M152.77,90.71c-5.14-5.14-13.51-5.14-18.65,0-1.37,1.37-2.4,2.99-3.07,4.8,0,.01,0,.02-.01.03,0,.02-.02.04-.02.07-.58,1.62-.82,3.3-.75,4.97-2.39-1.23-5.39-.84-7.38,1.15-2.16,2.16-2.43,5.5-.82,7.96l-14.77,14.77c-1.58,1.58-2.45,3.75-2.43,5.96l-4.84,4.84c-2.26,2.26-2.26,5.95,0,8.21,1.13,1.13,2.62,1.7,4.1,1.7s2.97-.56,4.1-1.7l4.84-4.84s.08,0,.12,0c2.19,0,4.27-.86,5.85-2.43l14.79-14.79c1.01.64,2.17.98,3.39.98,1.69,0,3.29-.66,4.49-1.86,1.97-1.97,2.37-4.94,1.19-7.31.18,0,.36.01.55.01,1.3,0,2.62-.19,3.91-.59.03,0,.06-.02.09-.03.01,0,.02,0,.04-.01,1.99-.63,3.82-1.75,5.3-3.24,2.49-2.49,3.87-5.8,3.87-9.33s-1.37-6.84-3.87-9.33ZM105.31,140.55c-.66.66-1.72.66-2.38,0-.66-.66-.66-1.72,0-2.38l3.29-3.29s.01.01.02.02c.06.09.11.17.18.25,0,0,0,.01.01.01.05.07.11.15.16.22.01.02.03.04.05.06.06.08.13.16.2.24.07.09.15.17.22.25.08.08.15.16.24.25.08.08.16.16.25.24.08.08.17.15.25.22.08.07.16.14.24.2.02.01.04.03.06.04.07.06.15.11.22.16,0,0,0,0,.01.01.08.06.17.12.25.18,0,0,.01.01.02.02l-3.29,3.29ZM116.11,133.28c-.94.94-2.23,1.37-3.54,1.18-.9-.13-1.72-.54-2.36-1.18-.65-.65-1.05-1.46-1.18-2.36-.19-1.31.24-2.61,1.18-3.54l13.89-13.89,5.91,5.91-13.89,13.89ZM138.77,117.61c-.42.42-.98.65-1.57.65-.29,0-.58-.06-.85-.17-.27-.11-.51-.27-.72-.48l-9.84-9.84c-.86-.86-.86-2.27,0-3.14.43-.43,1-.65,1.57-.65s1.14.22,1.57.65l9.84,9.84c.42.42.65.98.65,1.57s-.23,1.15-.65,1.57ZM137.03,106.45c-2.28-2.28-3.16-5.62-2.36-8.71,2.89-1.09,6.37-.27,8.68,2.12,2.45,2.53,3.22,6.14,2.02,9.04-3.01.66-6.13-.25-8.34-2.45ZM151.82,103.51c-.42,1.01-1.02,1.94-1.79,2.75.06-3.3-1.23-6.69-3.72-9.27-2.36-2.44-5.57-3.78-8.77-3.84,1.69-1.45,3.8-2.18,5.9-2.18,2.32,0,4.64.88,6.41,2.65,1.71,1.71,2.66,3.99,2.66,6.41,0,1.21-.24,2.39-.69,3.47Z"/><path class="c" d="M100.86,161.34c-3.11,0-5.64-2.53-5.64-5.64,0-2.4,2.79-6.38,3.99-7.98.39-.52,1-.82,1.65-.82s1.26.31,1.65.82c1.2,1.6,3.99,5.58,3.99,7.98,0,3.11-2.53,5.64-5.64,5.64ZM100.86,152.61c-.86,1.39-1.48,2.63-1.52,3.11,0,.82.68,1.5,1.52,1.5s1.51-.68,1.52-1.51c-.04-.48-.66-1.72-1.52-3.1Z"/><path class="c" d="M220.43,148.49c-.16,0-.33-.02-.49-.05-1.22-.27-1.99-1.48-1.72-2.7,1.5-6.77,2.26-13.74,2.26-20.74s-.76-13.97-2.26-20.74c-4.62-20.87-16.36-39.84-33.06-53.4-8.33-6.77-17.64-12.04-27.68-15.67-10.39-3.76-21.32-5.66-32.47-5.66s-22.08,1.91-32.47,5.66c-10.04,3.63-19.36,8.9-27.68,15.67-16.69,13.56-28.43,32.53-33.06,53.4-1.5,6.77-2.26,13.74-2.26,20.74s.76,13.97,2.26,20.74c.27,1.22-.5,2.43-1.72,2.7-1.22.27-2.43-.5-2.7-1.72-1.57-7.09-2.37-14.39-2.37-21.72s.8-14.63,2.37-21.72c4.84-21.87,17.14-41.73,34.62-55.94,8.72-7.09,18.48-12.61,29-16.41,10.89-3.94,22.33-5.93,34.01-5.93s23.13,2,34.01,5.93c10.52,3.81,20.28,9.33,29,16.41,17.48,14.2,29.78,34.07,34.62,55.94,1.57,7.09,2.37,14.39,2.37,21.72s-.8,14.63-2.37,21.72c-.23,1.06-1.17,1.77-2.21,1.77Z"/><circle class="b" cx="125" cy="125" r="100"/></svg>