<?xml version="1.0" encoding="UTF-8"?><svg id="a" xmlns="http://www.w3.org/2000/svg" viewBox="0 0 250 250"><defs><style>.b{fill:#e7e4ca;}</style></defs><path class="b" d="M208.26,84.36c-4.53-15.85-13.68-29.86-25.77-39.45-.88-.69-1.96-1.08-3.08-1.1-15.37-.23-31.18,4.85-44.53,14.33-14.04,9.97-24.7,24.09-30.85,40.84-1.69,4.61-2.96,9.31-3.81,14.03-6.81-7.3-15.24-12.59-24.59-15.39-10.21-3.07-21.03-2.9-30.48.46-1.06.37-1.96,1.08-2.57,2.03-5.47,8.44-8.2,19-7.68,29.71.54,11.23,4.49,22.06,11.42,31.31,10.22,13.62,25.94,21.3,41.68,21.3,4.25,0,8.5-.56,12.64-1.72l20.49,26.53.14.19c.06.08.13.16.19.23s.14.15.21.22c.14.14.29.28.44.4.08.06.15.12.23.18.08.06.16.11.24.16.08.05.16.1.25.15.07.04.13.07.2.1.03.02.06.03.09.05.08.04.15.07.23.1.09.04.18.07.26.1.06.02.11.04.16.05.1.04.2.06.31.09.12.03.24.06.36.08h.01c.11.02.23.04.34.05.07.01.14.02.21.02.1,0,.19.01.29.01.39,0,.78-.05,1.16-.14.1-.02.2-.05.31-.08.03,0,.06-.02.09-.03.09-.03.17-.06.25-.09.04-.01.08-.03.12-.05.08-.03.16-.07.24-.11.05-.02.09-.04.13-.07.06-.03.11-.06.17-.09.1-.05.19-.11.29-.17.12-.08.24-.16.36-.25.07-.05.14-.11.2-.17.29-.24.54-.52.77-.81.07-.09.13-.18.19-.28.07-.11.14-.23.2-.35.06-.12.12-.23.17-.36.06-.12.11-.25.15-.38h0s5.14-14.8,5.14-14.8c31.96-.7,61.13-23.02,71.77-55.42,5.56-16.95,5.99-34.72,1.23-51.4ZM104.28,157.21c-.5,2.87-1.32,5.68-2.45,8.36l-31.21-40.42c-1.72-2.23-4.92-2.64-7.15-.92-2.23,1.72-2.64,4.92-.92,7.15l31.21,40.41c-14.39,2.25-29.76-4.08-39.29-16.79-5.71-7.61-8.96-16.49-9.4-25.68-.38-7.97,1.44-15.78,5.14-22.19,7.02-2.1,14.94-2.03,22.48.23,8.72,2.62,16.48,7.91,22.43,15.3,1.41,1.75,2.66,3.57,3.76,5.46,5.24,8.98,7.08,19.39,5.38,29.07ZM123.59,193.75l-14.84-19.22c.76-1.34,1.45-2.71,2.07-4.1,4,6.48,8.98,12.34,14.85,17.34l-2.08,5.98ZM197.36,132.58c-4.92,14.98-14.13,27.55-26.63,36.34-9.62,6.77-20.71,10.87-31.85,11.85l28.4-81.71c.92-2.66-.48-5.56-3.14-6.48-2.66-.92-5.56.48-6.48,3.14l-28.36,81.58c-6.1-5.96-11.08-13.29-14.57-21.46,1.14-10.21-.79-20.83-5.68-30.34.25-7.75,1.76-15.5,4.53-23.02,5.43-14.81,14.84-27.27,27.19-36.04,11.09-7.88,24.06-12.26,36.73-12.45,9.77,8.23,17.18,19.94,20.96,33.16,4.2,14.71,3.81,30.42-1.11,45.43Z"/><path class="b" d="M123.8,209.17c-.05-.01-.11-.03-.16-.05h0c.06.02.11.03.16.05Z"/></svg>