<?xml version="1.0" encoding="UTF-8"?><svg id="a" xmlns="http://www.w3.org/2000/svg" viewBox="0 0 250 250"><defs><style>.b{fill:#e7e4ca;}</style></defs><path class="b" d="M156.43,142.7c-.06-.49-.27-.94-.61-1.3-3.34-3.49-7.97-5.39-12.83-5.52,0,0,.01-.01.02-.02l.04-.03s.08-.08.12-.12c4.5-4.21,7.41-9.9,8.2-16.04.15-1.13.22-2.26.22-3.39,0-3.85-.85-7.68-2.5-11.22-2.36-5.06-6.17-9.18-11.01-11.91-5.03-2.84-10.94-3.98-16.64-3.21-2.65.36-5.23,1.12-7.67,2.26-2.24,1.05-4.31,2.38-6.15,3.97-.12.1-.23.2-.36.32-8.58,7.68-11.24,19.92-6.61,30.47.09.2.18.41.28.62.08.18.18.38.29.59,1.63,3.26,3.88,6.11,6.6,8.42-5.44-.08-10.66,2.06-14.21,6.08-.32.37-.52.83-.55,1.32-.57,7.78,4.2,15.27,11.86,18.64,2.53,1.11,5.2,1.65,7.82,1.65,3.61,0,7.15-1.01,10.13-2.94v7.56c0,1.24,1.01,2.25,2.25,2.25s2.25-1.01,2.25-2.25v-7.65c2.83,1.67,6.11,2.54,9.45,2.54,2.89,0,5.82-.65,8.55-1.99,7.51-3.69,11.97-11.37,11.08-19.12ZM114.01,105.08c1.57-4.74,4.76-8.6,8.8-10.66.15-.08.32-.13.49-.13,0,0,0,0,0,0,.54-.04,1.09-.06,1.64-.06,3.8,0,7.59.98,10.92,2.86,4.03,2.27,7.19,5.69,9.15,9.9,1.77,3.8,2.43,8,1.89,12.13-.63,4.89-2.88,9.44-6.35,12.88h0c-.14.14-.31.26-.49.34-4.05,1.72-8.88,1.77-13.34.1-5.24-1.95-9.42-5.94-11.78-11.23-2.32-5.21-2.65-10.93-.94-16.13ZM106.72,158.53c-5.58-2.45-9.27-7.9-9.22-13.44,3.91-3.92,10.39-5.09,16.04-2.84,3.75,1.5,6.64,4.39,8.11,7.84-1.2-.48-2.47-.82-3.68-1.08-3.88-.81-7.7-.81-7.86-.81-1.24,0-2.25,1.01-2.25,2.25,0,1.24,1.01,2.25,2.25,2.25.03,0,3.57.01,7,.73.13.03.26.06.38.08h0c2.13.48,3.69,1.14,4.51,1.87.2.18.35.36.46.54-3.97,3.92-10.28,5-15.75,2.6ZM125.11,159.7s-.02-.02-.04-.03c.01,0,.03-.02.04-.03v.07ZM124.8,146.37c-.75-1.3-1.66-2.53-2.71-3.63.97.11,1.94.16,2.92.16.74,0,1.47-.03,2.21-.09-.94,1.1-1.75,2.3-2.41,3.56ZM117.19,136.97c-5.23-1.97-9.48-5.81-11.96-10.81,0-.02-.02-.03-.02-.05-.07-.14-.14-.28-.2-.42-.08-.18-.16-.35-.24-.53-3.85-8.77-1.64-18.95,5.51-25.33.02-.02.03-.03.05-.04.06-.05.11-.11.17-.16.01-.01.03-.02.04-.04.57-.49,1.17-.96,1.79-1.4-1.07,1.67-1.94,3.51-2.59,5.46-2.07,6.26-1.68,13.13,1.1,19.37,2.85,6.41,7.94,11.24,14.31,13.62,1.53.57,3.09.97,4.66,1.22-4.18.94-8.55.64-12.63-.9ZM143.37,157.78c-5.32,2.61-11.61,1.82-15.74-1.85.31-.42.92-.89,1.89-1.38,0,0,0,0,0,0,0,0,.02,0,.03-.01,0,0,0,0,.02,0,.16-.08.34-.16.53-.25h0s.02-.01.03-.02c0,0,0,0,0,0s0,0,0,0c.74-.32,1.66-.64,2.77-.94,1.69-.47,3.41-.77,4.71-.96,1.3-.19,2.18-.26,2.19-.26,1.24-.1,2.16-1.18,2.06-2.42-.1-1.24-1.19-2.16-2.42-2.06-.16.01-3.89.32-7.68,1.35-1.44.39-2.71.84-3.8,1.35,1.27-3.65,4.09-6.8,7.9-8.51,5.56-2.49,12.08-1.58,16.15,2.17.28,5.53-3.19,11.12-8.65,13.81Z"/><path class="b" d="M83.94,65.37c3.64,4.11,3.79,10.08-.29,13.7-4.17,3.69-9.54,3.31-13.49-1.16-3.66-4.14-3.79-10.14.38-13.82,4.36-3.86,9.74-2.85,13.4,1.28ZM71.37,65.8c-2.41,2.13-2,5.58.69,8.62,3.35,3.78,7.92,5.36,10.6,2.98,2.71-2.4,1.56-6.08-.81-8.76-2.79-3.15-7.41-5.56-10.48-2.84Z"/><path class="b" d="M94.72,51.52c.41.78.52,1.63-.33,2.07-.78.41-1.57-.09-2.55.42-.62.32-1.15.97-1.26,2.1-.17,1.57.07,3.39,2.59,8.22.83,1.59,1.45,2.63,2.11,3.11,1.19.86,2.2.18,2.57.89.24.45-.07.82-.59,1.09l-5.36,2.79c-.52.27-.99.31-1.23-.14-.36-.68.83-1.26.74-2.7-.06-.75-.51-1.84-1.33-3.43l-3.03-5.81c-.73-1.4-1.26-2.11-1.77-2.38-1.02-.54-2.22.25-2.59-.46-.19-.36-.11-.69.5-1.17.95-.79,1.48-1.35,2.21-2.26.22-.28.45-.48.68-.6.49-.25.92-.06,1.22.52l1.34,2.56c.03.06.07.13.13.1s.05-.15.05-.23c-.05-1.75.64-4.71,2.72-5.79,1.27-.66,2.5-.19,3.18,1.11Z"/><path class="b" d="M111.38,47.59c-.18.05-.54.1-.54.1.9.87,1.43,2.05,1.68,3.05.97,3.79-1.06,7.22-5.04,8.54-1.46.49-3.04.81-2.75,1.95.18.71.97.85,2.79.57,1.53-.24,3.44-.73,5.28-.93,2.62-.25,4.43.79,4.95,2.82.99,3.87-2.44,6.86-7.62,8.18-3.12.8-5.7.77-7.25,0-1.11-.51-1.79-1.39-2.03-2.32-.52-2.06,1.07-3.52,1.99-3.76.53-.14.91.03,1.01.39.11.43-.38,1.04-.1,2.14.59,2.3,3.74,2.37,6.4,1.69,3.3-.84,5.46-2.72,4.99-4.56-.33-1.28-1.49-1.55-3.59-1.2-1.67.27-3.9.85-5.61.94-2.23.15-3.56-.79-3.9-2.1-.41-1.6.83-2.97,1.51-3.41.1-.06.09-.1.08-.13,0-.04-.05-.06-.13-.08-2.39-.49-4.43-2.12-5.13-4.85-.94-3.69,1.26-7.5,5.34-8.54,3.19-.81,5.04.53,5.86.32,1.06-.27.3-1.93,1.86-2.33.92-.24,1.6.2,1.83,1.12.31,1.21-.39,2.03-1.88,2.41ZM101.72,52.93c.57,2.23,2.45,5.3,5.25,4.59,2.2-.56,2.83-2.84,2.23-5.18-.57-2.23-2.53-5.17-5.22-4.48-2.16.55-2.84,2.77-2.26,5.07Z"/><path class="b" d="M134.27,61.09c.33.01.61.24.6.61-.02.69-1.2,2.01-2.81,1.96-1.21-.04-2.54-.82-2.69-2.98,0-.07,0-.18-.07-.19s-.07.03-.15.14c-1.38,1.93-3.68,2.81-5.95,2.74-3.55-.12-5.64-2.38-5.55-4.9.05-1.46.83-2.98,2.4-3.91,1.94-1.22,4.23-1.55,6.27-2.43,1.48-.61,3.13-1.62,3.19-3.59.06-1.76-1.11-3.04-3.08-3.1-2.19-.07-3.38,1.32-4.33,2.57-.77,1-.9,1.66-1.7,1.63-.88-.03-1-.87-.97-1.83.03-.95.25-2.12.71-2.65,1.03-1.25,4.01-1.66,6.09-1.6,4.68.15,7.01,2.87,6.89,6.49-.09,2.85-.31,6.22-.41,9.14-.04,1.28.38,1.88,1.11,1.9h.44ZM129.38,52.84c0-.07-.03-.15-.1-.15-.07,0-.11.03-.26.14-1.31.95-3.75,1.49-5.54,2.6-1.35.84-1.89,1.95-1.93,2.98-.05,1.46.9,2.81,2.84,2.88,1.43.05,3.1-.7,4.04-2.47.78-1.51.87-3.12.94-5.35l.02-.62Z"/><path class="b" d="M155.24,62.96c-.62,1.8-.96,3.15-.77,3.95.28,1.1,1.34,1.62,1.13,2.24-.17.48-.68.5-1.19.33l-5.82-1.99c-.52-.18-.91-.51-.74-.99.24-.69,1.43-.32,2.35-1.21.57-.54,1.1-1.75,1.7-3.48l1.85-5.4c1.03-3.01-.11-4.87-2.15-5.57-1.04-.36-2.28-.35-3.39.19-1.77.86-2.72,2.63-4.54,7.96-.6,1.77-.94,3.08-.78,3.87.24,1.21,1.32,1.69,1.1,2.31-.17.48-.64.52-1.16.34l-5.75-1.97c-.52-.18-.88-.49-.71-.98.25-.73,1.51-.33,2.41-1.26.55-.59,1.06-1.73,1.64-3.42l2.31-6.75c.38-1.11.56-1.74.4-2.3-.27-1.02-1.78-1.35-1.52-2.11.13-.38.39-.56,1.24-.46,1.38.16,2.53.17,3.58.06.28-.02.51-.02.72.05.45.15.65.57.43,1.23l-.7,2.04c-.04.1-.02.19.04.21.07.02.13-.03.23-.11,1.62-1.23,4.04-1.98,6.64-1.09,1.97.68,3.3,2.1,3.8,3.7.41,1.3.39,2.69-.44,5.11l-1.89,5.51Z"/><path class="b" d="M163.18,72.36c-.14,1.43.91,2.03.5,2.67-.28.43-.78.33-1.24.03l-5.14-3.31c-.46-.3-.73-.69-.45-1.12.42-.65,1.51.02,2.64-.65.7-.42,1.42-1.39,2.39-2.9l3.53-5.47c.85-1.32,1.31-2.03,1.32-2.72.01-.43-.24-.85-.6-1.3-.33-.43-.54-.78-.34-1.09.2-.31.48-.47,1.32-.15,1.3.49,2.32.8,3.5.99.27.05.5.1.68.22.37.24.49.66.13,1.22l-6.59,10.21c-.99,1.54-1.56,2.56-1.65,3.38ZM171.89,54.68c-.71-.46-1.21-2.92-.78-3.59.46-.71,2.9-1.26,3.61-.81.71.46,1.21,2.92.76,3.62-.44.68-2.88,1.23-3.59.78Z"/><path class="b" d="M168.82,81.37c-3.34-3.23-3.69-8.19.12-12.14,3.94-4.08,10.47-5.31,14.86-1.07,1.05,1.02,2.33,2.75,2.33,4.13.01.78-.59,1.62-1.2,2.25-1.19,1.24-1.81,1.35-2.31.87-.61-.58-.13-1.34.11-2.38.24-1.04.36-2.8-1.03-4.15-2.05-1.98-5.72-1.66-8.95,1.69-2.8,2.9-4.15,6.99-1.14,9.88,2.34,2.26,4.94,1.36,5.55,1.95.29.28.25.69,0,.96-.69.71-4.84,1.38-8.32-1.97Z"/><path class="b" d="M41.66,171.81c-.83,1.18-.21,2.21-.89,2.57-.45.24-.84-.1-1.09-.59l-2.82-5.42c-.25-.49-.29-.96.16-1.2.68-.35,1.31.77,2.61.74.82-.01,1.92-.51,3.52-1.33l5.78-3.01c1.4-.73,2.14-1.11,2.49-1.71.22-.36.22-.85.12-1.43-.07-.54-.08-.95.24-1.12.32-.17.65-.17,1.22.52.88,1.07,1.62,1.84,2.55,2.6.22.18.38.34.48.53.2.39.09.82-.49,1.12l-10.78,5.6c-1.62.84-2.63,1.45-3.11,2.11ZM57.99,160.77c-.39-.75.39-3.13,1.11-3.5.75-.39,3.15.34,3.54,1.09.39.75-.39,3.13-1.14,3.52-.71.37-3.12-.36-3.5-1.11Z"/><path class="b" d="M59.13,189.65c-1.48,1.2-2.49,2.16-2.75,2.94-.35,1.08.28,2.08-.23,2.5-.4.32-.84.07-1.19-.36l-3.87-4.77c-.35-.43-.5-.91-.11-1.23.57-.46,1.38.48,2.63.22.77-.15,1.86-.9,3.28-2.05l4.43-3.6c2.47-2.01,2.49-4.19,1.13-5.87-.69-.85-1.74-1.51-2.98-1.64-1.96-.2-3.7.79-8.08,4.34-1.45,1.18-2.43,2.11-2.72,2.87-.43,1.15.22,2.13-.29,2.55-.4.32-.82.1-1.16-.33l-3.83-4.72c-.35-.43-.48-.88-.08-1.21.6-.48,1.46.52,2.71.2.78-.21,1.81-.9,3.2-2.03l5.54-4.5c.91-.74,1.4-1.18,1.56-1.74.31-1.01-.8-2.09-.17-2.59.31-.25.63-.27,1.3.27,1.08.87,2.06,1.49,3,1.95.25.13.44.25.58.42.3.37.25.83-.29,1.27l-1.68,1.36c-.09.07-.12.14-.07.2.05.06.13.04.26.03,2.02-.18,4.48.47,6.21,2.6,1.31,1.62,1.69,3.53,1.26,5.15-.35,1.32-1.09,2.49-3.08,4.1l-4.52,3.67Z"/><path class="b" d="M81.71,195.42c-.15-.11-.42-.36-.42-.36-.1,1.25-.69,2.4-1.3,3.23-2.33,3.15-6.28,3.73-9.8,1.48-1.3-.83-2.55-1.85-3.25-.91-.44.59-.04,1.29,1.32,2.53,1.15,1.03,2.74,2.21,4.05,3.51,1.85,1.87,2.18,3.94.94,5.62-2.38,3.2-6.86,2.43-11.15-.75-2.59-1.92-4.19-3.93-4.58-5.63-.31-1.18-.05-2.27.52-3.03,1.26-1.71,3.4-1.39,4.17-.83.44.33.55.73.33,1.02-.26.35-1.04.36-1.72,1.28-1.42,1.91.52,4.4,2.73,6.03,2.73,2.03,5.56,2.53,6.69,1,.79-1.06.26-2.13-1.34-3.54-1.27-1.12-3.12-2.49-4.27-3.76-1.52-1.63-1.64-3.26-.83-4.35.98-1.32,2.83-1.23,3.6-.98.11.04.13,0,.15-.02.02-.03.01-.08-.02-.15-1.13-2.16-1.15-4.77.53-7.04,2.27-3.06,6.61-3.75,9.99-1.25,2.65,1.96,2.78,4.25,3.45,4.75.88.65,1.69-.98,2.98-.02.76.57.86,1.36.29,2.13-.74,1-1.82.98-3.05.06ZM71.47,191.29c-1.37,1.85-2.57,5.25-.25,6.97,1.82,1.35,3.98.4,5.42-1.54,1.37-1.85,2.42-5.23.18-6.88-1.79-1.33-3.94-.46-5.36,1.45Z"/><path class="b" d="M98.23,202.45c-.37.8-.97,1.41-1.83,1.01-.8-.37-.9-1.3-1.89-1.75-.63-.29-1.47-.31-2.43.3-1.35.83-2.63,2.14-4.9,7.1-.75,1.63-1.18,2.76-1.15,3.58.05,1.47,1.21,1.84.88,2.57-.21.47-.69.45-1.22.21l-5.49-2.51c-.53-.24-.86-.59-.64-1.06.32-.7,1.5-.12,2.58-1.07.56-.51,1.14-1.53,1.89-3.16l2.73-5.96c.65-1.43.89-2.29.79-2.86-.2-1.14-1.56-1.6-1.23-2.33.17-.37.47-.51,1.23-.32,1.2.27,1.98.34,3.14.35.36,0,.66.06.89.17.5.23.61.68.34,1.28l-1.2,2.63c-.03.07-.06.13,0,.16.07.03.15-.05.21-.11,1.35-1.11,4.11-2.39,6.24-1.41,1.3.59,1.69,1.86,1.08,3.19Z"/><path class="b" d="M111.76,219.14c-.23,1-3.69,3.62-8.43,2.53-5.46-1.25-7.68-6.27-6.56-11.16,1.2-5.21,6.06-9.38,11.59-8.11,5.14,1.18,6.32,5.85,5.74,8.34-.5,2.18-1.64,2.25-3.4,1.88,0,0-9.42-2.16-9.67-2.22-.25-.06-.42.02-.47.27l-.04.18c-.86,3.75.51,7.59,4.29,8.46,3.5.8,5.48-1.29,6.34-1.1.43.1.73.43.61.93ZM101.24,208.35c-.04.18.02.23.24.28.25.06,5.81,1.34,5.81,1.34,2.07.48,3.09.26,3.47-1.38.38-1.64-.6-3.93-3.13-4.51-2.85-.66-5.23,1.35-6.26,3.89-.1.28-.12.35-.13.38Z"/><path class="b" d="M134.8,218.04c.02.95.07,1.68.3,2.12.57.98,2.21.76,2.23,1.56,0,.37-.17.66-1.01.86-1.38.36-2.4.71-3.27,1.1-.4.19-.62.23-.84.24-.48.01-.77-.24-.79-.93l-.04-1.98c0-.18-.12-.29-.23-.29-.07,0-.15.04-.25.15-1.42,1.83-3.55,3.15-5.93,3.21-3.51.08-7.56-2.51-7.7-8.84-.12-5.42,3.05-10.98,8.5-11.1,1.76-.04,3.42.47,4.86,1.36.11.07.19.11.26.1.11,0,.14-.08.14-.19l-.08-3.48c-.02-.95-.07-1.72-.45-2.19-.71-.86-2.06-.65-2.08-1.46,0-.37.13-.63,1.01-.83,1.35-.32,2.22-.63,3.31-1.1.29-.12.51-.23.8-.24.44,0,.77.28.79.93l.46,20.97ZM131.23,213.8c-.11-5.05-2.33-7.86-5.41-7.79-3.84.08-5.07,4.21-4.99,7.84.1,4.32,2.29,7.67,5.48,7.6,3.22-.07,5.02-3.11,4.92-7.65Z"/><path class="b" d="M141.78,199.55c-.82.18-2.93-1.18-3.1-1.97-.18-.82,1.14-2.95,1.96-3.14.82-.18,2.93,1.18,3.11,2.01.18.79-1.15,2.92-1.97,3.1ZM148.27,218.16c.92,1.11,2.09.77,2.25,1.52.11.5-.31.78-.85.9l-5.97,1.33c-.54.12-1,.04-1.12-.46-.17-.75,1.07-1.07,1.39-2.34.2-.79,0-1.99-.39-3.74l-1.42-6.36c-.34-1.54-.53-2.36-1.01-2.85-.29-.31-.77-.43-1.35-.49-.54-.07-.94-.17-1.02-.52-.08-.36,0-.67.82-1.04,1.26-.58,2.19-1.09,3.16-1.79.23-.16.42-.28.64-.33.43-.1.81.12.96.76l2.65,11.86c.4,1.79.73,2.91,1.24,3.55Z"/><path class="b" d="M168.75,209.33c.4.95-.88,5.09-5.38,6.97-5.17,2.16-9.9-.62-11.84-5.24-2.06-4.93-.54-11.16,4.69-13.35,4.86-2.03,8.54,1.07,9.53,3.43.86,2.06-.02,2.79-1.66,3.51,0,0-8.91,3.73-9.15,3.83-.24.1-.33.26-.23.49l.07.17c1.48,3.55,4.84,5.87,8.42,4.37,3.31-1.38,3.7-4.25,4.51-4.58.41-.17.84-.07,1.04.4ZM153.92,206.69c.07.17.15.17.35.09.24-.1,5.5-2.3,5.5-2.3,1.96-.82,2.67-1.59,2.02-3.15-.65-1.55-2.78-2.84-5.17-1.84-2.7,1.13-3.46,4.15-2.82,6.82.08.28.11.35.12.39Z"/><path class="b" d="M186.47,193.91c1.15,1.52,2.08,2.56,2.85,2.85,1.07.38,2.09-.21,2.49.32.31.41.04.84-.4,1.17l-4.9,3.71c-.44.33-.93.47-1.24.06-.44-.58.53-1.36.31-2.62-.13-.78-.84-1.89-1.94-3.35l-3.45-4.55c-1.92-2.54-4.1-2.63-5.83-1.33-.88.66-1.57,1.69-1.74,2.92-.27,1.95.66,3.72,4.06,8.22,1.13,1.49,2.03,2.5,2.77,2.81,1.14.47,2.14-.15,2.53.38.31.41.07.82-.37,1.15l-4.84,3.67c-.44.33-.9.45-1.21.04-.46-.61.56-1.44.29-2.7-.18-.78-.84-1.84-1.93-3.27l-4.31-5.69c-.71-.93-1.13-1.44-1.68-1.62-1-.35-2.11.73-2.6.09-.24-.32-.25-.64.31-1.29.9-1.05,1.56-2.01,2.05-2.93.14-.24.27-.43.44-.57.38-.29.84-.22,1.26.33l1.3,1.72c.07.09.14.12.2.08.06-.04.04-.12.04-.26-.11-2.03.62-4.46,2.8-6.12,1.66-1.26,3.59-1.57,5.19-1.09,1.3.39,2.45,1.17,4,3.22l3.51,4.64Z"/><path class="b" d="M200.98,182.55c.42.36.69,1.32.69,2.34.02,1.32-.41,2.88-1.54,4.19-1.17,1.36-2.59,1.88-4.08,1.75-1.23-.09-2.55-.85-3.97-2.07-2.44-2.11-4.76-4.45-7.51-6.82-.19-.17-.35-.16-.52.04l-1.51,1.75c-.17.19-.37.21-.6.02l-.89-.77c-.17-.14-.21-.32-.09-.56.72-1.51.86-2.45.59-3.26-.27-.81-.92-1.57-1.67-2.55-.17-.25-.21-.43-.02-.65l.98-1.14c.19-.22.4-.24.59-.07l2.88,2.49c.5.43.73.44,1.16-.06.36-.42.67-.78,1.16-1.46.45-.63,1.03-1.48,1.54-2.06.53-.61.9-.77,1.26-.46.14.12.28.34.45.54.57.68.45,1.21-.17,1.93-.43.5-1.04,1.04-1.64,1.68-.51.53-.89.97-1.32,1.47-.19.22-.18.43.05.62.36.31,3.34,3.03,4.17,3.74,1.02.89,1.94,1.67,3.31,2.66,2.36,1.7,3.75,1.31,4.69.23,1.24-1.44.62-2.9,1.07-3.43.24-.28.62-.33.9-.09Z"/><path class="b" d="M201.34,176.38c.42-.73,1.6-.52,2.99-.66,1.62-.18,3.48-.63,4.6-2.61,1.1-1.94.59-3.92-.85-4.73-4.17-2.37-7.39,7.97-13.05,4.75-3.09-1.75-3.53-5.79-1.54-9.29.89-1.56,2.12-2.84,3.08-3.26,1.07-.48,2.2-.1,3,.36.73.42,1.83,1.08,1.3,2-.43.76-1.14.45-2.5.55-1.28.11-2.76.49-3.67,2.08-.76,1.34-.68,3.27.81,4.12,1.97,1.12,3.76-.98,5.87-2.85,2.07-1.86,4.43-3.5,7.33-1.86,2.93,1.66,3.79,5.69,1.53,9.67-1.27,2.23-3.17,3.88-4.47,4.24-1.05.29-2.56-.32-3.54-.88-.7-.4-1.3-.91-.88-1.64Z"/><path class="b" d="M217.52,159.76c-.24,0-.49-.04-.73-.12-1.18-.4-1.81-1.69-1.41-2.87,3.38-9.9,5.1-20.28,5.1-30.85s-1.71-20.95-5.1-30.85c-3.17-9.3-7.76-18.03-13.64-25.95-5.81-7.84-12.75-14.72-20.64-20.45-16.38-11.92-35.78-18.21-56.1-18.21s-39.72,6.3-56.1,18.21c-7.89,5.74-14.83,12.62-20.64,20.45-5.88,7.92-10.46,16.66-13.63,25.95-3.38,9.9-5.1,20.28-5.1,30.85s1.71,20.95,5.1,30.85c.4,1.18-.23,2.47-1.41,2.87-1.18.4-2.47-.23-2.87-1.41-3.54-10.37-5.34-21.24-5.34-32.31s1.8-21.94,5.34-32.31c3.32-9.74,8.13-18.89,14.28-27.19,6.08-8.2,13.35-15.41,21.61-21.42,17.16-12.48,37.48-19.08,58.76-19.08s41.6,6.6,58.76,19.08c8.26,6.01,15.53,13.21,21.61,21.42,6.15,8.3,10.96,17.45,14.28,27.19,3.54,10.37,5.34,21.24,5.34,32.31s-1.8,21.94-5.34,32.31c-.32.94-1.2,1.53-2.14,1.53Z"/></svg>