<?xml version="1.0" encoding="UTF-8"?><svg id="a" xmlns="http://www.w3.org/2000/svg" viewBox="0 0 250 250"><defs><style>.b{fill:#e7e4ca;}</style></defs><path class="b" d="M64.56,200.49c.24.23.3.59.04.85-.48.5-2.24.69-3.4-.43-.87-.84-1.33-2.31,0-4.01.05-.05.13-.13.07-.18s-.08-.02-.21,0c-2.32.51-4.61-.39-6.25-1.96-2.55-2.47-2.58-5.55-.83-7.36,1.02-1.05,2.61-1.65,4.4-1.29,2.26.4,4.17,1.69,6.28,2.4,1.51.54,3.41.9,4.78-.52,1.22-1.26,1.22-3-.21-4.37-1.58-1.53-3.39-1.29-4.94-1-1.24.23-1.78.63-2.35.07-.63-.61-.15-1.32.51-2,.66-.68,1.61-1.4,2.3-1.49,1.6-.24,4.09,1.46,5.59,2.9,3.37,3.25,3.28,6.83.76,9.43-1.98,2.05-4.4,4.4-6.43,6.51-.89.92-.98,1.65-.45,2.16l.32.31ZM66.47,191.09c.05-.05.08-.13.02-.18-.05-.05-.1-.05-.29-.07-1.61-.18-3.78-1.41-5.86-1.79-1.56-.28-2.71.18-3.43.91-1.02,1.05-1.22,2.69.17,4.03,1.03.99,2.77,1.56,4.65.88,1.59-.6,2.74-1.73,4.29-3.34l.43-.45Z"/><path class="b" d="M85.59,214.37c-.22.38-.57.47-1.28.23-1.4-.43-2.45-.66-3.43-.81-.39-.06-.6-.14-.76-.23-.44-.26-.55-.66-.2-1.26,0,0,1.09-1.87,1.14-1.96.04-.06.02-.11-.04-.15-.06-.04-.13,0-.25.07-1.98,1.01-4.51,1.06-6.73-.23-1.58-.92-2.64-2.3-2.92-4.07-.26-1.59.32-3.24,1.43-5.14l3.09-5.31c.79-1.36,1.22-2.09,1.17-2.75-.05-1.09-1.47-1.62-.99-2.44.18-.32.53-.41,1.24-.17,1.43.45,2.29.65,3.34.8.39.06.59.09.84.23.41.24.55.66.22,1.23l-5.87,10.09c-1.27,2.18-1.25,4.48,1.03,5.81.92.53,2.08.79,3.28.47,1.85-.49,3.26-2.04,6.08-6.88.88-1.52,1.38-2.37,1.34-3.03-.08-1.1-1.47-1.62-1.03-2.38.2-.35.49-.48,1.28-.23,1.4.43,2.43.7,3.51.81.28.03.5.08.69.19.41.24.53.69.2,1.26l-6.24,10.72c-.79,1.36-1.22,2.09-1.19,2.78.04.95,1.47,1.62,1.05,2.35Z"/><path class="b" d="M93.19,211.91c.81.24.88,1.44,1.33,2.75.54,1.53,1.42,3.24,3.6,3.87,2.14.63,3.95-.33,4.41-1.91,1.35-4.6-9.45-5.36-7.62-11.61,1-3.41,4.83-4.77,8.69-3.64,1.72.5,3.25,1.41,3.88,2.24.72.93.6,2.12.34,3-.24.81-.63,2.03-1.65,1.73-.84-.25-.7-1-1.12-2.31-.4-1.22-1.11-2.58-2.87-3.09-1.48-.43-3.34.09-3.83,1.74-.64,2.18,1.82,3.43,4.13,5.06,2.28,1.58,4.43,3.51,3.49,6.7-.95,3.23-4.67,5-9.06,3.72-2.46-.72-4.51-2.2-5.15-3.38-.52-.95-.28-2.56.04-3.65.23-.77.58-1.47,1.39-1.23Z"/><path class="b" d="M122.46,220.8c-.05.55-.68,1.33-1.51,1.92-1.07.78-2.59,1.33-4.3,1.17-1.79-.17-3.03-1.02-3.79-2.31-.63-1.05-.78-2.57-.61-4.43.31-3.21.87-6.46,1.22-10.07.02-.25-.07-.37-.33-.4l-2.3-.22c-.26-.02-.39-.18-.36-.48l.11-1.17c.02-.22.14-.35.41-.4,1.64-.28,2.5-.72,3-1.4.51-.69.75-1.66,1.12-2.83.1-.28.22-.42.52-.39l1.49.14c.29.03.42.19.4.44l-.36,3.79c-.06.66.07.85.72.91.55.05,1.02.1,1.87.1.77,0,1.8-.01,2.57.06.8.08,1.15.29,1.1.77-.02.18-.11.43-.18.68-.23.86-.73,1.07-1.67.98-.66-.06-1.45-.25-2.32-.37-.73-.11-1.31-.16-1.96-.22-.29-.03-.45.1-.48.4-.05.47-.54,4.47-.64,5.56-.13,1.35-.24,2.55-.26,4.24-.02,2.9,1.11,3.82,2.53,3.95,1.89.18,2.72-1.17,3.41-1.11.36.03.63.32.6.68Z"/><path class="b" d="M138.81,205.95c.07.88-.16,1.7-1.11,1.77-.88.07-1.41-.7-2.51-.61-.69.05-1.43.44-1.98,1.44-.77,1.38-1.26,3.14-.84,8.58.14,1.79.3,2.99.73,3.69.76,1.26,1.95,1.02,2.01,1.83.04.51-.38.73-.97.77l-6.02.47c-.58.05-1.04-.1-1.08-.61-.06-.77,1.26-.83,1.74-2.19.24-.72.26-1.89.12-3.68l-.51-6.53c-.12-1.57-.34-2.43-.7-2.88-.73-.9-2.14-.64-2.2-1.44-.03-.4.17-.67.92-.88,1.18-.35,1.89-.66,2.92-1.22.32-.17.6-.27.86-.29.55-.04.87.3.92.96l.22,2.88c0,.07.01.15.08.14s.1-.12.13-.19c.64-1.63,2.44-4.08,4.77-4.26,1.42-.11,2.38.81,2.49,2.27Z"/><path class="b" d="M159.44,215.59c.32-.09.66.04.76.39.19.67-.52,2.28-2.07,2.73-1.16.34-2.66,0-3.48-2-.02-.07-.05-.18-.12-.16-.07.02-.06.06-.1.18-.72,2.26-2.63,3.81-4.81,4.44-3.41.99-6.1-.52-6.8-2.95-.41-1.41-.13-3.09,1.07-4.46,1.47-1.76,3.54-2.78,5.21-4.25,1.22-1.04,2.47-2.51,1.92-4.41-.49-1.69-2-2.55-3.89-2-2.11.61-2.8,2.3-3.32,3.78-.42,1.19-.34,1.85-1.11,2.08-.84.24-1.22-.52-1.48-1.44-.26-.91-.41-2.09-.15-2.74.59-1.51,3.3-2.82,5.3-3.4,4.5-1.3,7.55.56,8.56,4.04.79,2.74,1.63,6.01,2.44,8.82.36,1.23.94,1.67,1.64,1.47l.42-.12ZM152.24,209.25c-.02-.07-.08-.13-.15-.11s-.1.07-.21.21c-.96,1.31-3.1,2.58-4.46,4.19-1.02,1.21-1.2,2.44-.91,3.43.41,1.41,1.72,2.4,3.59,1.86,1.37-.4,2.73-1.63,3.07-3.6.28-1.68-.14-3.24-.76-5.38l-.17-.6Z"/><path class="b" d="M169.6,210.12c1.16.85,2.21.24,2.56.93.23.46-.11.83-.6,1.08l-5.46,2.74c-.49.25-.97.28-1.2-.18-.35-.69.78-1.29.78-2.6,0-.82-.48-1.93-1.28-3.53l-6.44-12.82c-.71-1.41-1.08-2.16-1.67-2.52-.36-.23-.85-.23-1.42-.14-.54.07-.95.07-1.11-.26-.16-.33-.16-.65.54-1.21,1.08-.87,1.86-1.59,2.63-2.51.18-.21.34-.38.54-.48.39-.2.82-.08,1.11.51l8.97,17.86c.82,1.64,1.41,2.65,2.07,3.14Z"/><path class="b" d="M167.13,188.75c-.7.47-3.16-.04-3.61-.7-.47-.7-.02-3.17.68-3.64.7-.47,3.16.04,3.63.73.45.67,0,3.14-.7,3.61ZM179.95,203.72c1.26.69,2.22-.04,2.65.6.29.42,0,.84-.46,1.15l-5.07,3.42c-.46.31-.92.4-1.21-.02-.43-.64.61-1.38.44-2.68-.11-.81-.72-1.85-1.72-3.34l-3.64-5.4c-.88-1.31-1.35-2-1.98-2.28-.39-.18-.87-.12-1.43.04-.53.13-.93.19-1.14-.12-.2-.3-.25-.63.38-1.27.96-1,1.65-1.81,2.29-2.82.15-.23.29-.42.47-.54.36-.25.8-.19,1.17.36l6.79,10.08c1.02,1.52,1.74,2.45,2.45,2.85Z"/><path class="b" d="M197.05,189.26c.24-.23.6-.27.85-.01.48.5.61,2.26-.55,3.38-.87.84-2.35,1.26-4.01-.14-.05-.05-.13-.13-.18-.08-.05.05-.03.08,0,.21.43,2.34-.54,4.6-2.17,6.18-2.55,2.47-5.63,2.39-7.39.58-1.02-1.05-1.56-2.67-1.14-4.45.48-2.24,1.83-4.11,2.61-6.19.59-1.49,1.01-3.37-.36-4.79-1.22-1.26-2.95-1.32-4.38.06-1.58,1.53-1.4,3.34-1.17,4.9.19,1.25.57,1.8-.01,2.36-.63.61-1.32.11-1.98-.58-.66-.68-1.34-1.65-1.41-2.35-.18-1.61,1.59-4.04,3.09-5.49,3.37-3.26,6.94-3.04,9.46-.44,1.98,2.05,4.25,4.55,6.28,6.65.89.92,1.61,1.04,2.14.53l.32-.31ZM187.72,187.04c-.05-.05-.13-.08-.18-.03-.05.05-.05.1-.08.28-.23,1.6-1.54,3.73-1.99,5.79-.34,1.55.08,2.72.8,3.46,1.02,1.05,2.64,1.31,4.04-.04,1.03-.99,1.65-2.72,1.03-4.62-.54-1.61-1.64-2.8-3.19-4.4l-.43-.45Z"/><path class="b" d="M91.05,68.91c1.26.4,1.96-.3,2.42.27.32.4.06.84-.37,1.18l-4.72,3.76c-.46.37-.92.5-1.23.1-.48-.6.48-1.22.24-2.63-.14-.82-.86-1.84-2-3.27l-3.56-4.46c-1.53-1.92-3.65-2.94-5.86-1.18-.83.66-1.49,1.65-1.6,2.87-.14,1.94,1,3.6,4.49,7.98,1.28,1.6,2.21,2.59,2.96,2.83,1.15.39,1.85-.21,2.26.31.32.4.09.82-.37,1.18l-4.46,3.56c-.43.34-.89.47-1.21.07-.46-.57.35-1.03.2-2.27-.09-.82-.8-1.89-2.1-3.52l-3.49-4.38c-2.03-2.55-3.95-2.84-5.75-1.41-.8.64-1.46,1.63-1.59,2.81-.23,2.01.77,3.79,4.28,8.19,1.19,1.49,2.07,2.42,2.82,2.71,1.15.44,2.11-.23,2.54.31.32.4.06.84-.37,1.18l-4.72,3.76c-.43.34-.92.5-1.21.12-.48-.6.47-1.35.22-2.66-.15-.77-.86-1.84-2-3.27l-4.08-5.12c-.98-1.23-1.51-1.89-2.13-2.09-1.08-.36-2.02.81-2.57.13-.25-.31-.27-.63.25-1.27.88-1.07,1.54-2.07,2.03-2.97.16-.27.29-.46.46-.6.37-.3.78-.25,1.19.27l1.41,1.77c.07.09.12.09.18.05.06-.05.04-.13.03-.26-.16-2.02.48-4.45,2.62-6.16,2.26-1.8,4.6-1.56,6.18-.76.07.03.15.07.21.02s.04-.13.03-.26c-.16-2.08.45-4.48,2.6-6.19,1.63-1.3,3.44-1.67,5.19-1.19,1.26.35,2.44,1.19,4.02,3.16l3.63,4.55c1.28,1.6,2.14,2.51,2.94,2.75Z"/><path class="b" d="M110.4,61.77c.31-.11.66,0,.78.35.23.66-.39,2.31-1.91,2.84-1.14.4-2.66.16-3.58-1.8-.02-.07-.06-.17-.13-.15-.07.02-.06.06-.09.19-.59,2.3-2.41,3.95-4.55,4.71-3.35,1.18-6.11-.18-6.95-2.56-.49-1.38-.31-3.07.82-4.52,1.37-1.84,3.38-2.97,4.96-4.54,1.16-1.11,2.33-2.64,1.67-4.51-.58-1.66-2.14-2.43-4-1.77-2.07.73-2.67,2.45-3.11,3.96-.35,1.21-.24,1.87-1,2.13-.83.29-1.25-.45-1.56-1.35-.32-.9-.53-2.06-.3-2.73.51-1.54,3.13-3,5.1-3.7,4.42-1.55,7.57.13,8.77,3.55.95,2.69,1.96,5.91,2.93,8.67.43,1.21,1.03,1.62,1.72,1.37l.41-.15ZM102.85,55.85c-.02-.07-.08-.13-.15-.1-.07.02-.09.07-.19.22-.88,1.36-2.95,2.75-4.22,4.43-.95,1.27-1.06,2.51-.72,3.47.49,1.38,1.86,2.3,3.69,1.65,1.35-.47,2.63-1.78,2.87-3.76.18-1.69-.32-3.22-1.06-5.33l-.21-.59Z"/><path class="b" d="M129.16,57.49c.05.95.12,1.68.36,2.11.6.96,2.23.7,2.27,1.5.02.37-.15.67-.98.89-1.37.4-2.38.78-3.24,1.19-.39.2-.61.25-.83.26-.48.02-.78-.22-.81-.91l-.1-1.97c0-.18-.12-.29-.23-.28-.07,0-.14.04-.25.16-1.37,1.86-3.47,3.25-5.84,3.37-3.51.17-7.63-2.3-7.94-8.62-.27-5.41,2.75-11.06,8.2-11.33,1.75-.09,3.43.38,4.9,1.22.11.07.19.1.26.1.11,0,.14-.08.14-.19l-.17-3.47c-.05-.95-.12-1.72-.51-2.17-.74-.84-2.08-.59-2.12-1.4-.02-.37.12-.63.98-.85,1.34-.36,2.2-.7,3.28-1.19.29-.12.5-.24.79-.26.44-.02.78.25.81.91l1.04,20.95ZM125.48,53.35c-.25-5.04-2.55-7.79-5.62-7.64-3.84.19-4.95,4.35-4.77,7.97.21,4.31,2.5,7.61,5.68,7.45,3.22-.16,4.93-3.25,4.71-7.78Z"/><path class="b" d="M148.61,62.99c-.24,1-3.72,3.59-8.45,2.45-5.45-1.3-7.63-6.34-6.46-11.22,1.24-5.2,6.15-9.33,11.67-8.01,5.13,1.23,6.26,5.9,5.67,8.4-.52,2.17-1.66,2.24-3.42,1.85,0,0-9.4-2.25-9.65-2.31s-.42.01-.48.26l-.04.18c-.9,3.74.44,7.59,4.21,8.5,3.49.84,5.49-1.24,6.35-1.04.43.1.72.44.6.94ZM138.19,52.1c-.04.18.02.23.23.28.25.06,5.8,1.39,5.8,1.39,2.06.49,3.09.29,3.48-1.35.39-1.64-.56-3.94-3.09-4.54-2.85-.68-5.24,1.3-6.3,3.84-.1.28-.12.35-.13.38Z"/><path class="b" d="M162.77,72.43c-.15,1.43.9,2.03.48,2.68-.28.43-.78.32-1.24.02l-5.12-3.34c-.46-.3-.73-.69-.45-1.12.42-.64,1.51.03,2.64-.63.71-.41,1.43-1.38,2.41-2.89l3.56-5.45c.86-1.32,1.32-2.02,1.33-2.71.02-.43-.23-.85-.59-1.3-.33-.43-.54-.79-.34-1.09.2-.31.48-.47,1.32-.14,1.29.5,2.31.81,3.49,1.01.27.05.5.11.68.23.37.24.48.67.12,1.22l-6.64,10.17c-1,1.53-1.58,2.55-1.67,3.37ZM171.57,54.79c-.7-.46-1.2-2.92-.76-3.6.46-.7,2.91-1.25,3.62-.79.7.46,1.2,2.92.74,3.63-.44.67-2.89,1.22-3.6.76Z"/><path class="b" d="M181.79,85.24c-1.38,1.31-2.32,2.34-2.52,3.14-.26,1.11.43,2.06-.05,2.51-.37.35-.83.13-1.21-.27l-4.22-4.47c-.38-.4-.57-.87-.2-1.22.53-.5,1.41.38,2.64.02.76-.21,1.79-1.04,3.12-2.29l4.15-3.92c2.32-2.19,2.17-4.37.69-5.94-.75-.8-1.85-1.37-3.09-1.41-1.97-.06-3.63,1.06-7.73,4.93-1.36,1.28-2.27,2.29-2.5,3.06-.34,1.18.38,2.11-.1,2.56-.37.35-.81.16-1.18-.24l-4.17-4.42c-.38-.4-.55-.84-.17-1.2.56-.53,1.49.41,2.72,0,.76-.26,1.74-1.04,3.04-2.27l5.19-4.9c.85-.8,1.31-1.28,1.43-1.85.24-1.03-.95-2.02-.37-2.57.29-.28.6-.32,1.32.17,1.14.78,2.16,1.33,3.14,1.72.26.11.46.22.61.38.33.35.31.81-.19,1.29l-1.57,1.48c-.08.08-.11.15-.06.21s.13.03.26,0c2-.33,4.5.13,6.39,2.12,1.43,1.52,1.95,3.4,1.64,5.04-.25,1.34-.9,2.56-2.76,4.32l-4.23,4Z"/><path class="b" d="M148.89,153.32c-1.31,0-2.56-.5-3.53-1.41l-.77.5c-1.63,1.07-3.76,1.12-5.44.11l-4.91-2.89c-1.17-.68-2.01-1.79-2.36-3.11l-.92-3.59-.3-.29c-.39-.38-.71-.82-.96-1.31-.74.34-1.56.51-2.4.49h-.05c-1.69-.1-3.22-1.01-4.1-2.44l-2.25-3.68c-.7-.47-2.45-1.29-5.26-.49l-2.69,1.76c-1.28.83-2.86,1.04-4.29.62l-1.67,2.18c-1.18,1.54-3.18,2.29-5.08,1.91l-3.74-.74-1.77,1.73c-1.55,1.55-3.91,1.93-5.89.95l-2.75-1.35c-2.15-1.04-3.29-3.48-2.71-5.81l.69-2.68-3.34-7.68c-.29-.64-.43-1.33-.43-2.03v-8.39c0-.52.08-1.05.25-1.58v-.04s1-2.9,1-2.9c.45-1.29,1.36-2.34,2.58-2.94l4.34-2.12c.47-.25.92-.37,1.27-.44h.04s5.14-1.02,5.14-1.02c1.61-2.06,6.54-8.25,10.17-11.38,1.91-1.64,4.76-1.62,6.67-.03l.09-.25c.39-1.18,1.2-2.17,2.27-2.79,2.07-1.18,7.7-3.66,15.23-1.18.91.29,1.63.96,2,1.83.39.88.35,1.92-.1,2.79l-1.43,2.8,1.94,1.58,2.6-9.35c.35-1.32,1.54-2.3,2.94-2.4h.06c1.39-.07,2.69.75,3.22,2.04l1.87,4.6c1.17.31,2.56,1.01,3.76,2.52,1.44,1.83,2.27,4.5,2.46,7.93,1.61,1.24,4.09,3.43,6.06,6.33,1.63,2.38,4.62,4.95,5.83,5.94,1.67,1.35,2.63,3.36,2.63,5.51v6.83c0,.68-.14,1.36-.42,2.01l-3.66,8.41c-.26.6-.63,1.14-1.11,1.61l-1.39,1.36v2.07c0,.8-.19,1.59-.55,2.3l-2.1,4.12c-.62,1.22-1.68,2.13-2.98,2.54l-2.14.7c-.51.17-1.06.26-1.62.26ZM145.54,147.56c.61,0,1.22.23,1.71.66l.05.05.77.75c.23.22.52.34.82.34.14,0,.26-.02.38-.06l2.18-.72c.29-.09.52-.29.66-.56l2.1-4.12c.08-.15.12-.33.12-.51v-2.69c0-.67.27-1.32.75-1.77l1.83-1.79c.11-.11.19-.22.24-.35l3.66-8.4c.06-.14.1-.3.1-.45v-6.83c0-.95-.43-1.84-1.17-2.45-1.67-1.37-4.75-4.07-6.6-6.78-1.96-2.9-4.65-5.03-5.71-5.81-.62-.46-.98-1.16-.99-1.94-.14-4.55-1.45-7.21-3.67-7.51-.88-.11-1.63-.67-1.98-1.5l-1.45-3.55-2.69,9.7c-.24.78-.82,1.37-1.6,1.63l-.06.02c-.81.25-1.69.07-2.34-.48l-4.64-3.79c-.82-.74-1.06-1.93-.6-2.91l.02-.04,1.62-3.18c-5.64-1.59-9.73.21-11.28,1.09-.22.13-.4.34-.48.59v.03s-.71,2.04-.71,2.04c-.33,1-1.28,1.68-2.36,1.68h-.55c-.68,0-1.31-.26-1.79-.74l-.92-.91c-.43-.42-1.15-.45-1.61-.06-3.74,3.22-9.34,10.43-9.96,11.25l-.1.12c-.38.42-.87.7-1.42.8l-5.62,1.1c-.17.04-.23.06-.24.07l-.08.04-4.37,2.14c-.27.13-.48.37-.58.67l-.97,2.86c-.04.14-.06.26-.06.37v8.39c0,.14.03.29.1.43l3.6,8.28c.18.49.21.99.08,1.47l-.81,3.17c-.12.5.13,1.05.6,1.28l2.77,1.36c.46.23.99.15,1.33-.2l.02-.02,2.4-2.35c.56-.49,1.31-.72,2.06-.62l.12.02,4.49.88c.43.09.9-.09,1.16-.43l2.33-3.04c.69-.93,1.96-1.26,3.02-.79h.04s.38.2.38.2c.37.18.82.15,1.17-.08l2.93-1.91c.28-.16.46-.22.52-.24l.05-.02c5.14-1.57,8.41.58,9.29,1.27l.09.07.08.08c.11.11.27.28.4.52l2.38,3.88c.2.32.54.52.93.55.42,0,.79-.17,1.02-.46l.02-.02c.6-.76,1.56-1.11,2.49-.9.93.18,1.67.87,1.91,1.8l.27,1.04c.05.19.14.36.29.5l.71.7.08.11c.24.31.4.64.47.97l1.01,3.93c.08.29.26.54.53.69l4.94,2.91c.38.23.88.22,1.24-.02l1.81-1.18c.41-.24.86-.37,1.31-.37ZM97.11,104.53s-.01,0-.02,0h.02ZM135.13,99.39l.02.02s-.01-.01-.02-.02ZM112.83,94.98s0,.02,0,.03v-.03ZM114.65,94.39l.02.02s-.01-.01-.02-.02ZM129.79,92.76s0,0,0,0c0,0,0,0,0,0ZM143.25,92.71s.02,0,.03,0c0,0-.02,0-.03,0ZM139.85,89.69v.02s0-.01,0-.02Z"/><path class="b" d="M146.63,166.74h-.4c-.85,0-1.67-.31-2.3-.86l-1.32-1.17c-.7-.62-1.1-1.5-1.1-2.42v-.58l-1.31-1.74c-.43-.57-.65-1.24-.65-1.93,0-1.05.5-2.02,1.38-2.64.93-.66,2.13-.82,3.2-.44l2.54.91.11-.05v-.02l.83-.36c1.23-.54,2.68-.33,3.7.54l.02.02c.95.83,1.32,2.1.99,3.3l-.32,1.15c-.16.58-.49,1.12-.97,1.55l-.98.86v.61c0,1.81-1.53,3.28-3.41,3.28ZM142.95,157.53c-.15,0-.3.05-.43.14-.08.06-.21.18-.21.38,0,.1.03.18.1.27l1.87,2.47v1.5c0,.12.06.25.17.34l1.32,1.17c.12.1.29.17.47.17h.4c.35,0,.64-.23.64-.51v-1.86l1.91-1.67c.06-.06.12-.14.14-.21l.33-1.16c.05-.17,0-.34-.14-.47-.19-.16-.45-.21-.69-.14l-.09.04-1.41.63c-.39.15-.82.15-1.2,0l-2.91-1.04c-.08-.03-.16-.04-.24-.04Z"/><path class="b" d="M204.57,185.12c-.46,0-.92-.14-1.31-.42-1.02-.73-1.25-2.14-.53-3.16,11.61-16.24,17.75-35.42,17.75-55.46s-6.14-39.21-17.75-55.45c-8.66-12.12-20.19-22.18-33.34-29.09-13.58-7.15-28.93-10.92-44.39-10.92s-30.8,3.78-44.39,10.92c-13.15,6.92-24.68,16.98-33.34,29.1-11.61,16.24-17.75,35.42-17.75,55.45s6.14,39.21,17.75,55.45c.73,1.02.49,2.43-.52,3.16-1.02.73-2.43.49-3.16-.53-12.16-17.01-18.59-37.1-18.59-58.09s6.43-41.07,18.59-58.08c9.07-12.69,21.14-23.23,34.91-30.47,14.23-7.49,30.31-11.44,46.49-11.44s32.26,3.96,46.49,11.44c13.77,7.25,25.85,17.78,34.92,30.47,12.16,17.02,18.59,37.1,18.59,58.09s-6.43,41.07-18.59,58.09c-.44.62-1.14.95-1.84.95Z"/></svg>