<?xml version="1.0" encoding="UTF-8"?><svg id="a" xmlns="http://www.w3.org/2000/svg" viewBox="0 0 250 250"><defs><style>.b{fill:#e7e4ca;}</style></defs><path class="b" d="M161,107.83c-2.01-7.05-6.08-13.27-11.46-17.53-.39-.31-.87-.48-1.37-.49-6.83-.1-13.86,2.15-19.79,6.37-6.24,4.43-10.98,10.71-13.71,18.15-.75,2.05-1.32,4.14-1.69,6.24-3.03-3.25-6.77-5.6-10.93-6.84-4.54-1.36-9.35-1.29-13.55.21-.47.17-.87.48-1.14.9-2.43,3.75-3.64,8.44-3.41,13.2.24,4.99,1.99,9.8,5.08,13.91,4.54,6.05,11.53,9.47,18.53,9.47,1.89,0,3.78-.25,5.62-.76l9.11,11.79.06.08s.06.07.09.1.06.07.09.1c.06.06.13.12.19.18.03.03.07.05.1.08.04.02.07.05.11.07.04.02.07.05.11.07.03.02.06.03.09.05.01,0,.02.01.04.02.03.02.07.03.1.05.04.02.08.03.12.05.02,0,.05.02.07.02.04.02.09.03.14.04.05.01.11.02.16.03h0s.1.02.15.02c.03,0,.06,0,.1,0,.04,0,.08,0,.13,0,.17,0,.35-.02.52-.06.05,0,.09-.02.14-.04.01,0,.02,0,.04-.01.04-.01.07-.02.11-.04.02,0,.04-.01.05-.02.04-.01.07-.03.11-.05.02,0,.04-.02.06-.03.02-.01.05-.02.07-.04.04-.02.09-.05.13-.07.05-.03.11-.07.16-.11.03-.02.06-.05.09-.07.13-.11.24-.23.34-.36.03-.04.06-.08.09-.12.03-.05.06-.1.09-.15.03-.05.05-.1.08-.16.03-.05.05-.11.07-.17h0s2.29-6.58,2.29-6.58c14.21-.31,27.17-10.23,31.9-24.63,2.47-7.53,2.66-15.43.55-22.85ZM114.79,140.21c-.22,1.28-.59,2.52-1.09,3.72l-13.87-17.97c-.77-.99-2.19-1.17-3.18-.41-.99.77-1.17,2.19-.41,3.18l13.87,17.96c-6.4,1-13.23-1.81-17.46-7.46-2.54-3.38-3.98-7.33-4.18-11.41-.17-3.54.64-7.01,2.29-9.86,3.12-.93,6.64-.9,9.99.1,3.88,1.16,7.32,3.52,9.97,6.8.62.78,1.18,1.59,1.67,2.43,2.33,3.99,3.15,8.62,2.39,12.92ZM123.37,156.45l-6.6-8.54c.34-.6.65-1.2.92-1.82,1.78,2.88,3.99,5.49,6.6,7.71l-.92,2.66ZM156.15,129.26c-2.19,6.66-6.28,12.24-11.84,16.15-4.28,3.01-9.21,4.83-14.15,5.27l12.62-36.32c.41-1.18-.22-2.47-1.39-2.88-1.18-.41-2.47.22-2.88,1.4l-12.6,36.26c-2.71-2.65-4.92-5.91-6.47-9.54.5-4.54-.35-9.26-2.52-13.48.11-3.44.78-6.89,2.01-10.23,2.42-6.58,6.59-12.12,12.08-16.02,4.93-3.5,10.69-5.45,16.33-5.53,4.34,3.66,7.64,8.86,9.31,14.74,1.87,6.54,1.7,13.52-.49,20.19Z"/><path class="b" d="M123.46,163.3s-.05-.01-.07-.02h0s.05.01.07.02Z"/><path class="b" d="M91.36,51.17c.21.34.06.65-.15,1.08-.87,1.65-.58,3.8-.32,5.62l2.03,13.97c.02.24-.1.4-.31.54l-1.62,1c-.25.15-.43.14-.68-.05l-11.34-8.92c-1.27-1.02-2.29-1.77-3.23-1.96-.92-.17-1.76.22-2.08-.31-.25-.41-.08-.77.63-1.21l5.11-3.15c.56-.35.98-.3,1.21.07.46.75-1.14,1.43-.31,2.77.25.41.74.92,1.66,1.64l8.39,6.57c.16.12.19.1.22.08s.04-.07.02-.18l-1.26-7.35c-.44-2.52-.81-4.1-1.36-5.01-1.06-1.71-2.39-.46-2.89-1.27-.27-.44,0-.82.54-1.15l4.43-2.73c.65-.4,1.09-.46,1.34-.05Z"/><path class="b" d="M112.84,60.09c.25.99-1.64,4.9-6.37,6.08-5.43,1.36-9.69-2.11-10.91-6.97-1.29-5.18,1.15-11.11,6.65-12.49,5.11-1.28,8.28,2.35,8.9,4.83.54,2.17-.44,2.75-2.18,3.22,0,0-9.38,2.34-9.62,2.4-.25.06-.36.2-.3.45l.04.18c.93,3.73,3.89,6.53,7.66,5.6,3.48-.87,4.3-3.64,5.15-3.85.43-.11.84.05.97.55ZM98.57,55.24c.04.18.12.2.34.14.25-.06,5.79-1.45,5.79-1.45,2.06-.51,2.88-1.17,2.47-2.8-.41-1.63-2.32-3.23-4.84-2.6-2.84.71-4.05,3.58-3.82,6.31.04.29.05.36.06.4Z"/><path class="b" d="M130.14,46.68c-.18,0-.55-.01-.55-.01.71,1.03.99,2.3,1.04,3.32.19,3.91-2.49,6.86-6.65,7.35-1.53.18-3.14.19-3.09,1.36.03.73.78,1.03,2.62,1.12,1.54.07,3.52-.02,5.36.15,2.61.28,4.18,1.67,4.28,3.75.19,3.98-3.77,6.23-9.11,6.48-3.22.15-5.73-.38-7.1-1.46-.99-.72-1.48-1.72-1.52-2.68-.1-2.12,1.75-3.24,2.7-3.28.55-.03.89.21.91.58.02.44-.58.94-.52,2.08.11,2.38,3.19,3.07,5.93,2.94,3.4-.16,5.9-1.56,5.81-3.47-.06-1.32-1.15-1.81-3.28-1.89-1.69-.07-3.99.04-5.69-.2-2.21-.3-3.33-1.49-3.4-2.84-.08-1.65,1.41-2.74,2.16-3.04.11-.04.11-.08.1-.11,0-.04-.04-.07-.11-.1-2.24-.96-3.92-2.96-4.05-5.78-.18-3.8,2.74-7.09,6.94-7.29,3.29-.16,4.84,1.53,5.68,1.49,1.1-.05.68-1.83,2.29-1.91.95-.05,1.53.51,1.57,1.46.06,1.24-.79,1.91-2.32,1.98ZM119.6,49.97c.11,2.3,1.34,5.69,4.22,5.55,2.27-.11,3.34-2.21,3.22-4.62-.11-2.3-1.44-5.57-4.22-5.44-2.23.11-3.34,2.14-3.23,4.52Z"/><path class="b" d="M149.49,65.09c.32.08.55.37.45.73-.18.67-1.62,1.69-3.18,1.28-1.17-.31-2.29-1.36-1.95-3.51.02-.07.05-.18-.02-.2-.07-.02-.08.02-.18.1-1.78,1.57-4.22,1.92-6.41,1.34-3.43-.91-4.96-3.58-4.31-6.02.37-1.42,1.47-2.72,3.21-3.28,2.17-.75,4.46-.56,6.65-.97,1.58-.26,3.41-.88,3.92-2.79.45-1.7-.4-3.21-2.31-3.71-2.12-.56-3.58.53-4.8,1.53-.97.8-1.24,1.41-2.02,1.21-.85-.22-.78-1.08-.53-2,.24-.92.72-2.01,1.28-2.42,1.28-.99,4.28-.72,6.3-.19,4.53,1.2,6.19,4.36,5.27,7.86-.73,2.76-1.69,5.99-2.44,8.82-.33,1.24-.05,1.92.66,2.1l.42.11ZM146.57,55.95c.02-.07,0-.15-.07-.17-.07-.02-.12,0-.29.08-1.49.63-3.99.61-5.98,1.3-1.5.51-2.28,1.48-2.55,2.47-.37,1.42.25,2.94,2.12,3.44,1.38.36,3.18,0,4.49-1.5,1.1-1.3,1.55-2.85,2.12-5.01l.16-.6Z"/><path class="b" d="M168.67,71.53c-1.01,1.61-1.66,2.85-1.65,3.67.02,1.14.94,1.88.59,2.44-.27.43-.77.34-1.24.04l-5.21-3.27c-.46-.29-.77-.7-.5-1.13.39-.62,1.46.01,2.56-.64.68-.39,1.47-1.45,2.45-3l3.03-4.84c1.69-2.7,1-4.77-.82-5.92-.93-.58-2.14-.86-3.35-.59-1.92.44-3.25,1.94-6.24,6.71-.99,1.58-1.62,2.79-1.65,3.59-.04,1.23.9,1.95.55,2.5-.27.43-.74.36-1.21.06l-5.15-3.23c-.47-.29-.74-.68-.47-1.11.41-.65,1.54.02,2.63-.68.67-.44,1.42-1.44,2.38-2.96l3.79-6.05c.62-.99.94-1.57.92-2.15-.03-1.06-1.43-1.72-1-2.4.21-.34.51-.46,1.32-.17,1.3.47,2.43.74,3.47.88.28.04.5.1.69.21.4.25.51.71.14,1.3l-1.15,1.83c-.06.09-.07.17,0,.21.06.04.13,0,.25-.06,1.86-.82,4.39-1.01,6.71.45,1.77,1.11,2.74,2.8,2.86,4.47.1,1.36-.23,2.71-1.59,4.88l-3.09,4.93Z"/><path class="b" d="M82.65,186.74c-.63.71-1.18,1-1.76.49-.85-.75.28-3.13-1.34-4.56-2.08-1.85-4.87.97-6.47,2.77-.17.19-.16.35.03.52.49.44,1.12,1,1.8,1.55.68.56,1.54,1.07,2.12,1.58.27.24.77.68.38,1.12-.15.16-.39.33-.57.47-.84.67-1.3.36-1.96-.22-.52-.46-1.02-1-1.65-1.61-.5-.49-.96-.9-1.4-1.29-.27-.24-.43-.23-.65.01l-6.34,7.15c-1.21,1.37-1.91,2.32-2.15,3.08-.44,1.37.62,2.11.09,2.72-.34.38-.82.2-1.23-.16l-4.52-4.01c-.44-.39-.65-.82-.31-1.2.56-.63,1.42.38,2.86-.3.7-.35,1.51-1.15,2.65-2.44l6.43-7.26c.15-.16.11-.29-.08-.46-.16-.15-1.7-1.51-1.7-1.51-.19-.17-.26-.37-.06-.59l.83-.93c.19-.22.38-.2.6,0,0,0,1.37,1.21,1.7,1.51.22.19.37.19.54,0,4.91-5.04,9.74-2.76,11.79-.94.74.66,1.2,1.35,1.34,2.02.19,1-.53,1.98-.99,2.5Z"/><path class="b" d="M89.53,198.9c-.46.75-1.13,1.29-1.94.79-.75-.46-.74-1.39-1.68-1.96-.59-.36-1.42-.48-2.45,0-1.44.67-2.86,1.81-5.7,6.47-.93,1.53-1.5,2.6-1.57,3.42-.12,1.47.98,1.97.57,2.66-.27.44-.74.37-1.24.06l-5.16-3.14c-.5-.3-.78-.69-.51-1.13.4-.66,1.51.06,2.69-.76.61-.44,1.31-1.38,2.25-2.92l3.41-5.6c.82-1.34,1.15-2.17,1.12-2.75-.07-1.16-1.36-1.77-.94-2.46.21-.34.53-.45,1.26-.17,1.16.41,1.92.57,3.08.72.36.05.65.14.86.27.47.29.53.75.19,1.31l-1.5,2.47c-.04.06-.08.13-.01.16.06.04.15-.04.22-.08,1.48-.94,4.36-1.89,6.36-.67,1.22.74,1.46,2.04.69,3.29Z"/><path class="b" d="M91.6,215.09c.13,1.43,1.28,1.82.99,2.53-.19.48-.7.47-1.21.26l-5.67-2.29c-.51-.21-.85-.54-.66-1.01.29-.71,1.49-.27,2.47-1.13.61-.54,1.13-1.63,1.81-3.3l2.44-6.04c.59-1.46.9-2.24.78-2.92-.07-.42-.39-.79-.83-1.16-.41-.36-.68-.67-.54-1.01.14-.34.38-.56,1.27-.4,1.37.24,2.43.35,3.62.32.28,0,.51,0,.71.09.41.16.6.56.36,1.17l-4.55,11.27c-.69,1.7-1.06,2.81-.99,3.63ZM96.83,196.08c-.78-.32-1.74-2.64-1.44-3.38.32-.78,2.62-1.79,3.4-1.47.78.32,1.74,2.64,1.42,3.42-.3.75-2.6,1.75-3.38,1.44Z"/><path class="b" d="M113.47,219.44c-.21,1-3.62,3.69-8.38,2.69-5.48-1.15-7.8-6.13-6.77-11.04,1.1-5.23,5.89-9.5,11.44-8.33,5.16,1.09,6.42,5.73,5.9,8.24-.46,2.18-1.6,2.28-3.36,1.95,0,0-9.46-1.99-9.71-2.04-.25-.05-.42.02-.47.28l-.04.18c-.79,3.76.65,7.58,4.44,8.38,3.51.74,5.46-1.39,6.31-1.21.43.09.74.42.63.92ZM102.76,208.84c-.04.18.03.23.24.28.25.05,5.84,1.23,5.84,1.23,2.08.44,3.1.2,3.45-1.44.35-1.65-.67-3.92-3.21-4.45-2.87-.6-5.2,1.45-6.19,4.01-.1.28-.11.35-.12.39Z"/><path class="b" d="M136.76,216.91c.07,1.9.24,3.29.7,3.97.66.93,1.83,1.03,1.86,1.69.02.51-.45.71-1,.73l-6.14.24c-.55.02-1.03-.14-1.05-.66-.03-.73,1.21-.82,1.76-1.97.34-.71.4-2.03.33-3.86l-.22-5.71c-.12-3.18-1.86-4.51-4.02-4.42-1.1.04-2.25.49-3.1,1.4-1.34,1.44-1.59,3.43-1.37,9.06.07,1.87.23,3.21.66,3.89.66,1.04,1.84,1.1,1.86,1.76.02.51-.41.71-.96.73l-6.07.23c-.55.02-.99-.14-1.01-.66-.03-.77,1.29-.86,1.79-2.05.3-.74.36-1.99.29-3.78l-.27-7.13c-.05-1.17-.11-1.83-.45-2.29-.62-.86-2.15-.61-2.18-1.42-.02-.4.16-.67.99-.88,1.34-.34,2.43-.75,3.36-1.23.25-.12.47-.2.69-.21.48-.02.82.3.84.99l.08,2.16c0,.11.04.18.12.18.07,0,.11-.08.18-.19,1.07-1.73,3.06-3.3,5.8-3.41,2.08-.08,3.84.77,4.88,2.08.85,1.07,1.34,2.37,1.43,4.93l.22,5.81Z"/><path class="b" d="M160.08,211.8c.28.91.54,1.6.88,1.95.82.78,2.34.11,2.58.88.11.35.02.68-.73,1.11-1.23.73-2.11,1.35-2.84,1.96-.33.29-.53.4-.74.46-.45.14-.81-.01-1.02-.68l-.59-1.89c-.05-.17-.19-.25-.3-.21-.07.02-.13.08-.2.22-.86,2.15-2.54,4.02-4.81,4.73-3.35,1.05-7.96-.31-9.85-6.35-1.62-5.17-.12-11.39,5.09-13.02,1.68-.53,3.41-.49,5.05-.05.13.04.21.05.28.03.1-.03.12-.11.08-.22l-1.04-3.32c-.28-.91-.55-1.63-1.04-1.98-.93-.63-2.16-.05-2.4-.82-.11-.35-.05-.64.74-1.07,1.2-.68,1.96-1.23,2.87-1.97.25-.19.42-.36.7-.45.42-.13.82.05,1.02.68l6.27,20.01ZM155.47,208.72c-1.51-4.82-4.42-6.9-7.36-5.98-3.67,1.15-3.7,5.45-2.62,8.91,1.29,4.12,4.33,6.74,7.37,5.78,3.07-.96,3.96-4.38,2.6-8.72Z"/><path class="b" d="M172.97,208.15c1.2.8,2.22.15,2.59.82.25.45-.08.84-.56,1.11l-5.35,2.97c-.48.27-.95.32-1.2-.13-.37-.67.73-1.33.67-2.63-.04-.82-.56-1.91-1.43-3.48l-6.96-12.55c-.76-1.38-1.17-2.11-1.78-2.45-.37-.21-.86-.19-1.43-.09-.54.09-.95.11-1.12-.21-.18-.32-.19-.65.49-1.23,1.04-.91,1.8-1.67,2.53-2.61.17-.22.33-.39.52-.5.38-.21.81-.12,1.13.46l9.69,17.48c.89,1.6,1.52,2.59,2.2,3.05Z"/><path class="b" d="M183.14,180.87c.51.62-.33,1.27-.37,2.72-.03,1.12.33,2.48.73,3.89.64,2.22,2.91,9.49,3.85,12.65.88,2.97,1.59,6.09.6,8.74-.39,1.03-.96,1.83-1.61,2.36-1.24,1.02-2.79,1.16-4-.32-.58-.71-.85-1.62-.18-2.18.82-.67,1.99.35,3.35-.76,1.33-1.09.92-3.26.58-4.83-.04-.16-.08-.27-.15-.35-.07-.08-.17-.15-.27-.21l-12.87-7.2c-1.53-.88-2.71-1.52-3.65-1.5-.78.03-1.41.54-1.85,0-.28-.34-.19-.75.44-1.26l4.61-3.78c.45-.37.9-.41,1.15-.09.56.68-.89,1.63.04,2.76.3.37.88.84,1.89,1.38l8.83,4.82c.17.1.2.12.25.08s.06-.1,0-.29l-2.17-6.74c-.76-2.31-1.23-3.63-1.83-4.37-1.25-1.53-2.41-.11-3.03-.87-.3-.37-.1-.82.41-1.23l3.93-3.23c.57-.46.99-.58,1.3-.21Z"/><path class="b" d="M199.92,191.03c-.51,0-1.03-.17-1.45-.53-.96-.8-1.08-2.23-.28-3.19,7.06-8.41,12.56-17.88,16.36-28.12,3.93-10.61,5.93-21.77,5.93-33.19s-1.99-22.59-5.93-33.19c-3.8-10.25-9.31-19.71-16.37-28.12-18.21-21.71-44.88-34.16-73.18-34.16-14.72,0-28.83,3.26-41.95,9.69-12.51,6.13-23.75,15.12-32.5,26.01-6.67,8.3-11.87,17.56-15.44,27.54-3.7,10.32-5.58,21.17-5.58,32.24s1.88,21.92,5.58,32.24c3.58,9.97,8.77,19.24,15.44,27.54.78.97.63,2.4-.35,3.18-.97.78-2.4.63-3.18-.35-6.99-8.69-12.43-18.4-16.18-28.84-3.88-10.81-5.84-22.17-5.84-33.76s1.97-22.95,5.84-33.76c3.75-10.45,9.19-20.15,16.18-28.84,9.17-11.4,20.94-20.82,34.04-27.24,13.74-6.73,28.53-10.15,43.94-10.15,29.64,0,57.58,13.04,76.65,35.77,7.39,8.81,13.16,18.72,17.14,29.46,4.12,11.11,6.21,22.81,6.21,34.77s-2.09,23.66-6.21,34.77c-3.98,10.74-9.75,20.65-17.14,29.46-.45.53-1.09.81-1.74.81Z"/></svg>