<?xml version="1.0" encoding="UTF-8"?><svg id="a" xmlns="http://www.w3.org/2000/svg" viewBox="0 0 250 250"><defs><style>.b{fill:#e7e4ca;}</style></defs><path class="b" d="M168.18,129.59c-.52-.24-1.34-.56-2.37-.7.08-.92.13-1.85.15-2.79,0-.61-.23-1.19-.65-1.63-.43-.43-1.01-.68-1.62-.68h-59.06c-.74-5.4-.28-10.87,1.43-16.02,2.67-8.07,8.23-14.59,15.26-17.89,1.01-.47,1.52-1.61,1.21-2.68-.31-1.07-1.35-1.75-2.45-1.62-5.38.66-9.67,2.31-12.31,3.57-9.82,4.67-17.28,12.84-21.02,23.01-3.75,10.19-3.3,21.21,1.24,31.02,4.54,9.8,12.63,17.23,22.77,20.92,4.51,1.64,9.18,2.46,13.85,2.46,5.89,0,11.76-1.3,17.27-3.88,1.16-.54,2.28-1.11,3.42-1.78.16-.05.32-.13.48-.22,6.7-4.15,12.18-10.01,15.58-16.62.02.01.05.02.07.04,1.09.51,2.25.77,3.41.77.92,0,1.84-.16,2.74-.49,2.01-.73,3.61-2.2,4.5-4.14,1.84-3.98.1-8.76-3.88-10.65ZM112.31,159.85c-9-3.28-16.18-9.87-20.21-18.57-4.04-8.71-4.43-18.49-1.1-27.55,3.25-8.83,9.66-15.98,18.1-20.18-3.21,3.61-5.74,7.97-7.34,12.81-2.13,6.45-2.55,13.33-1.29,20.05,0,.01,0,.02,0,.03,0,.04.02.09.02.13.61,3.17,1.59,6.3,2.94,9.33,4.34,9.75,12.12,17.12,21.91,20.77,4.5,1.67,9.19,2.44,13.76,2.29-8.55,3.76-18.03,4.08-26.8.89ZM158.01,140.57l-.02.05c-1.9,4.16-4.73,8.03-8.24,11.33-6.83,3.16-15.14,3.34-22.83.47-8.64-3.22-15.51-9.74-19.35-18.36-.84-1.88-1.51-3.79-2.03-5.74h55.77c-.35,4.19-1.46,8.3-3.3,12.25ZM167.96,138.34c-.39.84-1.08,1.47-1.94,1.79-.87.32-1.82.27-2.67-.12-.05-.02-.09-.04-.14-.07.84-2.15,1.49-4.34,1.95-6.56.01,0,.02,0,.04,0,.48.06.86.22,1.05.3,1.75.83,2.53,2.92,1.72,4.66Z"/><path class="b" d="M131.73,120.7c-1.25,0-2.26-1.01-2.26-2.26,0-1.1-.3-1.53-.84-2.32-.69-1-1.63-2.38-1.63-4.88s.94-3.87,1.63-4.88c.54-.79.84-1.22.84-2.32s-.3-1.53-.84-2.32c-.69-1-1.63-2.38-1.63-4.88,0-1.25,1.01-2.26,2.26-2.26s2.26,1.01,2.26,2.26c0,1.1.3,1.53.84,2.32.69,1,1.63,2.38,1.63,4.88s-.94,3.87-1.63,4.88c-.54.79-.84,1.22-.84,2.32s.3,1.53.84,2.32c.69,1,1.63,2.38,1.63,4.88,0,1.25-1.01,2.26-2.26,2.26Z"/><path class="b" d="M144.21,120.7c-1.25,0-2.26-1.01-2.26-2.26,0-1.1-.3-1.53-.84-2.32-.69-1-1.63-2.38-1.63-4.88s.94-3.87,1.63-4.88c.54-.79.84-1.22.84-2.32s-.3-1.53-.84-2.32c-.69-1-1.63-2.38-1.63-4.88,0-1.25,1.01-2.26,2.26-2.26s2.26,1.01,2.26,2.26c0,1.1.3,1.53.84,2.32.69,1,1.63,2.38,1.63,4.88s-.94,3.87-1.63,4.88c-.54.79-.84,1.22-.84,2.32s.3,1.53.84,2.32c.69,1,1.63,2.38,1.63,4.88,0,1.25-1.01,2.26-2.26,2.26Z"/><path class="b" d="M35.17,165.72c-1.85-4.26-.27-8.98,4.77-11.17,5.2-2.26,11.7-.89,14.14,4.71.58,1.34,1.09,3.44.57,4.7-.28.72-1.17,1.26-1.97,1.61-1.58.69-2.19.55-2.47-.08-.34-.77.4-1.29,1.02-2.16.62-.87,1.41-2.45.64-4.23-1.14-2.62-4.65-3.73-8.91-1.87-3.69,1.6-6.51,4.86-4.85,8.69,1.3,2.99,4.04,3.15,4.38,3.92.16.37-.04.74-.38.88-.91.39-5-.58-6.93-5.01Z"/><path class="b" d="M53.07,189.41c.2.26.2.63-.1.85-.56.42-2.32.31-3.28-.98-.72-.97-.94-2.49.66-3.96.06-.04.15-.11.1-.17-.04-.06-.07-.04-.2-.03-2.37.12-4.49-1.13-5.85-2.95-2.12-2.85-1.65-5.89.38-7.4,1.17-.87,2.84-1.21,4.55-.56,2.16.76,3.84,2.34,5.81,3.39,1.4.78,3.22,1.44,4.8.26,1.41-1.05,1.69-2.76.5-4.35-1.31-1.76-3.13-1.82-4.71-1.79-1.26.03-1.85.33-2.33-.31-.52-.7.06-1.32.83-1.89.76-.57,1.81-1.12,2.51-1.1,1.62.03,3.8,2.1,5.05,3.77,2.8,3.76,2.13,7.27-.78,9.43-2.29,1.71-5.06,3.63-7.4,5.38-1.03.77-1.23,1.47-.8,2.05l.26.35ZM56.48,180.44c.06-.04.1-.12.05-.18s-.1-.07-.27-.12c-1.56-.44-3.5-2-5.49-2.71-1.49-.53-2.71-.26-3.53.35-1.17.87-1.64,2.45-.48,4.01.85,1.14,2.48,1.98,4.45,1.62,1.67-.33,2.98-1.26,4.77-2.6l.5-.37Z"/><path class="b" d="M81.8,185.65c-.58.75-1.12,1.08-1.72.61-.9-.7.08-3.14-1.63-4.46-2.2-1.71-4.8,1.28-6.28,3.19-.16.2-.14.36.06.51l6.36,4.94c.23.18.39.16.54-.04,4.57-5.35,9.54-3.39,11.71-1.7.78.61,1.28,1.27,1.47,1.93.25.99-.4,2.01-.83,2.56-.58.75-1.12,1.08-1.72.61-.9-.7.08-3.14-1.63-4.46-2.2-1.71-4.8,1.28-6.28,3.19-.16.2-.14.36.06.51.52.4,1.18.92,1.9,1.43.72.51,1.61.97,2.22,1.44.29.22.81.63.45,1.09-.13.17-.37.36-.54.51-.8.73-1.27.45-1.97-.09-.55-.43-1.08-.93-1.75-1.5-.53-.46-1.02-.84-1.48-1.2-.29-.22-.44-.21-.65.05l-5.86,7.54c-1.12,1.44-1.76,2.44-1.94,3.22-.35,1.4.76,2.07.26,2.71-.31.4-.8.26-1.24-.08l-4.77-3.71c-.46-.36-.7-.77-.38-1.18.52-.66,1.44.29,2.83-.49.68-.4,1.43-1.25,2.49-2.61l5.95-7.66c.13-.17.09-.3-.11-.46l-6.27-4.87c-.29-.22-.44-.21-.65.05l-5.86,7.54c-1.12,1.44-1.76,2.44-1.94,3.22-.35,1.4.76,2.07.26,2.71-.31.4-.8.26-1.24-.08l-4.77-3.71c-.46-.36-.7-.77-.38-1.18.52-.66,1.44.29,2.83-.49.68-.4,1.43-1.25,2.49-2.61l5.95-7.66c.13-.17.09-.3-.11-.46l-1.79-1.39c-.2-.16-.28-.36-.1-.59l.76-.98c.18-.23.36-.23.59-.05l1.79,1.39c.23.18.39.16.54-.04,4.57-5.35,9.54-3.39,11.71-1.7.78.61,1.28,1.27,1.47,1.93.25.99-.4,2.01-.83,2.56Z"/><path class="b" d="M96.6,215.87c-.39.95-4.24,2.96-8.73,1.09-5.17-2.14-6.53-7.46-4.61-12.09,2.05-4.94,7.54-8.25,12.78-6.07,4.87,2.02,5.26,6.81,4.28,9.18-.85,2.06-2,1.95-3.67,1.29,0,0-8.93-3.7-9.16-3.8-.24-.1-.41-.05-.51.18l-.07.17c-1.47,3.55-.76,7.57,2.82,9.05,3.31,1.37,5.62-.36,6.43-.03.41.17.65.54.45,1.02ZM88.03,203.48c-.07.17-.02.23.19.31.24.1,5.51,2.28,5.51,2.28,1.96.81,3.01.77,3.65-.78.64-1.56.06-3.98-2.34-4.97-2.7-1.12-5.38.46-6.82,2.8-.15.26-.17.32-.19.36Z"/><path class="b" d="M106.86,219.44c.37,1.39,1.57,1.58,1.4,2.33-.11.5-.61.58-1.15.46l-5.97-1.3c-.54-.12-.93-.39-.82-.89.16-.75,1.42-.51,2.25-1.53.51-.64.84-1.8,1.23-3.55l1.39-6.36c.34-1.54.52-2.36.28-3.01-.14-.4-.52-.71-1.02-1.01-.46-.29-.78-.55-.7-.9.08-.36.28-.61,1.18-.6,1.39,0,2.45-.06,3.62-.29.27-.05.5-.08.72-.03.43.09.69.45.55,1.09l-2.59,11.87c-.39,1.79-.57,2.95-.37,3.74ZM108.82,199.83c-.82-.18-2.16-2.31-1.98-3.09.18-.82,2.28-2.2,3.1-2.02.82.18,2.16,2.31,1.98,3.13-.17.79-2.27,2.16-3.09,1.98Z"/><path class="b" d="M131.71,217.47c-.03,1.9.06,3.3.49,4,.61.96,1.78,1.13,1.77,1.78,0,.51-.49.69-1.04.68l-6.15-.1c-.55,0-1.02-.2-1.01-.71.01-.73,1.26-.75,1.86-1.87.38-.69.51-2.01.54-3.84l.09-5.71c.05-3.18-1.61-4.6-3.77-4.63-1.1-.02-2.28.37-3.17,1.23-1.41,1.37-1.77,3.34-1.86,8.98-.03,1.87.06,3.22.45,3.92.61,1.07,1.78,1.2,1.76,1.86,0,.51-.45.69-1,.68l-6.08-.09c-.55,0-.99-.2-.98-.71.01-.77,1.33-.78,1.9-1.95.34-.73.47-1.97.5-3.76l.11-7.14c.02-1.17,0-1.83-.33-2.31-.57-.89-2.11-.73-2.1-1.53,0-.4.19-.66,1.04-.83,1.36-.27,2.46-.62,3.42-1.05.26-.11.48-.18.7-.17.48,0,.8.34.79,1.04l-.03,2.16c0,.11.03.18.11.18s.11-.07.19-.18c1.16-1.67,3.23-3.13,5.98-3.09,2.09.03,3.79.97,4.76,2.34.79,1.11,1.21,2.43,1.17,5l-.09,5.82Z"/><path class="b" d="M154.55,215.5c.23,1-1.71,4.88-6.45,5.99-5.45,1.28-9.66-2.24-10.81-7.13-1.22-5.2,1.31-11.1,6.83-12.39,5.13-1.2,8.25,2.46,8.83,4.96.51,2.17-.48,2.75-2.22,3.19,0,0-9.41,2.21-9.66,2.27-.25.06-.37.2-.31.45l.04.18c.88,3.74,3.8,6.59,7.58,5.7,3.49-.82,4.35-3.58,5.2-3.78.43-.1.84.07.96.56ZM140.36,210.44c.04.18.12.2.34.15.25-.06,5.81-1.36,5.81-1.36,2.07-.48,2.89-1.13,2.51-2.77-.38-1.64-2.27-3.26-4.8-2.67-2.85.67-4.1,3.52-3.91,6.26.03.29.05.36.06.4Z"/><path class="b" d="M170.18,184.73c.49.81.61,1.43-.05,1.83-.97.59-2.9-1.19-4.75-.08-2.38,1.44-.52,4.94.73,7,.13.22.28.26.5.12.56-.34,1.28-.78,2.02-1.26.73-.49,1.48-1.15,2.14-1.55.31-.19.88-.53,1.18-.03.11.19.2.48.28.68.39,1-.04,1.35-.79,1.8-.6.36-1.26.68-2.03,1.1-.61.33-1.15.65-1.65.95-.31.19-.35.34-.18.62l4.94,8.17c.95,1.57,1.65,2.51,2.31,2.97,1.18.82,2.2.04,2.62.72.27.44-.05.84-.52,1.13l-5.17,3.13c-.5.3-.97.37-1.24-.06-.44-.72.79-1.25.56-2.82-.13-.78-.65-1.79-1.54-3.26l-5.02-8.3c-.11-.19-.25-.19-.46-.06-.19.11-1.94,1.17-1.94,1.17-.22.13-.43.13-.58-.12l-.64-1.06c-.15-.25-.08-.42.17-.57,0,0,1.57-.95,1.94-1.17.25-.15.29-.3.15-.52-3.36-6.18.25-10.12,2.6-11.54.85-.51,1.65-.74,2.33-.68,1.01.12,1.73,1.09,2.09,1.69Z"/><path class="b" d="M183.83,181.76c.58.66.89,1.46.18,2.09-.66.58-1.55.29-2.37,1.02-.52.46-.88,1.22-.72,2.34.21,1.57.88,3.27,4.49,7.36,1.19,1.35,2.04,2.2,2.8,2.51,1.37.55,2.17-.36,2.71.25.34.38.13.81-.31,1.2l-4.53,3.99c-.44.39-.89.54-1.23.16-.51-.58.5-1.42.07-2.8-.24-.72-.93-1.67-2.12-3.01l-4.33-4.91c-1.04-1.18-1.73-1.74-2.29-1.88-1.12-.28-2.1.78-2.63.17-.27-.3-.27-.64.21-1.26.74-.99,1.12-1.67,1.6-2.73.15-.33.32-.58.51-.75.41-.36.87-.28,1.31.21l1.91,2.17c.05.05.1.11.15.06.05-.05,0-.16-.01-.23-.46-1.69-.51-4.73,1.25-6.27,1.07-.94,2.38-.78,3.35.31Z"/><path class="b" d="M204.63,176.34c.81.62,1.77,4.85-1.18,8.72-3.4,4.45-8.89,4.4-12.87,1.36-4.25-3.24-6.04-9.4-2.6-13.91,3.2-4.19,7.93-3.34,9.97-1.78,1.77,1.35,1.37,2.43.31,3.88,0,0-5.86,7.68-6.02,7.88-.16.2-.16.39.05.54l.15.11c3.05,2.33,7.12,2.67,9.48-.41,2.18-2.85,1.09-5.52,1.62-6.22.27-.35.69-.48,1.1-.17ZM190.45,181.46c.15.11.22.08.35-.1.16-.2,3.62-4.74,3.62-4.74,1.29-1.69,1.52-2.71.18-3.73-1.34-1.02-3.83-1.08-5.4.99-1.78,2.33-.93,5.32.95,7.31.21.21.27.25.3.27Z"/><path class="b" d="M214.13,156.53c.94.41,2.86,4.31.89,8.76-2.27,5.12-7.61,6.36-12.2,4.33-4.89-2.16-8.07-7.73-5.77-12.92,2.13-4.82,6.94-5.1,9.28-4.06,2.04.9,1.9,2.04,1.21,3.7,0,0-3.91,8.84-4.01,9.07-.1.23-.06.41.17.52l.17.07c3.51,1.55,7.55.94,9.12-2.61,1.45-3.28-.23-5.63.12-6.43.18-.4.56-.63,1.03-.43ZM201.54,164.81c.17.07.23.02.32-.18.1-.23,2.41-5.46,2.41-5.46.86-1.94.84-2.99-.7-3.67-1.54-.68-3.97-.16-5.02,2.22-1.18,2.68.34,5.39,2.64,6.89.25.15.32.18.35.2Z"/><path class="b" d="M29.89,150.94c-1.02,0-1.95-.7-2.2-1.74-1.79-7.53-2.69-15.32-2.69-23.13s.91-15.6,2.69-23.13c2.57-10.87,6.93-21.17,12.96-30.61,5.92-9.27,13.28-17.47,21.88-24.35,8.68-6.95,18.36-12.37,28.79-16.09,10.79-3.86,22.12-5.81,33.68-5.81s22.89,1.96,33.68,5.81c10.43,3.73,20.11,9.14,28.79,16.09,8.6,6.89,15.96,15.08,21.88,24.35,6.03,9.44,10.39,19.74,12.96,30.61,1.79,7.53,2.69,15.31,2.69,23.13s-.91,15.6-2.69,23.13c-.29,1.22-1.51,1.97-2.72,1.68-1.22-.29-1.97-1.51-1.68-2.72,1.7-7.19,2.57-14.62,2.57-22.09s-.86-14.89-2.57-22.09c-2.46-10.37-6.62-20.2-12.37-29.22-5.65-8.86-12.68-16.68-20.89-23.26-8.29-6.64-17.53-11.81-27.48-15.36-10.3-3.68-21.11-5.55-32.15-5.55s-21.86,1.87-32.15,5.55c-9.95,3.56-19.2,8.73-27.48,15.36-8.21,6.58-15.24,14.4-20.89,23.26-5.75,9.01-9.92,18.84-12.37,29.22-1.7,7.19-2.57,14.62-2.57,22.09s.86,14.9,2.57,22.09c.29,1.22-.46,2.44-1.68,2.72-.18.04-.35.06-.52.06Z"/></svg>