<?xml version="1.0" encoding="UTF-8"?><svg id="a" xmlns="http://www.w3.org/2000/svg" viewBox="0 0 250 250"><defs><style>.b{fill:#e7e4ca;}</style></defs><path class="b" d="M161.67,116.34c-.33-1.07-1.4-1.74-2.5-1.57-1.11.17-1.92,1.12-1.92,2.24.01,6.48-2.59,13.03-7.22,18.27-.17-1.65-.6-3.27-1.29-4.81h0c1.81-4.29,1.88-9.09,0-13.26h0c1.89-4.47,1.88-9.49-.25-13.78-.22-.44-.58-.8-1.02-1.02-3.25-1.61-6.93-2.01-10.46-1.27-.14-7.46-4.66-13.96-11.26-16.18-.47-.16-.98-.16-1.44,0-6.6,2.22-11.12,8.71-11.26,16.17-3.52-.72-7.18-.32-10.42,1.28-.44.22-.8.58-1.02,1.02-2.13,4.28-2.13,9.31-.24,13.77-1.88,4.17-1.81,8.97,0,13.26-.65,1.44-1.07,2.97-1.26,4.52-4.69-5.24-7.35-11.77-7.36-18.29,0-1.11-.81-2.06-1.91-2.23-1.1-.17-2.16.48-2.5,1.54-1.59,4.91-1.89,9.26-1.87,12.05.08,10.34,4.13,20.06,11.39,27.37,7.28,7.33,16.96,11.37,27.24,11.4h.09c10.24,0,19.86-3.98,27.09-11.22,7.3-7.3,11.31-17.03,11.28-27.4,0-3.52-.33-6.89-1.87-11.86ZM144.85,127.92c-5.69-1.63-12.15.03-16.78,4.51-.26.25-.5.5-.74.76v-1.75c0-1.39.23-2.74.67-4.02.25-.72.57-1.41.95-2.08.39-.69.86-1.36,1.39-1.98.28-.32.57-.63.88-.93,3.12-3.02,7.47-4.34,11.36-3.64.75.13,1.49.34,2.19.63.02.05.04.1.06.16.34.88.57,1.81.68,2.75h0c.21,1.85-.02,3.77-.65,5.59ZM145.27,139.67c-5.15,3.86-11.35,6.08-17.95,6.39v-1.37c0-1.39.23-2.74.67-4.02.25-.72.57-1.41.95-2.08.39-.69.86-1.36,1.39-1.98.28-.32.57-.63.88-.93,3.12-3.02,7.47-4.34,11.36-3.64.75.13,1.49.34,2.19.63.02.05.04.1.06.16.34.88.57,1.81.68,2.75.15,1.35.07,2.73-.22,4.09ZM136.4,106.02c2.78-.92,5.76-.91,8.35.14,1.08,2.64,1.07,5.68.09,8.5-5.69-1.63-12.15.03-16.78,4.51-.26.25-.5.5-.74.76v-1.12c0-.11,0-.22-.02-.32h0c.02-.11.02-.21.02-.32,0-.45.02-.91.07-1.36.11-1.02.35-2.01.7-2.96.65-1.74,1.7-3.34,3.11-4.69.73-.71,1.53-1.32,2.37-1.83.9-.55,1.85-.99,2.83-1.32ZM125.03,89.53c4.33,1.82,7.36,6.53,7.45,11.71,0,.52-.01,1.03-.06,1.53h0c-1.56.81-3.03,1.86-4.36,3.13-1.2,1.15-2.2,2.44-3.01,3.83-.8-1.39-1.81-2.67-3-3.83-1.34-1.29-2.83-2.35-4.41-3.16h0c-.05-.5-.07-1-.06-1.51.09-5.19,3.12-9.89,7.45-11.71ZM105.35,106.16c2.58-1.05,5.54-1.06,8.3-.16.97.32,1.92.75,2.82,1.3.86.52,1.68,1.15,2.43,1.87,1.41,1.36,2.47,2.97,3.12,4.73h0c.35.95.58,1.93.69,2.94h0c.05.44.07.89.07,1.34,0,.11,0,.21.02.31h0c-.02.11-.02.22-.02.32v1.11c-.24-.26-.48-.51-.74-.76-4.64-4.48-11.09-6.14-16.79-4.51-.98-2.82-.99-5.86.09-8.5ZM122.05,132.43c-4.64-4.48-11.09-6.14-16.79-4.51-.63-1.83-.86-3.75-.65-5.59.11-.95.33-1.87.67-2.76h0c.02-.05.04-.1.06-.15.71-.29,1.44-.5,2.2-.63,3.89-.69,8.23.63,11.36,3.65.31.3.6.61.88.93.53.62,1,1.28,1.39,1.98.38.67.69,1.37.94,2.09.44,1.28.67,2.63.67,4.01v1.75c-.24-.26-.48-.51-.74-.76ZM122.79,144.69v1.29c-6.65-.53-12.89-2.87-18.04-6.74-.23-1.22-.28-2.46-.14-3.66.11-.95.33-1.87.67-2.76h0c.02-.05.04-.1.06-.15.71-.29,1.44-.5,2.2-.63,3.89-.69,8.23.63,11.36,3.65.31.3.6.61.88.93.53.62,1,1.28,1.39,1.98.38.67.69,1.36.94,2.08.44,1.28.67,2.63.67,4.02ZM149.06,152.4c-6.38,6.38-14.86,9.9-23.89,9.9h-.08c-9.07-.02-17.61-3.59-24.04-10.06-6.13-6.17-9.67-14.28-10.04-22.97,1.82,4.01,4.47,7.75,7.85,10.93.59.55,1.2,1.09,1.82,1.6,1.12.93,2.3,1.79,3.52,2.58,1.67,1.08,3.42,2.03,5.24,2.84,2.95,1.32,6.09,2.26,9.33,2.82,1.61.28,3.24.46,4.9.54.17,0,.34.02.51.02.27,0,.55.02.83.02.33,0,.65,0,.98,0,.13,0,.26,0,.39,0,1.93-.03,3.83-.21,5.7-.53,2.61-.44,5.14-1.15,7.56-2.11,2.07-.82,4.05-1.84,5.94-3.02,1.29-.81,2.53-1.71,3.71-2.68.84-.69,1.66-1.43,2.44-2.2,3.1-3.06,5.56-6.61,7.27-10.4-.34,8.6-3.83,16.62-9.93,22.72Z"/><path class="b" d="M60.37,176.23c-.1-.15-.27-.48-.27-.48-.52,1.14-1.47,2.03-2.32,2.59-3.27,2.16-7.17,1.37-9.72-1.95-.94-1.22-1.77-2.6-2.74-1.96-.61.4-.48,1.2.38,2.82.73,1.36,1.82,3.01,2.61,4.68,1.1,2.39.71,4.45-1.03,5.6-3.33,2.2-7.28-.05-10.23-4.51-1.78-2.69-2.6-5.12-2.38-6.85.12-1.22.73-2.15,1.52-2.67,1.77-1.17,3.68-.15,4.2.64.3.46.27.87-.03,1.08-.37.24-1.11-.01-2.05.61-1.98,1.31-1.01,4.31.51,6.6,1.88,2.84,4.36,4.27,5.95,3.22,1.1-.73.97-1.92-.05-3.79-.81-1.48-2.08-3.41-2.73-4.99-.88-2.05-.43-3.63.7-4.37,1.37-.91,3.08-.19,3.71.31.09.07.12.05.15.03.03-.02.04-.07.03-.15-.33-2.42.54-4.88,2.89-6.44,3.17-2.1,7.5-1.28,9.82,2.23,1.82,2.75,1.16,4.94,1.63,5.64.61.92,1.92-.35,2.81.99.53.79.34,1.57-.45,2.1-1.04.69-2.04.3-2.89-.98ZM52.16,168.86c-1.92,1.27-4.21,4.06-2.61,6.47,1.25,1.89,3.61,1.74,5.62.4,1.92-1.27,4.05-4.09,2.52-6.41-1.23-1.86-3.55-1.78-5.53-.46Z"/><path class="b" d="M57.88,193.34c-.47,1.36.42,2.18-.14,2.72-.37.35-.83.14-1.21-.26l-4.22-4.42c-.38-.4-.55-.84-.18-1.19.56-.53,1.47.37,2.72-.02.78-.24,1.71-1.02,3-2.26l10.37-9.91c1.14-1.09,1.75-1.67,1.92-2.34.11-.41-.03-.88-.28-1.4-.22-.5-.34-.89-.08-1.14s.58-.35,1.32.16c1.15.78,2.07,1.31,3.17,1.78.26.11.46.22.61.38.3.32.32.76-.16,1.21l-14.45,13.81c-1.32,1.26-2.12,2.13-2.4,2.9Z"/><path class="b" d="M77.5,210.18c-.26.36-.61.42-1.29.11-1.35-.56-2.38-.89-3.33-1.13-.38-.09-.58-.19-.73-.3-.42-.3-.48-.71-.08-1.27,0,0,1.26-1.76,1.32-1.85.04-.06.03-.11-.03-.15-.06-.04-.13,0-.26.04-2.07.81-4.59.63-6.67-.86-1.49-1.07-2.41-2.54-2.53-4.33-.11-1.61.62-3.2,1.9-4.98l3.58-5c.92-1.28,1.41-1.96,1.43-2.62.06-1.08-1.31-1.75-.76-2.52.21-.3.57-.36,1.25-.05,1.38.58,2.22.87,3.25,1.11.38.09.57.14.81.31.39.28.48.71.1,1.24l-6.8,9.49c-1.47,2.05-1.67,4.34.48,5.88.86.62,2,.98,3.22.78,1.89-.31,3.44-1.72,6.7-6.28,1.02-1.43,1.6-2.23,1.62-2.89.03-1.11-1.31-1.75-.8-2.46.23-.33.53-.43,1.29-.11,1.35.56,2.36.92,3.42,1.14.27.06.49.13.67.26.39.28.46.74.08,1.27l-7.22,10.09c-.92,1.28-1.41,1.96-1.45,2.65-.05.95,1.31,1.75.82,2.43Z"/><path class="b" d="M93.92,215.54c-.22.5-1.05,1.06-2.02,1.37-1.25.42-2.87.48-4.46-.19-1.65-.71-2.57-1.9-2.9-3.35-.28-1.2.04-2.69.77-4.41,1.27-2.96,2.8-5.89,4.22-9.22.1-.24.04-.38-.19-.48l-2.12-.91c-.24-.1-.31-.29-.2-.56l.46-1.08c.09-.2.24-.29.51-.26,1.65.23,2.6.08,3.29-.42s1.22-1.35,1.93-2.36c.18-.24.34-.33.61-.22l1.38.59c.27.12.35.31.25.54l-1.5,3.5c-.26.61-.2.83.41,1.09.5.22.94.4,1.74.67.74.24,1.72.54,2.43.84.74.32,1,.63.82,1.07-.07.17-.24.38-.37.6-.48.75-1.02.8-1.89.42-.61-.26-1.3-.68-2.1-1.06-.66-.32-1.2-.55-1.8-.81-.27-.12-.46-.04-.58.23-.19.44-1.87,4.1-2.3,5.11-.53,1.25-1.01,2.36-1.54,3.96-.9,2.76-.11,3.97,1.2,4.54,1.75.75,2.95-.29,3.59-.02.34.14.5.49.36.83Z"/><path class="b" d="M114.16,219.5c-.2,1-3.59,3.72-8.36,2.75-5.49-1.11-7.84-6.07-6.85-10.99,1.06-5.24,5.82-9.54,11.38-8.41,5.17,1.05,6.47,5.68,5.96,8.19-.44,2.19-1.59,2.29-3.35,1.97,0,0-9.47-1.92-9.72-1.97-.25-.05-.42.03-.47.28l-.04.18c-.76,3.77.7,7.57,4.51,8.35,3.52.71,5.44-1.44,6.31-1.26.43.09.74.41.64.91ZM103.37,208.99c-.04.18.03.23.24.27.25.05,5.85,1.19,5.85,1.19,2.08.42,3.1.18,3.44-1.47.33-1.65-.7-3.91-3.25-4.43-2.87-.58-5.19,1.49-6.16,4.05-.09.28-.11.35-.12.39Z"/><path class="b" d="M137.42,216.81c.09,1.9.26,3.29.73,3.96.66.92,1.84,1.02,1.87,1.67.02.51-.44.72-.99.74l-6.14.28c-.55.02-1.03-.14-1.06-.65-.03-.73,1.21-.82,1.74-1.98.33-.71.38-2.03.3-3.86l-.26-5.7c-.15-3.18-1.89-4.49-4.05-4.4-1.1.05-2.25.51-3.09,1.42-1.33,1.45-1.56,3.44-1.31,9.07.09,1.86.26,3.21.69,3.89.67,1.03,1.85,1.09,1.87,1.75.02.51-.41.71-.96.74l-6.07.28c-.55.02-1-.14-1.02-.65-.03-.77,1.28-.86,1.77-2.06.3-.75.35-1.99.27-3.79l-.33-7.13c-.05-1.17-.12-1.83-.47-2.29-.63-.85-2.15-.6-2.19-1.4-.02-.4.15-.67.99-.89,1.34-.35,2.42-.77,3.35-1.25.25-.12.47-.2.69-.21.48-.02.82.29.85.99l.1,2.16c0,.11.05.18.12.18.07,0,.11-.08.17-.19,1.06-1.73,3.04-3.33,5.78-3.45,2.08-.1,3.84.74,4.89,2.05.85,1.06,1.35,2.36,1.47,4.92l.27,5.81Z"/><path class="b" d="M159.99,191.29c.35.88.36,1.51-.35,1.79-1.06.42-2.66-1.66-4.67-.87-2.59,1.02-1.34,4.78-.45,7.03.09.24.24.3.48.21.61-.24,1.4-.55,2.2-.91.8-.36,1.65-.89,2.37-1.17.34-.13.95-.38,1.17.17.08.2.12.5.17.72.22,1.05-.26,1.32-1.08,1.65-.65.26-1.35.46-2.18.75-.66.22-1.24.45-1.78.67-.34.13-.4.28-.28.58l3.52,8.88c.67,1.7,1.21,2.75,1.78,3.31,1.03,1.01,2.17.4,2.46,1.15.19.48-.19.82-.7,1.02l-5.61,2.22c-.54.22-1.02.21-1.21-.27-.31-.78.98-1.1,1.02-2.69,0-.79-.35-1.87-.98-3.47l-3.57-9.02c-.08-.2-.21-.23-.45-.14-.2.08-2.11.84-2.11.84-.24.09-.45.06-.56-.21l-.46-1.16c-.11-.27-.01-.43.26-.54,0,0,1.7-.67,2.11-.84.27-.11.33-.25.24-.49-2.28-6.66,1.93-9.94,4.48-10.95.92-.36,1.75-.46,2.41-.28.98.28,1.52,1.36,1.78,2.01Z"/><path class="b" d="M173.92,190.59c.47.75.64,1.58-.16,2.09-.74.47-1.58.03-2.51.62-.59.37-1.07,1.06-1.09,2.19-.05,1.58.34,3.37,3.23,8,.95,1.52,1.65,2.51,2.35,2.93,1.26.77,2.2,0,2.63.69.27.43,0,.82-.5,1.13l-5.12,3.2c-.5.31-.97.39-1.24-.05-.41-.65.73-1.32.53-2.75-.12-.74-.65-1.8-1.6-3.32l-3.47-5.56c-.83-1.33-1.42-2-1.95-2.23-1.06-.46-2.2.42-2.62-.26-.21-.34-.16-.68.41-1.21.89-.86,1.37-1.46,2.02-2.43.2-.3.41-.52.63-.65.47-.29.91-.14,1.26.42l1.53,2.45c.04.06.08.12.14.09s.03-.15.03-.23c-.18-1.74.27-4.74,2.26-5.99,1.21-.76,2.48-.38,3.25.86Z"/><path class="b" d="M195.3,188.56c.7.74.98,5.07-2.56,8.42-4.06,3.85-9.48,2.93-12.93-.71-3.68-3.88-4.46-10.24-.35-14.14,3.82-3.63,8.36-2.03,10.13-.17,1.54,1.62.97,2.61-.31,3.88,0,0-7.01,6.65-7.2,6.82-.19.18-.22.36-.04.54l.13.13c2.64,2.79,6.6,3.78,9.42,1.11,2.6-2.47,1.95-5.28,2.59-5.89.32-.3.76-.37,1.11,0ZM180.5,191.35c.13.13.2.11.36-.04.19-.18,4.33-4.1,4.33-4.1,1.54-1.46,1.93-2.43.77-3.66-1.16-1.22-3.61-1.68-5.49.11-2.12,2.01-1.77,5.1-.22,7.37.17.24.23.29.25.32Z"/><path class="b" d="M207.91,170.66c.86.56,2.1,4.72-.58,8.78-3.08,4.67-8.56,5.01-12.75,2.24-4.46-2.94-6.67-8.96-3.55-13.7,2.9-4.4,7.69-3.87,9.83-2.46,1.86,1.23,1.53,2.33.58,3.84,0,0-5.32,8.07-5.46,8.28-.14.21-.13.4.08.54l.15.1c3.21,2.12,7.29,2.18,9.43-1.06,1.98-2.99.7-5.59,1.19-6.32.24-.37.66-.53,1.09-.25ZM194.13,176.74c.15.1.22.06.34-.12.14-.21,3.29-4.98,3.29-4.98,1.17-1.77,1.33-2.81-.08-3.74-1.41-.93-3.89-.81-5.32,1.36-1.61,2.44-.56,5.37,1.46,7.23.22.19.29.23.32.25Z"/><path class="b" d="M214.41,167.78c-.31,0-.62-.06-.92-.19-1.14-.51-1.66-1.84-1.15-2.99,5.4-12.18,8.13-25.17,8.13-38.62s-2.74-26.43-8.13-38.61c-7.39-16.69-19.36-30.87-34.61-40.99-15.64-10.38-33.87-15.87-52.73-15.87s-37.09,5.49-52.73,15.87c-15.25,10.13-27.22,24.3-34.61,40.99-5.4,12.18-8.13,25.17-8.13,38.61s2.74,26.43,8.13,38.62c.51,1.14,0,2.48-1.15,2.99-1.14.51-2.48-.01-2.99-1.15-5.65-12.76-8.52-26.37-8.52-40.45s2.87-27.68,8.52-40.45c7.74-17.48,20.28-32.33,36.25-42.93,16.38-10.88,35.48-16.62,55.23-16.62s38.84,5.75,55.23,16.62c15.97,10.6,28.51,25.45,36.25,42.93,5.65,12.76,8.52,26.37,8.52,40.45s-2.87,27.69-8.52,40.45c-.37.85-1.2,1.35-2.07,1.35Z"/></svg>