<?xml version="1.0" encoding="UTF-8"?>
<svg id="IMGS" xmlns="http://www.w3.org/2000/svg" viewBox="0 0 1080 1080">
  <defs>
    <style>
      .cls-1 {
        fill: none;
      }

      .cls-1, .cls-2 {
        stroke-width: 0px;
      }

      .cls-2 {
        fill: #e5e2c8;
      }
    </style>
  </defs>
  <g>
    <g>
      <path class="cls-1" d="M566.28,582.21c-.02,4.79-1.32,9.27-3.58,13.13-2.33,3.99-5.68,7.3-9.68,9.57-3.84,2.21-8.28,3.45-13.03,3.45h-.12c-4.79-.02-9.27-1.32-13.13-3.58-3.97-2.33-7.28-5.66-9.58-9.66-2.19-3.84-3.45-8.29-3.45-13.05v-.12c.02-4.79,1.32-9.27,3.58-13.12,2.31-3.99,5.66-7.3,9.66-9.57,3.84-2.21,8.29-3.47,13.05-3.47h.11c4.79.02,9.27,1.32,13.13,3.58,3.99,2.31,7.3,5.66,9.59,9.66,2.19,3.84,3.45,8.29,3.45,13.05v.12Z"/>
      <path class="cls-2" d="M553.23,562.03c-.46,0-.92-.12-1.34-.36-1.27-.74-1.69-2.37-.95-3.64l14.94-25.53c.74-1.26,2.37-1.69,3.64-.95,1.27.74,1.69,2.37.95,3.64l-14.94,25.53c-.49.84-1.38,1.31-2.29,1.31Z"/>
      <path class="cls-2" d="M562.84,571.7c-.92,0-1.82-.48-2.31-1.33-.73-1.27-.29-2.9.98-3.63l25.65-14.71c1.27-.73,2.9-.29,3.63.98.73,1.27.29,2.9-.98,3.63l-25.65,14.71c-.42.24-.87.35-1.32.35Z"/>
      <path class="cls-2" d="M595.87,584.87h-29.6c-1.47,0-2.66-1.19-2.66-2.66s1.19-2.66,2.66-2.66h29.6c1.47,0,2.66,1.19,2.66,2.66s-1.19,2.66-2.66,2.66Z"/>
      <path class="cls-2" d="M588.23,612.94c-.46,0-.92-.12-1.34-.36l-25.53-14.94c-1.27-.74-1.69-2.37-.95-3.64.74-1.26,2.37-1.69,3.64-.95l25.53,14.94c1.27.74,1.69,2.37.95,3.64-.49.84-1.38,1.31-2.29,1.31Z"/>
      <path class="cls-2" d="M567.66,633.29c-.92,0-1.82-.48-2.31-1.34l-14.63-25.71c-.73-1.28-.28-2.9,1-3.62,1.28-.73,2.9-.28,3.62,1l14.63,25.71c.73,1.28.28,2.9-1,3.62-.42.24-.87.35-1.31.35Z"/>
      <path class="cls-2" d="M539.87,640.62c-1.47,0-2.66-1.19-2.66-2.66v-29.6c0-1.47,1.19-2.66,2.66-2.66s2.66,1.19,2.66,2.66v29.6c0,1.47-1.19,2.66-2.66,2.66Z"/>
      <path class="cls-2" d="M540.1,558.46c-1.47,0-2.66-1.19-2.66-2.66v-29.6c0-1.47,1.19-2.66,2.66-2.66s2.66,1.19,2.66,2.66v29.6c0,1.47-1.19,2.66-2.66,2.66Z"/>
      <path class="cls-2" d="M558.63,566.21c-.68,0-1.36-.26-1.88-.78-1.04-1.04-1.04-2.72,0-3.76l12.44-12.46c1.04-1.04,2.72-1.04,3.76,0,1.04,1.04,1.04,2.72,0,3.76l-12.44,12.46c-.52.52-1.2.78-1.88.78Z"/>
      <path class="cls-2" d="M565.41,578.01c-1.17,0-2.25-.78-2.56-1.97-.38-1.42.46-2.87,1.88-3.26l16.99-4.57c1.42-.38,2.88.46,3.26,1.88.38,1.42-.46,2.87-1.88,3.26l-16.99,4.57c-.23.06-.46.09-.69.09Z"/>
      <path class="cls-2" d="M582.38,596.16c-.23,0-.46-.03-.68-.09l-17.02-4.53c-1.42-.38-2.26-1.83-1.88-3.25.38-1.42,1.82-2.26,3.25-1.88l17.02,4.53c1.42.38,2.26,1.83,1.88,3.25-.32,1.19-1.39,1.97-2.57,1.97Z"/>
      <path class="cls-2" d="M571.07,615.88c-.68,0-1.36-.26-1.87-.77l-12.54-12.48c-1.04-1.04-1.04-2.72,0-3.76,1.04-1.04,2.72-1.04,3.76,0l12.54,12.48c1.04,1.04,1.04,2.72,0,3.76-.52.52-1.2.78-1.88.78Z"/>
      <path class="cls-2" d="M551.31,627.16c-1.17,0-2.24-.78-2.56-1.96l-4.6-17c-.38-1.42.45-2.88,1.87-3.26,1.41-.39,2.87.45,3.26,1.87l4.6,17c.38,1.42-.45,2.88-1.87,3.26-.23.06-.47.09-.7.09Z"/>
      <path class="cls-2" d="M546.86,559.37c-.23,0-.46-.03-.68-.09-1.42-.38-2.26-1.83-1.88-3.25l4.53-17.01c.38-1.42,1.83-2.26,3.25-1.88,1.42.38,2.26,1.83,1.88,3.25l-4.53,17.01c-.32,1.19-1.39,1.97-2.57,1.97Z"/>
      <path class="cls-2" d="M526.75,562.03c-.91,0-1.8-.47-2.3-1.32l-14.92-25.53c-.74-1.27-.31-2.89.95-3.64,1.27-.74,2.89-.31,3.64.95l14.92,25.53c.74,1.27.31,2.89-.95,3.64-.42.25-.88.36-1.34.36Z"/>
      <path class="cls-2" d="M517.16,571.7c-.46,0-.93-.12-1.35-.37l-25.44-15.07c-1.26-.75-1.68-2.38-.93-3.64.75-1.26,2.38-1.68,3.64-.93l25.44,15.07c1.26.75,1.68,2.38.93,3.64-.5.84-1.38,1.3-2.29,1.3Z"/>
      <path class="cls-2" d="M513.7,584.87h-29.57c-1.47,0-2.66-1.19-2.66-2.66s1.19-2.66,2.66-2.66h29.57c1.47,0,2.66,1.19,2.66,2.66s-1.19,2.66-2.66,2.66Z"/>
      <path class="cls-2" d="M491.54,612.56c-.93,0-1.83-.49-2.32-1.35-.72-1.28-.27-2.9,1.01-3.62l25.76-14.57c1.28-.72,2.9-.27,3.62,1.01s.27,2.9-1.01,3.62l-25.76,14.57c-.41.23-.86.34-1.31.34Z"/>
      <path class="cls-2" d="M512.36,633.29c-.44,0-.9-.11-1.31-.35-1.28-.73-1.72-2.35-1-3.62l14.61-25.71c.73-1.27,2.35-1.72,3.62-1,1.28.73,1.72,2.35,1,3.62l-14.61,25.71c-.49.86-1.39,1.34-2.31,1.34Z"/>
      <path class="cls-2" d="M521.36,566.21c-.68,0-1.36-.26-1.88-.78l-12.44-12.46c-1.04-1.04-1.03-2.72,0-3.76,1.04-1.03,2.72-1.04,3.76,0l12.44,12.46c1.04,1.04,1.03,2.72,0,3.76-.52.52-1.2.78-1.88.78Z"/>
      <path class="cls-2" d="M514.57,578.01c-.23,0-.46-.03-.69-.09l-16.99-4.57c-1.42-.38-2.26-1.84-1.88-3.26.38-1.42,1.85-2.25,3.26-1.88l16.99,4.57c1.42.38,2.26,1.84,1.88,3.26-.32,1.19-1.39,1.97-2.56,1.97Z"/>
      <path class="cls-2" d="M497.61,596.16c-1.18,0-2.25-.79-2.57-1.97-.38-1.42.47-2.87,1.88-3.25l17.02-4.53c1.42-.38,2.87.47,3.25,1.88.38,1.42-.47,2.87-1.88,3.25l-17.02,4.53c-.23.06-.46.09-.68.09Z"/>
      <path class="cls-2" d="M508.92,615.88c-.68,0-1.36-.26-1.88-.78-1.03-1.04-1.03-2.72,0-3.76l12.54-12.48c1.04-1.04,2.72-1.03,3.76,0,1.03,1.04,1.03,2.72,0,3.76l-12.54,12.48c-.52.52-1.2.77-1.87.77Z"/>
      <path class="cls-2" d="M528.68,627.16c-.23,0-.46-.03-.7-.09-1.42-.38-2.25-1.84-1.87-3.26l4.6-17c.38-1.42,1.84-2.25,3.26-1.87,1.42.38,2.25,1.84,1.87,3.26l-4.6,17c-.32,1.18-1.39,1.96-2.56,1.96Z"/>
      <path class="cls-2" d="M533.13,559.37c-1.18,0-2.25-.79-2.57-1.97l-4.53-17.01c-.38-1.42.47-2.87,1.88-3.25,1.42-.38,2.87.47,3.25,1.88l4.53,17.01c.38,1.42-.47,2.87-1.88,3.25-.23.06-.46.09-.68.09Z"/>
    </g>
    <path class="cls-2" d="M540,687.36c-69.59,0-126.2-56.61-126.2-126.2v-163.4c0-69.59,56.61-126.2,126.2-126.2s126.2,56.61,126.2,126.2v163.4c0,69.59-56.61,126.2-126.2,126.2ZM540,276.88c-66.66,0-120.89,54.23-120.89,120.89v163.4c0,66.66,54.23,120.89,120.89,120.89s120.89-54.23,120.89-120.89v-163.4c0-66.66-54.23-120.89-120.89-120.89Z"/>
    <path class="cls-2" d="M549.28,435.4c-6.73,0-13.48-1.18-19.98-3.54-14.65-5.33-26.34-16.07-32.9-30.25-13.49-29.14-.67-64.18,28.57-78.11,3.82-1.82,10-4.19,17.77-5.15,1.29-.17,2.52.64,2.88,1.9.36,1.26-.24,2.59-1.42,3.14-22.57,10.6-31.72,39.95-20.38,65.43,5.68,12.78,15.85,22.44,28.64,27.2,11.44,4.26,23.82,3.97,33.98-.8,1.19-.55,2.61-.16,3.34.93.73,1.09.55,2.56-.42,3.44-5.86,5.32-10.28,7.93-15.13,10.2-7.95,3.73-16.43,5.61-24.94,5.61ZM529.22,327.4c-.72.3-1.38.6-1.97.89-26.63,12.69-38.3,44.57-26.03,71.09,5.96,12.88,16.58,22.64,29.89,27.48,13.38,4.87,27.89,4.2,40.84-1.89.63-.3,1.25-.6,1.86-.9-7.63.77-15.62-.25-23.22-3.08-14.13-5.26-25.37-15.92-31.64-30.02-10.12-22.74-5.29-48.36,10.26-63.56Z"/>
    <path class="cls-2" d="M609.65,486.3c-6.67,0-10.12-2.49-13.17-4.69-2.74-1.98-5.11-3.69-10.06-3.69s-7.31,1.71-10.05,3.69c-3.05,2.2-6.5,4.69-13.17,4.69s-10.12-2.49-13.17-4.69c-2.74-1.98-5.11-3.69-10.06-3.69s-7.31,1.71-10.05,3.69c-3.05,2.2-6.5,4.69-13.17,4.69s-10.12-2.49-13.16-4.69c-2.74-1.98-5.11-3.69-10.05-3.69s-7.31,1.71-10.05,3.69c-3.05,2.2-6.5,4.69-13.16,4.69s-10.12-2.49-13.16-4.69c-2.74-1.98-5.11-3.69-10.05-3.69-1.47,0-2.66-1.19-2.66-2.66s1.19-2.66,2.66-2.66c6.66,0,10.12,2.49,13.16,4.69,2.74,1.98,5.11,3.69,10.05,3.69s7.31-1.71,10.05-3.69c3.05-2.2,6.5-4.69,13.16-4.69s10.12,2.49,13.16,4.69c2.74,1.98,5.11,3.69,10.05,3.69s7.31-1.71,10.05-3.69c3.05-2.2,6.5-4.69,13.17-4.69s10.12,2.49,13.17,4.69c2.74,1.98,5.11,3.69,10.06,3.69s7.31-1.71,10.06-3.69c3.05-2.2,6.5-4.69,13.17-4.69s10.12,2.49,13.17,4.69c2.74,1.98,5.11,3.69,10.06,3.69s7.32-1.71,10.06-3.69c3.05-2.2,6.5-4.69,13.17-4.69,1.47,0,2.66,1.19,2.66,2.66s-1.19,2.66-2.66,2.66c-4.95,0-7.32,1.71-10.06,3.69-3.05,2.2-6.5,4.69-13.17,4.69Z"/>
  </g>
  <g>
    <path class="cls-2" d="M355.41,785.17c0,1.28-1.17,1.7-2.56,1.7h-15.66c-1.39,0-2.56-.43-2.56-1.7,0-.75.42-1.38,1.6-1.92.75-.32,2.45-1.28,3.2-2.56.96-1.6,1.6-3.94,1.6-11.4v-17.9c0-5.86-1.38-9.16-4.05-11.61-1.92-1.81-4.8-2.98-8.2-2.98-3.41,0-6.93,1.28-9.48,4.05-3.83,4.16-4.47,10.12-4.47,28.44,0,7.46.75,9.8,1.7,11.4.75,1.28,2.13,2.03,3.09,2.56,1.17.64,1.6,1.17,1.6,1.92,0,1.28-1.17,1.7-2.56,1.7h-15.66c-1.38,0-2.56-.43-2.56-1.7,0-.75.43-1.28,1.7-1.92,1.07-.53,2.35-1.28,3.09-2.56.96-1.6,1.6-3.94,1.6-11.4v-17.9c0-5.43-1.07-9.8-3.94-12.14-1.7-1.38-4.15-2.35-7.24-2.35-3.41,0-6.92,1.17-9.69,3.94-4.05,4.16-5.33,10.12-5.33,28.44,0,7.46.53,9.8,1.6,11.4.85,1.28,2.34,2.13,3.09,2.56,1.17.64,1.6,1.17,1.6,1.92,0,1.28-1.17,1.7-2.45,1.7h-15.66c-1.38,0-2.56-.43-2.56-1.7,0-.75.43-1.38,1.6-1.92.96-.43,2.34-1.28,3.2-2.56.96-1.49,1.6-3.94,1.6-11.4v-21.95c0-4.47,0-6.82-1.17-8.2-.75-.85-1.92-1.28-3.41-1.7-1.07-.32-2.24-.64-2.24-1.92,0-.96.32-1.81,2.66-2.34,3.41-.75,5.75-1.6,8.2-2.66.75-.32,1.28-.43,1.81-.43,1.49,0,2.13,1.17,2.13,2.56v7.03c0,.21.11.32.22.32s.21-.11.42-.43c3.09-4.58,8.74-9.48,17.26-9.48,8.42,0,13.32,4.69,15.34,9.59.1.32.21.42.32.42.21,0,.32-.1.53-.42,3.09-4.58,8.52-9.59,17.15-9.59,6.93,0,11.82,3.51,14.49,7.78,2.34,3.83,2.66,7.46,2.66,13.31v18.11c0,7.46.64,9.8,1.6,11.4.75,1.28,2.13,2.03,3.09,2.56,1.07.53,1.71,1.07,1.71,1.92Z"/>
    <path class="cls-2" d="M404.64,782.51c0,2.45-3.09,5.54-6.71,5.54-3.2,0-6.39-2.13-7.03-8.63,0-.22,0-.43-.21-.43-.11,0-.22.11-.43.43-3.51,5.75-10.23,8.63-16.83,8.63-8.42,0-16.51-5.01-16.51-13.64,0-4.16,2.13-8.2,6.28-11.08,5.75-4.05,12.25-4.9,18.43-7.78,6.39-2.98,8.95-7.03,8.95-11.4,0-5.22-3.3-9.69-9.69-9.69-3.51,0-6.18,1.07-8.52,2.98-3.84,3.09-5.43,6.92-6.71,8.63-.53.85-1.17,1.6-2.23,1.6-2.35,0-2.35-2.77-2.35-4.69,0-2.66.53-6.18,1.7-7.78,1.49-1.81,4.58-3.2,7.99-4.05,2.66-.75,5.86-1.07,8.74-1.07,7.56,0,12.04,2.56,15.02,5.86,4.15,4.69,4.37,11.08,4.37,16.51,0,5.75-.32,12.04-.32,18.32,0,4.79,0,10.33,2.98,10.33.43,0,1.17-.21,1.6-.21,1.38,0,1.49,1.17,1.49,1.6ZM390.57,756.09c0-.22-.11-.43-.32-.43-.11,0-.22,0-.43.21-4.26,3.52-12.25,5.54-18,9.16-4.05,2.56-5.75,6.07-5.75,9.48,0,5.43,4.05,8.84,9.27,8.84,4.58,0,9.8-2.56,12.68-8.52,2.45-5.11,2.56-10.44,2.56-17.15v-1.6Z"/>
    <path class="cls-2" d="M460.13,756.73c0,8.74-2.66,16.19-6.6,21.63-4.37,6.07-10.76,9.69-18,9.69-5.33,0-10.76-1.92-15.24-5.22-.32-.21-.43-.21-.53-.21-.22,0-.32.21-.32.64,0,0,0,2.66,0,6.61,0,7.46.74,9.8,1.7,11.29.85,1.38,2.02,2.03,2.98,2.56,1.17.64,1.71,1.07,1.71,2.02,0,1.28-1.17,1.71-2.45,1.71h-15.77c-1.38,0-2.45-.43-2.45-1.71,0-.74.43-1.28,1.6-1.92.96-.53,2.24-1.28,3.09-2.66.85-1.38,1.6-3.62,1.6-10.97,0,0,0-17.26,0-45.06,0-2.98-.11-4.69-1.07-5.86-.85-.96-2.03-1.38-3.41-1.81-1.7-.53-2.34-1.17-2.34-1.92,0-.96.32-1.6,2.77-2.24,3.62-.85,5.33-1.38,8.31-2.66.75-.32,1.28-.53,1.81-.53,1.49,0,1.92,1.07,1.92,2.56v6.29c0,.53.32.75.64.75.21,0,.43-.11.64-.32,4.47-5.43,10.76-9.27,17.79-9.27,14.6,0,21.63,13.21,21.63,26.63ZM444.89,780.17c4.68-4.37,7.03-11.82,7.03-19.18,0-10.76-4.26-24.71-16.94-24.71-8.84,0-15.55,7.88-15.55,23.12,0,15.98,7.14,24.18,15.98,24.18,3.83,0,7.03-1.17,9.48-3.41Z"/>
    <path class="cls-2" d="M483.34,785.07c0,1.38-1.07,1.81-2.45,1.81h-15.87c-1.38,0-2.45-.43-2.45-1.81,0-.64.42-1.17,1.6-1.81.96-.53,2.35-1.28,3.09-2.56,1.07-1.6,1.6-3.94,1.6-11.4v-47.09c0-2.98-.11-4.69-1.07-5.86-.75-.85-2.02-1.39-3.3-1.71-1.7-.43-2.45-.96-2.45-1.92,0-.96.32-1.6,2.88-2.24,3.62-.85,5.33-1.38,8.42-2.66.74-.32,1.28-.53,1.81-.53,1.39,0,1.92,1.07,1.92,2.56v59.44c0,7.46.64,9.91,1.6,11.4.85,1.28,2.13,2.03,3.09,2.56,1.28.75,1.6,1.17,1.6,1.81Z"/>
    <path class="cls-2" d="M532.25,775.37c0,2.24-3.2,5.65-7.46,8.52-4.05,2.66-9.16,4.16-14.27,4.16-14.27,0-25.24-10.97-25.24-27.49,0-15.66,10.65-30.47,26.95-30.47,6.07,0,11.51,2.24,15.24,5.86,3.41,3.41,5.96,8.31,5.96,13.42,0,5.43-2.02,7.67-8.2,7.67-29.72,0-30.15,0-30.15,0-.75,0-1.17.22-1.17,1.07,0,5.43.96,11.29,4.16,15.87,3.2,4.69,7.88,8.2,14.38,8.2,3.94,0,7.46-1.28,9.8-2.66,4.69-2.77,5.97-6.28,7.99-6.28,1.17,0,2.03.96,2.03,2.13ZM495.6,752.79s.1,0,19.07,0c6.49,0,9.8-1.28,9.8-6.82,0-5.33-4.58-11.61-13.1-11.61-11.82,0-16.73,12.89-16.73,17.47,0,.75.32.96.96.96Z"/>
    <path class="cls-2" d="M646.11,785.17c0,1.28-1.17,1.7-2.56,1.7h-15.66c-1.38,0-2.56-.43-2.56-1.7,0-.75.43-1.38,1.6-1.92.75-.32,2.45-1.28,3.2-2.56.96-1.6,1.6-3.94,1.6-11.4v-17.9c0-5.86-1.38-9.16-4.05-11.61-1.92-1.81-4.8-2.98-8.21-2.98-3.41,0-6.92,1.28-9.48,4.05-3.83,4.16-4.48,10.12-4.48,28.44,0,7.46.75,9.8,1.71,11.4.75,1.28,2.13,2.03,3.09,2.56,1.17.64,1.6,1.17,1.6,1.92,0,1.28-1.17,1.7-2.56,1.7h-15.66c-1.38,0-2.56-.43-2.56-1.7,0-.75.43-1.28,1.71-1.92,1.07-.53,2.34-1.28,3.09-2.56.96-1.6,1.6-3.94,1.6-11.4v-17.9c0-5.43-1.07-9.8-3.94-12.14-1.71-1.38-4.16-2.35-7.24-2.35-3.41,0-6.93,1.17-9.69,3.94-4.05,4.16-5.33,10.12-5.33,28.44,0,7.46.53,9.8,1.6,11.4.85,1.28,2.35,2.13,3.09,2.56,1.17.64,1.6,1.17,1.6,1.92,0,1.28-1.17,1.7-2.45,1.7h-15.66c-1.39,0-2.56-.43-2.56-1.7,0-.75.43-1.38,1.6-1.92.96-.43,2.35-1.28,3.2-2.56.96-1.49,1.6-3.94,1.6-11.4v-21.95c0-4.47,0-6.82-1.17-8.2-.75-.85-1.92-1.28-3.41-1.7-1.07-.32-2.24-.64-2.24-1.92,0-.96.32-1.81,2.66-2.34,3.41-.75,5.75-1.6,8.21-2.66.75-.32,1.28-.43,1.81-.43,1.49,0,2.13,1.17,2.13,2.56v7.03c0,.21.1.32.21.32s.21-.11.43-.43c3.09-4.58,8.74-9.48,17.26-9.48,8.41,0,13.32,4.69,15.34,9.59.11.32.21.42.32.42.22,0,.32-.1.53-.42,3.09-4.58,8.52-9.59,17.15-9.59,6.93,0,11.82,3.51,14.49,7.78,2.35,3.83,2.66,7.46,2.66,13.31v18.11c0,7.46.64,9.8,1.6,11.4.75,1.28,2.13,2.03,3.09,2.56,1.07.53,1.7,1.07,1.7,1.92Z"/>
    <path class="cls-2" d="M700.22,758.75c0,15.98-10.65,29.3-26.21,29.3-15.98,0-26.42-11.19-26.42-28.66,0-15.98,10.76-29.3,26.42-29.3,17.04,0,26.21,12.79,26.21,28.66ZM680.19,736.38c-2.13-1.17-4.58-2.03-7.24-2.03-2.98,0-5.75.85-8.2,2.35-5.11,3.3-8.52,9.59-8.52,18.85,0,14.49,7.14,28.02,18.86,28.02,5.33,0,9.59-2.56,12.46-6.6,2.66-3.84,4.16-9.16,4.16-15.02,0-10.54-3.84-21.3-11.51-25.56Z"/>
    <path class="cls-2" d="M757.09,758.75c0,15.98-10.65,29.3-26.21,29.3-15.98,0-26.42-11.19-26.42-28.66,0-15.98,10.76-29.3,26.42-29.3,17.05,0,26.21,12.79,26.21,28.66ZM737.06,736.38c-2.13-1.17-4.58-2.03-7.24-2.03-2.98,0-5.75.85-8.2,2.35-5.11,3.3-8.52,9.59-8.52,18.85,0,14.49,7.14,28.02,18.85,28.02,5.33,0,9.59-2.56,12.47-6.6,2.66-3.84,4.15-9.16,4.15-15.02,0-10.54-3.83-21.3-11.51-25.56Z"/>
    <path class="cls-2" d="M814.18,785.07c0,1.38-1.28,1.81-2.66,1.81h-15.77c-1.38,0-2.56-.43-2.56-1.81,0-.75.43-1.38,1.6-1.92.96-.42,2.34-1.17,3.09-2.45.96-1.6,1.7-4.05,1.7-11.4v-18.11c0-9.16-4.26-14.27-12.36-14.27-3.41,0-7.03,1.17-9.69,3.84-4.26,4.26-5.11,10.12-5.11,28.55,0,7.35.75,9.8,1.7,11.4.75,1.28,2.24,2.03,3.09,2.45,1.17.53,1.6,1.17,1.6,1.92,0,1.38-1.07,1.81-2.56,1.81h-15.66c-1.28,0-2.56-.43-2.56-1.81,0-.75.43-1.38,1.6-1.92.96-.42,2.45-1.17,3.2-2.45.96-1.6,1.7-4.05,1.7-11.4v-20.88c0-5.22,0-7.78-1.28-9.37-.74-.96-1.81-1.28-3.41-1.7-1.17-.32-2.24-.64-2.24-1.92,0-1.07.43-1.7,2.66-2.23,3.3-.75,5.75-1.6,8.2-2.66.75-.32,1.28-.43,1.81-.43,1.49,0,2.13,1.07,2.13,2.45v6.93c0,.22,0,.53.21.53s.32-.22.53-.53c3.09-4.58,8.74-9.37,17.26-9.37,5.54,0,9.91,2.03,12.89,5.33,3.83,4.16,4.47,10.44,4.47,15.55v18.32c0,7.35.64,9.8,1.6,11.4.75,1.28,2.13,2.03,3.09,2.45,1.17.53,1.71,1.17,1.71,1.92Z"/>
  </g>
</svg>